<svg width="1140" height="514" viewBox="0 0 1140 514" xmlns="http://www.w3.org/2000/svg" xmlns:xlink="http://www.w3.org/1999/xlink"><title>constructive-wave-diagram</title><defs><path id="a" d="M2 443.687s375.203-69.194 636.626-145.45c119.14-34.75 181.886-77.598 242.715-91.88C1002.335 177.95 1138 138 1138 138v373.828H2v-68.14z"/></defs><g fill="none" fill-rule="evenodd"><g><path d="M2 224.883s99.635-45.348 175.99-42.914c99.794 3.18 192.37 44.626 312.663 34.135 109.982-9.59 244.278-97.22 331.776-99.886 74.6-2.275 267.925 86.757 267.925 86.757L2 454.504v-229.62z" stroke="#092B5A" stroke-width="2" fill="#09738A"/><g><use stroke="#7C7263" stroke-width="2" fill="#C8A87A" xlink:href="#a"/><use xlink:href="#a"/></g><g stroke="#000" stroke-linecap="square"><path d="M734.06 127H152M734.06 130v-6M152 130v-6" stroke-width="2"/><path d="M1010.5 163.5l128-35M1138.5 128.5l-11.21-.045 1.584 5.787 9.626-5.742zM697 25l68 94M765 119l-3.9-10.51-4.86 3.518L765 119z" stroke-width="2" fill="#000"/><path d="M1097.5 155.798l-57.714 16.404M1039.786 172.202l11.208-.067-1.64-5.772-9.568 5.84z" fill="#000"/></g><g font-weight="420" font-family="Helvetica Neue, Arial, sans-serif" fill="#000" font-size="24"><text transform="translate(377 -2)"><tspan x="239.376" y="23">Low Amplitude</tspan></text><text transform="rotate(-15 873.212 -1233.8)"><tspan x="661.407" y="193">Weak </tspan> <tspan x="636.063" y="221.696">backwash</tspan></text><text transform="rotate(-15 857.792 -1308.735)"><tspan x="599.752" y="132.564">Strong Swash</tspan></text><text transform="translate(377 -2)"><tspan x=".296" y="113">Long wavelength</tspan></text></g></g></g></svg>