<svg width="1140" height="514" viewBox="0 0 1140 514" xmlns="http://www.w3.org/2000/svg" xmlns:xlink="http://www.w3.org/1999/xlink"><title>destructive-wave-diagram</title><defs><path id="a" d="M2 443.687S474.013 364.32 633.887 315.81C793.76 267.297 821.14 190.96 881.97 176.68c29.453-6.916 57.835 46.39 131.57 46.39C1087.272 223.07 1138 138 1138 138v373.828H2v-68.14z"/></defs><g fill="none" fill-rule="evenodd"><g><path d="M2 224.883s168.492-104.98 210.11-88.246c-70.618 52.875-96.39 107.476 14.902 102.812C249.72 244.112 431.36 67.11 493.668 96.753c-69.133 60.105-82.434 79.97-55 106.223 22.588 21.616 76.534 10 113.598 10 112.164-10 269.43-212.4 310.945-164.883-49.996 55.895-39.175 135.935-6.515 146.957 22.494 7.592 83.953 5.613 91.192 17.927C968.882 248.69 975 246.48 975 246.48L2 454.504v-229.62z" stroke="#092B5A" stroke-width="2" fill="#09738A"/><g><use stroke="#7C7263" stroke-width="2" fill="#C8A87A" xlink:href="#a"/><use xlink:href="#a"/></g><g font-weight="420" font-family="Helvetica Neue, Helvetica, Arial, sans-serif" fill="#000" font-size="24"><text transform="translate(225 -1)"><tspan x="679.156" y="23">High Amplitude</tspan></text><text transform="translate(225 -1)"><tspan x="390.352" y="35">Steep Profile</tspan></text><text transform="translate(225 -1)"><tspan x=".304" y="79">Short wavelength</tspan></text><text transform="translate(225 -1)"><tspan x="683.352" y="320">Breakpoint Bar</tspan></text></g><g stroke="#000" stroke-width="2" stroke-linecap="square"><path d="M918 29l-50 23M868 52l11.065-1.788-2.507-5.45L868 52zM705.5 41.5l28 44M733.5 85.5l-3.267-10.722-5.062 3.22 8.33 7.502z" fill="#000"/><path d="M222.5 86h197.09M222.5 83v6M419.59 83v6"/><path d="M925.5 292.5l-37-94M888.5 198.5l1.164 11.148 5.583-2.197-6.747-8.95z" fill="#000"/></g></g></g></svg>