<svg width="1031" height="547" viewBox="0 0 1031 547" xmlns="http://www.w3.org/2000/svg"><title>wave-diagram</title><g fill="none" fill-rule="evenodd"><g><g stroke-width="3"><path d="M1.57 267.862H1024.5" stroke="#A6CEE3" stroke-linecap="square"/><path d="M-2.68 104.198s132.95 329.17 245.174 329.17c112.225 0 334.63-329.17 435.896-329.17 101.266 0 227.08 329.17 317.29 329.17" stroke="#1F78B4"/></g><g stroke-linecap="square"><path d="M154.784 515.5l84.716-77M239.5 438.5l-10.01 5.044 4.036 4.44 5.974-9.484z" stroke="#000" stroke-width="2" fill="#000"/><path d="M681 104.438v325.12M242 99.447v330.11" stroke="#B2DF8A" stroke-width="2" stroke-dasharray="5"/><path d="M242.5 97h438M242.5 94v6M680.5 94v6" stroke="#000" stroke-width="3"/><path d="M901.5 30.5l-218 69M683.5 99.5l11.202-.4-1.81-5.72-9.392 6.12zM699 265.426V111.5M699 265.426l-3-10.8h6l-3 10.8zM699 111.5l-3 10.8h6l-3-10.8zM664 111.5v318M664 111.5l3 10.8h-6l3-10.8zM664 429.5l3-10.8h-6l3 10.8z" stroke="#000" stroke-width="2" fill="#000"/></g><g font-weight="420" font-family="Helvetica Neue" font-size="24" fill="#000"><text transform="rotate(-90 596.5 147.5)"><tspan x="481" y="198">Wave Height</tspan></text><text transform="rotate(90 678 237.348)"><tspan x="578" y="200">Amplitude</tspan></text><text transform="translate(88 2)"><tspan x="780" y="259">Stationary </tspan> <tspan x="780" y="289.696">Water</tspan></text><text transform="translate(88 2)"><tspan x="0" y="535.953">Trough</tspan></text><text transform="translate(88 2)"><tspan x="818.376" y="23">Peak/Crest</tspan></text><text transform="translate(88 2)"><tspan x="323" y="84">Wavelength</tspan></text></g></g></g></svg>