---
---
<svg xmlns="http://www.w3.org/2000/svg" width="1080px" height="587px" viewBox="0 0 1080 587" version="1.1"><title>Water Balance Graph</title><description>Created with Sketch (http://www.bohemiancoding.com/sketch)</description>{% include svg-diagram-style.svg %}<g id="Page-1" stroke="none" stroke-width="1" fill="none" fill-rule="evenodd"><g id="zones" transform="translate(75.000000, 116.000000)"><path d="M0 69C0 69 65.0801626 69.7069994 140.968458 93.0001611 192.670204 108.869501 247.20577 134.393039 292 166 293.212396 166.855471 295.897239 167.37968 296 169 296.276068 173.353021 291.243312 176.476834 285 185 274.393345 199.479862 258.461088 220.67854 239 240 216.818864 262.02199 190.647516 282.012591 173 294 127.362727 324.999976 0 329 0 329L0 69Z" id="Surplus" fill="#00FF7C"/><path d="M302 168.000002C302 168.000002 353 102 366 83.9999999 379 65.9999999 391.09756 52.9530953 399 44.9999999 411.45687 32.4632794 428.470651 21.1378445 443 13.9999999 457.673814 6.79118295 469.817591 3.82816488 473 2.9999999 474.575993 2.58987593 476 2.00000092 486 0.99999997 496 2.5114872e-8 495.220425 0.756179415 500 0.999999967 503.007124 1.15340244 512.143141 2.52800478 514 2.99999997 520.672568 4.6961011 526 5.99999997 526 5.99999997L527 296.999987C527 296.999987 519.833053 296.545684 508 293.999987 495.768152 291.368495 481.719471 283.586221 473 279.999987 448.821328 270.055534 406 243 406 243L302 168.000002Z" id="Utilisation" fill="#FAFF6F"/><path d="M526 6C526 6 551.8825 15.3801898 573 30 586 39 594 46 605 57 608.649032 60.6490326 629.148376 83.1302777 649 111 658.41385 124.216118 662.79588 131.279833 678 153 685 163 698 185 709 203 720 221 734 238 734 238 734 238 716.065097 248.011772 699 256 688.357554 260.981762 648.334619 280.024085 619 287 611.414392 288.803895 611.432627 289.960913 599 293 586.567373 296.039086 581.063486 297.254525 574 298 547.967527 300.747445 527 297 527 297L526 6Z" id="Deficit" fill="#FF0000"/><path d="M856 163C905 126 973 67 973 67L973 325C973 325 905 321.999998 842 300 812.268052 289.617415 786.699789 276.068957 769 264 749.195127 250.495646 739 239 739 239 739 239 807 200 856 163Z" id="Recharge" fill="#4100FF"/></g><path d="M77 527L75 1.5 77 527ZM1057.07498 527.500977L78.1750472 527.500977 77.2500296 527.500977 77.2500296 528 78.1750472 528 1057.07498 528 1058 528 1058 527.500977 1057.07498 527.500977Z" id="Axis" stroke="#000000" stroke-linecap="square"/><g id="axis-labels" transform="translate(10.000000, 11.000000)" fill="#000000"><g id="y-axis"><text id="120"><tspan x="36" y="12">120</tspan></text><text id="100"><tspan x="36" y="96">100</tspan></text><text id="80"><tspan x="39.5" y="180">80</tspan></text><text id="60"><tspan x="39.5" y="264">60</tspan></text><text id="40"><tspan x="39.5" y="348">40</tspan></text><text id="20"><tspan x="39.5" y="432">20</tspan></text><text id="0"><tspan x="56.5" y="515.484009">0</tspan></text><text id="Evapotranspiration-/" transform="translate(9.500000, 284.500000) rotate(-90.000000) translate(-9.500000, -284.500000) "><tspan x="-90.5" y="287">Evapotranspiration / </tspan><tspan x="16.408" y="287">Precipitation</tspan><tspan x="79.984" y="287"> (mm)</tspan></text></g><g id="x-axis" transform="translate(61.000000, 520.000000)"><text id="Jan"><tspan x="-0.5" y="12">Jan</tspan></text><text id="Feb"><tspan x="73.5" y="12">Feb</tspan></text><text id="Mar"><tspan x="163.5" y="12">Mar</tspan></text><text id="Apr"><tspan x="252.5" y="12">Apr</tspan></text><text id="May"><tspan x="341.5" y="12">May</tspan></text><text id="Jun"><tspan x="434" y="12">Jun</tspan></text><text id="Jul"><tspan x="520" y="12">Jul</tspan></text><text id="Aug"><tspan x="603" y="12">Aug</tspan></text><text id="Sept"><tspan x="696.5" y="12">Sept</tspan></text><text id="Oct"><tspan x="793" y="12">Oct</tspan></text><text id="Nov"><tspan x="882" y="12">Nov</tspan></text><text id="Dec"><tspan x="974" y="12">Dec</tspan></text><text id="Month"><tspan x="513.5" y="46">Month</tspan></text></g></g><g id="curves" transform="translate(76.000000, 115.000000)" stroke-width="3" stroke-linecap="square" stroke-dasharray="5"><path d="M968.5 69C968.5 69 805 220 662 274 599.947561 297.432387 584.699746 301 553 301 497 301.000002 482.695817 288.065943 448 270 398.353574 244.149341 347.42697 202.817287 302 173 249.971006 138.849282 265 145 185 108 171.363391 101.693069 118.617236 85.6887275 73 77 34.4882937 69.6646653 1 69 1 69" id="Precipitation-Line" stroke="#209700"/><path d="M0.5 328.5C0.5 328.5 43.3782817 329.239822 87 323.000001 112.421533 319.363606 137.590139 310.891157 156 305.000001 162.623264 302.880551 204.427281 276.38956 237 243.999996 269.217643 211.963509 324.188932 133.069253 334 122.999999 346.947171 109.712114 369.991529 67.8529959 403 39.0000005 433.607151 12.2460204 473.815817-2.20185422 497-0.00000358195649 550.416608 5.07308311 594.422011 39.8063426 630 85.0000034 667 132.000003 704.612045 195.451484 713 209.000003 730.186895 236.760881 754.512649 260.972174 783 276.999988 869.610652 325.729663 970 328.500001 970 328.500001" id="Evapotranspiration-Line" stroke="#FF8D00"/></g><g id="labels" transform="translate(95.000000, 36.000000)"><text id="Precipitation" fill="#000000"><tspan x="148" y="23">Precipitation</tspan></text><text id="Evapotranspiration" fill="#000000"><tspan x="623" y="23">Evapotranspiration</tspan></text><text id="Ground-water-deficit" fill="#FFFFFF"><tspan x="540.346" y="225">Ground </tspan><tspan x="516.79" y="254">water deficit</tspan></text><text id="Ground-water-surplus" fill="#000000"><tspan x="32.58" y="260.691895">Ground water </tspan><tspan x="66.18" y="289.691895">surplus</tspan></text><text id="Ground-water-utilisa" fill="#000000"><tspan x="340.58" y="225">Ground water </tspan><tspan x="363.956" y="254">utilisation</tspan></text><text id="Ground-water-recharg" fill="#FFFFFF"><tspan x="800.83" y="313.191895">Ground water </tspan><tspan x="826.378" y="342.191895">recharge</tspan></text></g><path d="M288.5 78.5L243.5 206.5" id="arrow-1" stroke="#000000" stroke-width="3" stroke-linecap="square"/><path id="arrow-1-decoration-1" d="M243.725453 205.858712C245.969708 202.640915 247.893355 199.882803 250.13761 196.665005 248.156475 195.968512 246.458358 195.371518 244.477223 194.675025 244.214103 198.589316 243.988572 201.944422 243.725453 205.858712 243.725453 205.858712 243.725453 205.858712 243.725453 205.858712Z" stroke="#000000" stroke-width="3" stroke-linecap="square"/><path d="M803.5 70.5L701.5 182.5" id="arrow-2" stroke="#000000" stroke-width="3" stroke-linecap="square"/><path id="arrow-2-decoration-1" d="M701.827223 182.140696C705.148718 180.052979 707.995715 178.263506 711.31721 176.175788 709.764591 174.761796 708.433775 173.549802 706.881156 172.13581 705.112279 175.63752 703.596099 178.638986 701.827223 182.140696 701.827223 182.140696 701.827223 182.140696 701.827223 182.140696Z" stroke="#000000" stroke-width="3" stroke-linecap="square"/></g></svg>