<?xml version="1.0" encoding="UTF-8"?>
<svg xmlns="http://www.w3.org/2000/svg"
     xmlns:xlink="http://www.w3.org/1999/xlink"
     xmlns:gadfly="http://www.gadflyjl.org/ns"
     version="1.2"
     width="301.59mm" height="158.73mm" viewBox="0 0 301.59 158.73"
     stroke="none"
     fill="#000000"
     stroke-width="0.3"
     font-size="3.88"
>
<g class="plotroot xscalable yscalable" id="fig-edd7ea136f9a4eaa8279cc1d968ea839-element-1">
  <g font-size="5.29" font-family="Lato, Helvetica Neue, Helvetica, Arial, sans-serif" fill="#333333" stroke="none" id="fig-edd7ea136f9a4eaa8279cc1d968ea839-element-2">
    <text x="159.96" y="150.73" text-anchor="middle">Year</text>
  </g>
  <g class="guide xlabels" font-size="3.17" font-family="Lato, Helvetica Neue, Helvetica, Arial, sans-serif" fill="#333333" id="fig-edd7ea136f9a4eaa8279cc1d968ea839-element-3">
    <text x="25.34" y="143.44" text-anchor="middle">1800</text>
    <text x="79.19" y="143.44" text-anchor="middle">1850</text>
    <text x="133.04" y="143.44" text-anchor="middle">1900</text>
    <text x="186.89" y="143.44" text-anchor="middle">1950</text>
    <text x="240.74" y="143.44" text-anchor="middle">2000</text>
    <text x="294.59" y="143.44" text-anchor="middle">2050</text>
  </g>
  <g clip-path="url(#fig-edd7ea136f9a4eaa8279cc1d968ea839-element-5)" id="fig-edd7ea136f9a4eaa8279cc1d968ea839-element-4">
    <g pointer-events="visible" opacity="1" fill="none" stroke="none" class="guide background" id="fig-edd7ea136f9a4eaa8279cc1d968ea839-element-6">
      <rect x="23.34" y="14.29" width="273.25" height="124.98"/>
    </g>
    <g class="guide ygridlines xfixed" stroke-dasharray="0.5,0.5" stroke-width="0.2" stroke="#D0D0E0" id="fig-edd7ea136f9a4eaa8279cc1d968ea839-element-7">
      <path fill="none" d="M23.34,137.27 L 296.59 137.27"/>
      <path fill="none" d="M23.34,107.03 L 296.59 107.03"/>
      <path fill="none" d="M23.34,76.78 L 296.59 76.78"/>
      <path fill="none" d="M23.34,46.53 L 296.59 46.53"/>
      <path fill="none" d="M23.34,16.29 L 296.59 16.29"/>
    </g>
    <g class="guide xgridlines yfixed" stroke-dasharray="0.5,0.5" stroke-width="0.2" stroke="#D0D0E0" id="fig-edd7ea136f9a4eaa8279cc1d968ea839-element-8">
      <path fill="none" d="M25.34,14.29 L 25.34 139.27"/>
      <path fill="none" d="M79.19,14.29 L 79.19 139.27"/>
      <path fill="none" d="M133.04,14.29 L 133.04 139.27"/>
      <path fill="none" d="M186.89,14.29 L 186.89 139.27"/>
      <path fill="none" d="M240.74,14.29 L 240.74 139.27"/>
      <path fill="none" d="M294.59,14.29 L 294.59 139.27"/>
    </g>
    <g class="plotpanel" id="fig-edd7ea136f9a4eaa8279cc1d968ea839-element-9">
      <g class="geometry" stroke="none" fill="#4C404B" font-size="5.29" font-family="Lato, Helvetica Neue, Helvetica, Arial, sans-serif" id="fig-edd7ea136f9a4eaa8279cc1d968ea839-element-10">
        <text x="101.59" y="33.75" text-anchor="middle" dy="0.35em" visibility="visible">Estimated Data</text>
      </g>
      <g class="yfixed" stroke-width="0.3" stroke="#7570B3" id="fig-edd7ea136f9a4eaa8279cc1d968ea839-element-11">
        <path fill="none" d="M25.34,14.29 L 25.34 139.27"/>
        <path fill="none" d="M186.89,14.29 L 186.89 139.27"/>
      </g>
      <g stroke-width="0.3" fill="none" class="geometry" stroke="#E6550D" id="fig-edd7ea136f9a4eaa8279cc1d968ea839-element-12">
        <path fill="none" d="M25.34,120.15 L 25.64 120.08 25.95 120.02 26.26 119.95 26.56 119.89 26.87 119.83 27.17 119.77 27.48 119.71 27.79 119.65 28.09 119.59 28.4 119.53 28.7 119.47 29.01 119.41 29.31 119.35 29.62 119.3 29.93 119.24 30.23 119.18 30.54 119.13 30.84 119.07 31.15 119.02 31.46 118.97 31.76 118.91 32.07 118.86 32.37 118.81 32.68 118.76 32.98 118.71 33.29 118.66 33.6 118.61 33.9 118.56 34.21 118.51 34.51 118.46 34.82 118.41 35.13 118.37 35.43 118.32 35.74 118.27 36.04 118.23 36.35 118.18 36.66 118.14 36.96 118.09 37.27 118.05 37.57 118.01 37.88 117.97 38.18 117.92 38.49 117.88 38.8 117.84 39.1 117.8 39.41 117.76 39.71 117.72 40.02 117.68 40.33 117.64 40.63 117.6 40.94 117.57 41.24 117.53 41.55 117.49 41.86 117.46 42.16 117.42 42.47 117.39 42.77 117.35 43.08 117.32 43.38 117.28 43.69 117.25 44 117.21 44.3 117.18 44.61 117.15 44.91 117.12 45.22 117.09 45.53 117.05 45.83 117.02 46.14 116.99 46.44 116.96 46.75 116.93 47.05 116.9 47.36 116.88 47.67 116.85 47.97 116.82 48.28 116.79 48.58 116.76 48.89 116.74 49.2 116.71 49.5 116.68 49.81 116.66 50.11 116.63 50.42 116.61 50.73 116.58 51.03 116.56 51.34 116.54 51.64 116.51 51.95 116.49 52.25 116.47 52.56 116.44 52.87 116.42 53.17 116.4 53.48 116.38 53.78 116.36 54.09 116.34 54.4 116.31 54.7 116.29 55.01 116.27 55.31 116.26 55.62 116.24 55.93 116.22 56.23 116.2 56.54 116.18 56.84 116.16 57.15 116.14 57.45 116.13 57.76 116.11 58.07 116.09 58.37 116.08 58.68 116.06 58.98 116.04 59.29 116.03 59.6 116.01 59.9 116 60.21 115.98 60.51 115.97 60.82 115.95 61.12 115.94 61.43 115.92 61.74 115.91 62.04 115.9 62.35 115.88 62.65 115.87 62.96 115.86 63.27 115.84 63.57 115.83 63.88 115.82 64.18 115.81 64.49 115.8 64.8 115.78 65.1 115.77 65.41 115.76 65.71 115.75 66.02 115.74 66.32 115.73 66.63 115.72 66.94 115.71 67.24 115.7 67.55 115.69 67.85 115.68 68.16 115.67 68.47 115.66 68.77 115.65 69.08 115.64 69.38 115.63 69.69 115.63 70 115.62 70.3 115.61 70.61 115.6 70.91 115.59 71.22 115.59 71.52 115.58 71.83 115.57 72.14 115.56 72.44 115.56 72.75 115.55 73.05 115.54 73.36 115.54 73.67 115.53 73.97 115.52 74.28 115.52 74.58 115.51 74.89 115.5 75.19 115.5 75.5 115.49 75.81 115.49 76.11 115.48 76.42 115.47 76.72 115.47 77.03 115.46 77.34 115.46 77.64 115.45 77.95 115.45 78.25 115.44 78.56 115.44 78.87 115.43 79.17 115.43 79.48 115.42 79.78 115.42 80.09 115.41 80.39 115.41 80.7 115.4 81.01 115.4 81.31 115.39 81.62 115.39 81.92 115.38 82.23 115.38 82.54 115.37 82.84 115.37 83.15 115.37 83.45 115.36 83.76 115.36 84.07 115.35 84.37 115.35 84.68 115.34 84.98 115.34 85.29 115.34 85.59 115.33 85.9 115.33 86.21 115.32 86.51 115.32 86.82 115.31 87.12 115.31 87.43 115.3 87.74 115.3 88.04 115.3 88.35 115.29 88.65 115.29 88.96 115.28 89.26 115.28 89.57 115.27 89.88 115.27 90.18 115.26 90.49 115.26 90.79 115.25 91.1 115.25 91.41 115.24 91.71 115.24 92.02 115.23 92.32 115.23 92.63 115.22 92.94 115.22 93.24 115.21 93.55 115.21 93.85 115.2 94.16 115.2 94.46 115.19 94.77 115.18 95.08 115.18 95.38 115.17 95.69 115.17 95.99 115.16 96.3 115.15 96.61 115.15 96.91 115.14 97.22 115.13 97.52 115.13 97.83 115.12 98.14 115.11 98.44 115.1 98.75 115.1 99.05 115.09 99.36 115.08 99.66 115.07 99.97 115.07 100.28 115.06 100.58 115.05 100.89 115.04 101.19 115.03 101.5 115.02 101.81 115.01 102.11 115.01 102.42 115 102.72 114.99 103.03 114.98 103.33 114.97 103.64 114.96 103.95 114.95 104.25 114.94 104.56 114.93 104.86 114.92 105.17 114.9 105.48 114.89 105.78 114.88 106.09 114.87 106.39 114.86 106.7 114.85 107.01 114.83 107.31 114.82 107.62 114.81 107.92 114.8 108.23 114.78 108.53 114.77 108.84 114.76 109.15 114.74 109.45 114.73 109.76 114.71 110.06 114.7 110.37 114.68 110.68 114.67 110.98 114.65 111.29 114.64 111.59 114.62 111.9 114.6 112.21 114.59 112.51 114.57 112.82 114.55 113.12 114.54 113.43 114.52 113.73 114.5 114.04 114.48 114.35 114.46 114.65 114.45 114.96 114.43 115.26 114.41 115.57 114.39 115.88 114.37 116.18 114.35 116.49 114.33 116.79 114.3 117.1 114.28 117.4 114.26 117.71 114.24 118.02 114.22 118.32 114.19 118.63 114.17 118.93 114.15 119.24 114.12 119.55 114.1 119.85 114.07 120.16 114.05 120.46 114.02 120.77 114 121.08 113.97 121.38 113.95 121.69 113.92 121.99 113.89 122.3 113.87 122.6 113.84 122.91 113.81 123.22 113.78 123.52 113.75 123.83 113.72 124.13 113.69 124.44 113.66 124.75 113.63 125.05 113.6 125.36 113.57 125.66 113.54 125.97 113.51 126.28 113.47 126.58 113.44 126.89 113.41 127.19 113.37 127.5 113.34 127.8 113.3 128.11 113.27 128.42 113.23 128.72 113.2 129.03 113.16 129.33 113.12 129.64 113.08 129.95 113.05 130.25 113.01 130.56 112.97 130.86 112.93 131.17 112.89 131.47 112.85 131.78 112.81 132.09 112.77 132.39 112.73 132.7 112.68 133 112.64 133.31 112.57 133.62 112.5 133.92 112.43 134.23 112.36 134.53 112.3 134.84 112.23 135.15 112.16 135.45 112.1 135.76 112.04 136.06 111.97 136.37 111.91 136.67 111.85 136.98 111.79 137.29 111.73 137.59 111.67 137.9 111.62 138.2 111.56 138.51 111.5 138.82 111.45 139.12 111.39 139.43 111.34 139.73 111.28 140.04 111.23 140.35 111.18 140.65 111.13 140.96 111.08 141.26 111.02 141.57 110.97 141.87 110.93 142.18 110.88 142.49 110.83 142.79 110.78 143.1 110.73 143.4 110.68 143.71 110.64 144.02 110.59 144.32 110.54 144.63 110.5 144.93 110.45 145.24 110.4 145.54 110.36 145.85 110.31 146.16 110.27 146.46 110.22 146.77 110.18 147.07 110.13 147.38 110.09 147.69 110.05 147.99 110 148.3 109.96 148.6 109.91 148.91 109.87 149.22 109.82 149.52 109.78 149.83 109.73 150.13 109.69 150.44 109.65 150.74 109.6 151.05 109.56 151.36 109.51 151.66 109.47 151.97 109.42 152.27 109.37 152.58 109.33 152.89 109.28 153.19 109.24 153.5 109.19 153.8 109.14 154.11 109.09 154.42 109.05 154.72 109 155.03 108.95 155.33 108.9 155.64 108.85 155.94 108.8 156.25 108.75 156.56 108.7 156.86 108.64 157.17 108.59 157.47 108.54 157.78 108.49 158.09 108.43 158.39 108.38 158.7 108.32 159 108.26 159.31 108.21 159.61 108.15 159.92 108.09 160.23 108.02 160.53 107.94 160.84 107.86 161.14 107.78 161.45 107.7 161.76 107.62 162.06 107.54 162.37 107.46 162.67 107.38 162.98 107.3 163.29 107.22 163.59 107.13 163.9 107.05 164.2 106.97 164.51 106.88 164.81 106.8 165.12 106.71 165.43 106.62 165.73 106.54 166.04 106.45 166.34 106.36 166.65 106.27 166.96 106.18 167.26 106.09 167.57 106 167.87 105.91 168.18 105.82 168.49 105.72 168.79 105.63 169.1 105.53 169.4 105.44 169.71 105.34 170.01 105.24 170.32 105.14 170.63 105.04 170.93 104.94 171.24 104.84 171.54 104.74 171.85 104.64 172.16 104.53 172.46 104.43 172.77 104.32 173.07 104.22 173.38 104.11 173.68 104 173.99 103.89 174.3 103.78 174.6 103.66 174.91 103.55 175.21 103.44 175.52 103.32 175.83 103.2 176.13 103.09 176.44 102.97 176.74 102.85 177.05 102.73 177.36 102.61 177.66 102.49 177.97 102.36 178.27 102.24 178.58 102.12 178.88 101.99 179.19 101.86 179.5 101.74 179.8 101.61 180.11 101.48 180.41 101.35 180.72 101.21 181.03 101.08 181.33 100.95 181.64 100.81 181.94 100.67 182.25 100.54 182.56 100.4 182.86 100.26 183.17 100.12 183.47 99.97 183.78 99.83 184.08 99.68 184.39 99.53 184.7 99.38 185 99.23 185.31 99.08 185.61 98.93 185.92 98.77 186.23 98.62 186.53 98.46 186.84 98.3 187.14 98.14 187.45 97.98 187.75 97.81 188.06 97.64 188.37 97.48 188.67 97.31 188.98 97.13 189.28 96.96 189.59 96.78 189.9 96.61 190.2 96.43 190.51 96.25 190.81 96.06 191.12 95.88 191.43 95.69 191.73 95.5 192.04 95.31 192.34 95.12 192.65 94.92 192.95 94.73 193.26 94.53 193.57 94.32 193.87 94.12 194.18 93.91 194.48 93.71 194.79 93.5 195.1 93.28 195.4 93.07 195.71 92.85 196.01 92.63 196.32 92.41 196.63 92.18 196.93 91.96 197.24 91.73 197.54 91.49 197.85 91.26 198.15 91.02 198.46 90.78 198.77 90.54 199.07 90.3 199.38 90.05 199.68 89.79 199.99 89.54 200.3 89.28 200.6 89.02 200.91 88.75 201.21 88.48 201.52 88.21 201.82 87.94 202.13 87.67 202.44 87.39 202.74 87.11 203.05 86.82 203.35 86.54 203.66 86.25 203.97 85.96 204.27 85.67 204.58 85.37 204.88 85.07 205.19 84.77 205.5 84.46 205.8 84.15 206.11 83.84 206.41 83.53 206.72 83.23 207.02 82.92 207.33 82.61 207.64 82.29 207.94 81.98 208.25 81.67 208.55 81.35 208.86 81.04 209.17 80.73 209.47 80.41 209.78 80.09 210.08 79.78 210.39 79.46 210.7 79.14 211 78.82 211.31 78.5 211.61 78.18 211.92 77.86 212.22 77.53 212.53 77.21 212.84 76.89 213.14 76.56 213.45 76.24 213.75 75.92 214.06 75.6 214.37 75.27 214.67 74.95 214.98 74.62 215.28 74.3 215.59 73.97 215.89 73.65 216.2 73.33 216.51 73 216.81 72.68 217.12 72.35 217.42 72.03 217.73 71.7 218.04 71.37 218.34 71.04 218.65 70.71 218.95 70.38 219.26 70.05 219.57 69.72 219.87 69.39 220.18 69.05 220.48 68.71 220.79 68.37 221.09 68.03 221.4 67.69 221.71 67.35 222.01 67 222.32 66.65 222.62 66.3 222.93 65.95 223.24 65.59 223.54 65.23 223.85 64.88 224.15 64.52 224.46 64.16 224.77 63.8 225.07 63.43 225.38 63.06 225.68 62.7 225.99 62.33 226.29 61.96 226.6 61.59 226.91 61.22 227.21 60.86 227.52 60.49 227.82 60.11 228.13 59.74 228.44 59.37 228.74 59 229.05 58.63 229.35 58.26 229.66 57.89 229.96 57.52 230.27 57.14 230.58 56.77 230.88 56.4 231.19 56.03 231.49 55.67 231.8 55.3 232.11 54.93 232.41 54.57 232.72 54.2 233.02 53.84 233.33 53.47 233.64 53.11 233.94 52.75 234.25 52.39 234.55 52.03 234.86 51.68 235.16 51.32 235.47 50.96 235.78 50.61 236.08 50.26 236.39 49.9 236.69 49.55 237 49.2 237.31 48.86 237.61 48.51 237.92 48.16 238.22 47.82 238.53 47.48 238.84 47.13 239.14 46.79 239.45 46.45 239.75 46.11 240.06 45.77 240.36 45.43 240.67 45.09 240.98 44.75 241.28 44.41 241.59 44.07 241.89 43.73 242.2 43.39 242.51 43.06 242.81 42.72 243.12 42.38 243.42 42.04 243.73 41.7 244.03 41.37 244.34 41.03 244.65 40.69 244.95 40.35 245.26 40.01 245.56 39.68 245.87 39.34 246.18 39 246.48 38.67 246.79 38.33 247.09 37.99 247.4 37.66 247.71 37.32 248.01 36.98 248.32 36.65 248.62 36.31 248.93 35.98 249.23 35.64 249.54 35.3 249.85 34.97 250.15 34.63 250.46 34.3 250.76 33.96 251.07 33.63 251.38 33.29 251.68 32.96 251.99 32.62 252.29 32.29 252.6 31.95 252.91 31.61 253.21 31.28 253.52 30.94 253.82 30.61 254.13 30.27 254.43 29.94"/>
      </g>
    </g>
  </g>
  <g class="guide ylabels" font-size="3.17" font-family="Lato, Helvetica Neue, Helvetica, Arial, sans-serif" fill="#333333" id="fig-edd7ea136f9a4eaa8279cc1d968ea839-element-13">
    <text x="22.34" y="137.27" text-anchor="end" dy="0.35em">0</text>
    <text x="22.34" y="107.03" text-anchor="end" dy="0.35em">2000</text>
    <text x="22.34" y="76.78" text-anchor="end" dy="0.35em">4000</text>
    <text x="22.34" y="46.53" text-anchor="end" dy="0.35em">6000</text>
    <text x="22.34" y="16.29" text-anchor="end" dy="0.35em">8000</text>
  </g>
  <g font-size="5.29" font-family="Lato, Helvetica Neue, Helvetica, Arial, sans-serif" fill="#333333" stroke="none" id="fig-edd7ea136f9a4eaa8279cc1d968ea839-element-14">
    <text x="9.64" y="74.78" text-anchor="middle" dy="0.35em" transform="rotate(-90, 9.64, 76.78)">Population (Millions of People)</text>
  </g>
  <g font-size="5.29" font-family="Lato, Helvetica Neue, Helvetica, Arial, sans-serif" fill="#333333" stroke="none" id="fig-edd7ea136f9a4eaa8279cc1d968ea839-element-15">
    <text x="159.96" y="12.29" text-anchor="middle">World Population Growth from 1800–2013</text>
  </g>
</g>
<defs>
<clipPath id="fig-edd7ea136f9a4eaa8279cc1d968ea839-element-5">
  <path d="M23.34,14.29 L 296.59 14.29 296.59 139.27 23.34 139.27" />
</clipPath
></defs>
</svg>
