---
---
<svg xmlns="http://www.w3.org/2000/svg" width="1049px" height="549px" viewBox="0 0 1049 549" version="1.1"><title>Wave Diagram</title><description>Created with Sketch (http://www.bohemiancoding.com/sketch)</description>{% include svg-diagram-style.svg %}<g id="Page-1" stroke="none" stroke-width="1" fill="none" fill-rule="evenodd"><g id="Peak/Trough-Markers" transform="translate(254.000000, 97.000000)" stroke-linecap="square"><path d="M440 0.447297297L440 330.557562" id="Line" stroke="#7ED321" stroke-width="2"/><path d="M1 0.447297297L1 330.557562" id="Line-copy" stroke="#7ED321" stroke-width="2"/><path d="M7 2L436 2" id="Wavelength" stroke="#000000" stroke-width="3"/><path id="Wavelength-decoration-1" d="M436 2C432.22 0.95 428.98 0.05 425.2-1 425.2 1.1 425.2 2.9 425.2 5 428.98 3.95 432.22 3.05 436 2 436 2 436 2 436 2Z" stroke="#000000" stroke-width="3"/><path id="Wavelength-decoration-2" d="M7.8 2C11.58 0.95 14.82 0.05 18.6-1 18.6 1.1 18.6 2.9 18.6 5 14.82 3.95 11.58 3.05 7.8 2 7.8 2 7.8 2 7.8 2Z" stroke="#000000" stroke-width="3"/></g><g id="Equilibirum-Line-+-Wave" transform="translate(4.000000, 102.000000)"><path d="M10.5712657 164.5L1033.50049 164.5" id="Equilibirum-Line" stroke="#979797" stroke-width="5" stroke-linecap="square"/><path d="M-0.45349288 328.801658C-0.45349288 328.801658 139.26953-0.367496742 251.494051-0.367500668 363.718572-0.367504594 586.124062 328.801662 687.38983 328.801658 788.655597 328.801658 914.471011-0.367500668 1004.67866-0.367500668" id="Wave" stroke="#303BA3" stroke-width="3" transform="translate(502.500000, 164.500000) scale(1, -1) translate(-502.500000, -164.500000) "/></g><g id="Line-+-Peak" transform="translate(696.000000, 28.000000)" stroke="#000000" stroke-width="3" stroke-linecap="square"><path d="M218.5 0.499999965L0.5 69.5000027" id="Line"/><path id="Line-decoration-1" d="M1.12840784 69.301103C5.04904716 69.1615065 8.40959514 69.0418524 12.3302345 68.9022559 11.6965402 66.9001491 11.1533737 65.1840576 10.5196794 63.1819508 7.23273437 65.3236541 4.4153529 67.1593997 1.12840784 69.301103 1.12840784 69.301103 1.12840784 69.301103 1.12840784 69.301103Z"/></g><g id="Line-+-Trough" transform="translate(167.000000, 436.000000)" stroke="#000000" stroke-width="3" stroke-linecap="square"><path d="M0.783870968 77.5L85.4999973 0.5" id="Line"/><path id="Line-decoration-1" d="M85.1443075 0.823292864C81.6408602 2.58872705 78.6379054 4.10195636 75.1344581 5.86739055 76.5469237 7.42139854 77.7576085 8.75340539 79.1700742 10.3074134 81.2610558 6.9879712 83.0533258 4.14273504 85.1443075 0.823292864 85.1443075 0.823292864 85.1443075 0.823292864 85.1443075 0.823292864Z"/></g><g id="Amplitude-+-Line" transform="translate(711.000000, 109.000000)" stroke="#000000" stroke-width="3" stroke-linecap="square"><path d="M1.5 154.426316L1.5 0.5" id="Line"/><path id="Line-decoration-1" d="M1.5 1.42631531C0.45 5.20631537-0.45 8.44631542-1.5 12.2263155 0.6 12.2263154 2.4 12.2263153 4.5 12.2263152 3.45 8.44631525 2.55 5.20631528 1.5 1.42631531 1.5 1.42631531 1.5 1.42631531 1.5 1.42631531Z"/><path id="Line-decoration-2" d="M1.5 153.626316C0.45 149.846316-0.45 146.606316-1.5 142.826316 0.6 142.826316 2.4 142.826316 4.5 142.826316 3.45 146.606316 2.55 149.846316 1.5 153.626316 1.5 153.626316 1.5 153.626316 1.5 153.626316Z"/></g><g id="Line-+-Wave-Height" transform="translate(676.000000, 109.000000)" stroke="#000000" stroke-width="3" stroke-linecap="square"><path d="M1.5 0.5L1.5 318.5" id="Line"/><path id="Line-decoration-1" d="M1.5 318.5C2.55 314.72 3.45 311.48 4.5 307.7 2.4 307.7 0.6 307.7-1.5 307.7 -0.45 311.48 0.45 314.72 1.5 318.5 1.5 318.5 1.5 318.5 1.5 318.5Z"/><path id="Line-decoration-2" d="M1.5 1.3C2.55 5.08000005 3.45 8.32000009 4.5 12.1000001 2.4 12.1 0.6 12.1-1.5 12.0999999 -0.45 8.31999991 0.45 5.07999995 1.5 1.3 1.5 1.3 1.5 1.3 1.5 1.3Z"/></g><g id="labels" transform="translate(101.000000, -1.000000)"><text id="Wave-Height" transform="translate(544.500000, 196.500000) rotate(-90.000000) translate(-544.500000, -196.500000) " fill="#000000"><tspan x="479" y="205">Wave Height</tspan></text><text id="Amplitude" transform="translate(635.000000, 192.500000) rotate(-270.000000) translate(-635.000000, -192.500000) " fill="#000000"><tspan x="578" y="201">Amplitude</tspan></text><text id="Stationary-Water" font-style="italic" fill="#9B9B9B"><tspan x="770" y="259">Stationary Water</tspan></text><text id="Trough" fill="#000000"><tspan x="0" y="536.953488">Trough</tspan></text><text id="Peak/Crest" fill="#000000"><tspan x="814.375796" y="23">Peak/Crest</tspan></text><text id="Wavelength" fill="#000000"><tspan x="323" y="94">Wavelength</tspan></text></g></g></svg>