<svg xmlns="http://www.w3.org/2000/svg" width="1051" height="549" viewBox="0" version="1.1"><title>Wave Diagram</title><description>Created with Sketch (http://www.bohemiancoding.com/sketch)</description><g id="Page-1" stroke="none" stroke-width="1" fill="none" fill-rule="evenodd"><g id="Peak/Trough-Markers" transform="translate(257.000000, 72.000000)"><path d="M440 27.45L440 357.56" id="Line" stroke="#7ED321" stroke-width="2" stroke-linecap="square"/><path d="M1 27.45L1 357.56" id="Line-copy" stroke="#7ED321" stroke-width="2" stroke-linecap="square"/><path d="M7 29L436 29" id="Wavelength" stroke="#000000" stroke-width="3" stroke-linecap="square"/><path id="Wavelength-decoration-1" d="M436 29C432.22 27.95 428.98 27.05 425.2 26 425.2 28.1 425.2 29.9 425.2 32 428.98 30.95 432.22 30.05 436 29 436 29 436 29 436 29Z" stroke="#000000" stroke-width="3" stroke-linecap="square"/><path id="Wavelength-decoration-2" d="M7.8 29C11.58 27.95 14.82 27.05 18.6 26 18.6 28.1 18.6 29.9 18.6 32 14.82 30.95 11.58 30.05 7.8 29 7.8 29 7.8 29 7.8 29Z" stroke="#000000" stroke-width="3" stroke-linecap="square"/><text id="Wavelength" font-family="Helvetica Neue" font-size="24" font-weight="260" fill="#000000"><tspan x="170" y="23">Wavelength</tspan></text></g><g id="Equilibirum-Line-+-Wave" transform="translate(7.000000, 104.000000)"><path d="M10.57 164.5L1033.5 164.5" id="Equilibirum-Line" stroke="#979797" stroke-width="5" stroke-linecap="square"/><path d="M-0.45 328.8C-0.45 328.8 139.27-0.37 251.49-0.37 363.72-0.37 586.12 328.8 687.39 328.8 788.66 328.8 914.47-0.37 1004.68-0.37" id="Wave" stroke="#303BA3" stroke-width="3" transform="translate(502.500000, 164.500000) scale(1, -1) translate(-502.500000, -164.500000) "/></g><g id="Line-+-Peak" transform="translate(699.000000, 1.000000)"><path d="M218.5 29.5L0.5 98.5" id="Line" stroke="#000000" stroke-width="3" stroke-linecap="square"/><path id="Line-decoration-1" d="M1.13 98.3C5.05 98.16 8.41 98.04 12.33 97.9 11.7 95.9 11.15 94.18 10.52 92.18 7.23 94.32 4.42 96.16 1.13 98.3 1.13 98.3 1.13 98.3 1.13 98.3Z" stroke="#000000" stroke-width="3" stroke-linecap="square"/><text id="Peak/Crest" font-family="Helvetica Neue" font-size="24" font-weight="260" fill="#000000"><tspan x="219.38" y="23">Peak/Crest</tspan></text></g><g id="Line-+-Trough" transform="translate(104.000000, 438.000000)"><path d="M66.78 77.5L151.5 0.5" id="Line" stroke="#000000" stroke-width="3" stroke-linecap="square"/><path id="Line-decoration-1" d="M151.14 0.82C147.64 2.59 144.64 4.1 141.13 5.87 142.55 7.42 143.76 8.75 145.17 10.31 147.26 6.99 149.05 4.14 151.14 0.82 151.14 0.82 151.14 0.82 151.14 0.82Z" stroke="#000000" stroke-width="3" stroke-linecap="square"/><text id="Trough" font-family="Helvetica Neue" font-size="24" font-weight="260" fill="#000000"><tspan x="0" y="99.95">Trough</tspan></text></g><g id="Amplitude-+-Line" transform="translate(714.000000, 111.000000)"><text id="Amplitude" transform="translate(25.000000, 82.500000) rotate(-270.000000) translate(-25.000000, -82.500000) " font-family="Helvetica Neue" font-size="24" font-weight="260" fill="#000000"><tspan x="-32" y="91">Amplitude</tspan></text><path d="M1.5 154.43L1.5 0.5" id="Line" stroke="#000000" stroke-width="3" stroke-linecap="square"/><path id="Line-decoration-1" d="M1.5 1.43C0.45 5.21-0.45 8.45-1.5 12.23 0.6 12.23 2.4 12.23 4.5 12.23 3.45 8.45 2.55 5.21 1.5 1.43 1.5 1.43 1.5 1.43 1.5 1.43Z" stroke="#000000" stroke-width="3" stroke-linecap="square"/><path id="Line-decoration-2" d="M1.5 153.63C0.45 149.85-0.45 146.61-1.5 142.83 0.6 142.83 2.4 142.83 4.5 142.83 3.45 146.61 2.55 149.85 1.5 153.63 1.5 153.63 1.5 153.63 1.5 153.63Z" stroke="#000000" stroke-width="3" stroke-linecap="square"/></g><g id="Line-+-Wave-Height" transform="translate(634.000000, 111.000000)"><path d="M46.5 0.5L46.5 318.5" id="Line" stroke="#000000" stroke-width="3" stroke-linecap="square"/><path id="Line-decoration-1" d="M46.5 318.5C47.55 314.72 48.45 311.48 49.5 307.7 47.4 307.7 45.6 307.7 43.5 307.7 44.55 311.48 45.45 314.72 46.5 318.5 46.5 318.5 46.5 318.5 46.5 318.5Z" stroke="#000000" stroke-width="3" stroke-linecap="square"/><path id="Line-decoration-2" d="M46.5 1.3C47.55 5.08 48.45 8.32 49.5 12.1 47.4 12.1 45.6 12.1 43.5 12.1 44.55 8.32 45.45 5.08 46.5 1.3 46.5 1.3 46.5 1.3 46.5 1.3Z" stroke="#000000" stroke-width="3" stroke-linecap="square"/><text id="Wave-Height" transform="translate(14.500000, 86.500000) rotate(-90.000000) translate(-14.500000, -86.500000) " font-family="Helvetica Neue" font-size="24" font-weight="260" fill="#000000"><tspan x="-51" y="95">Wave Height</tspan></text></g><text id="Stationary-Water" font-family="Helvetica Neue" font-size="24" font-style="italic" font-weight="260" fill="#9B9B9B"><tspan x="874" y="260">Stationary Water</tspan></text></g></svg>