---
---
<svg xmlns="http://www.w3.org/2000/svg" width="1140px" height="558px" viewBox="0 0 1140 558" version="1.1"><title>Discordant Coastline</title><description>Created with Sketch (http://www.bohemiancoding.com/sketch)</description>{% include svg-diagram-style.svg %}<defs><linearGradient x1="50%" y1="0%" x2="50%" y2="56.8131716%" id="linearGradient-1"><stop stop-color="#092B5A" offset="0%"/><stop stop-color="#09738A" offset="100%"/></linearGradient></defs><g id="Page-1" stroke="none" stroke-width="1" fill="none" fill-rule="evenodd"><path d="M1 3L1 170.852333C0.999991709 226.901555 1 339 1 339L1138 339 1138 3 1 3Z" id="Water" fill="url(#linearGradient-1)"/><path d="M1 121L1 558 208 558 208 121 1 121ZM931 121L931 558 1138 558 1138 121 931 121Z" id="Hard-Rock" fill="#493829"/><path d="M576 333C454.840619 333.000011 207 121 207 121L207 558 931 558 931 121C931 121 696.173952 333 576 333Z" id="Soft-Rock" fill="#C8A87A"/><text id="Soft-Rock" font-family="Helvetica Neue, Arial, sans-serif"   fill="#000000"><tspan x="517" y="459">Soft Rock</tspan></text><text id="Hard-Rock" font-family="Helvetica Neue, Arial, sans-serif"   fill="#F7F7F7"><tspan x="39" y="459">Hard Rock</tspan></text><text id="Hard-Rock" font-family="Helvetica Neue, Arial, sans-serif"   fill="#FFFFFF"><tspan x="995" y="459">Hard Rock</tspan></text><text id="Sea" font-family="Helvetica Neue, Arial, sans-serif"   fill="#FFFFFF"><tspan x="548" y="79">Sea</tspan></text></g></svg>