<svg xmlns="http://www.w3.org/2000/svg" width="664px" height="368px" viewBox="0 0 664 368" version="1.1"><title>Coastal Bedding Layers</title><description>Created with Sketch (http://www.bohemiancoding.com/sketch)</description><defs><linearGradient x1="101.290008%" y1="60.3622139%" x2="0%" y2="60.3622159%" id="linearGradient-1"><stop stop-color="#09738A" stop-opacity="0.5" offset="0%"/><stop stop-color="#092B5A" offset="100%"/></linearGradient><linearGradient x1="50%" y1="12.8502887%" x2="50%" y2="87.3248556%" id="linearGradient-2"><stop stop-color="#493829" offset="0%"/><stop stop-color="#C8A87A" offset="6.33114906%"/><stop stop-color="#493829" offset="23.8910136%"/><stop stop-color="#493829" offset="67.8382577%"/><stop stop-color="#C8A87A" offset="82.0683856%"/><stop stop-color="#493829" offset="100%"/></linearGradient></defs><g id="Horizontal-Layers" stroke="none" stroke-width="1" fill="none" fill-rule="evenodd"><path d="M326 321C258 278 195.429908 293 151 293 77.9596354 293.000001 0 313 0 313L0 368 496 368 496 313C496 313 394.000012 364 326 321Z" id="water" fill="url(#linearGradient-1)"/><path d="M404.157676 0C404.157676 0 402.548499 19.1518962 410.257261 46.4709898 413.081081 56.4783268 430.99585 63.0256304 430.995851 76.6143345 430.995852 99.496365 415.800719 108.459676 410.257261 121.829352 403.521745 138.074032 406.065312 157.796078 404.157676 178.348123 400.962661 212.769862 415.738131 245.382762 410.257263 275 400.457986 327.952838 370 368 370 368L664 368 664 0 404.157676 0Z" id="cliff-face" fill="url(#linearGradient-2)"/><g id="labels" transform="translate(22.000000, 23.000000)" font-weight="lighter" font-family="Helvetica Neue, Arial, sans-serif" fill="#000000" font-size="24"><text id="diagram-label"><tspan x="9.718" y="23.5">Differential erosion </tspan><tspan x="7.054" y="52.5">producing notches</tspan></text></g><g id="arrows" transform="translate(216.000000, 45.000000)" stroke="#000000" stroke-width="3" stroke-linecap="square"><path d="M15.5 0.5L208.5 35.5" id="Line"/><path id="Line-decoration-1" d="M208.35447 35.4736086C204.822493 33.7659686 201.795083 32.3022772 198.263106 30.5946372 197.888388 32.6609351 197.567202 34.4320476 197.192485 36.4983455 201.09918 36.1396876 204.447775 35.8322665 208.35447 35.4736086 208.35447 35.4736086 208.35447 35.4736086 208.35447 35.4736086Z"/><path d="M0.5 41.5L191.5 220.5" id="Line"/><path id="Line-decoration-1" d="M190.94031 219.975474C188.900214 216.624518 187.15156 213.752269 185.111464 210.401313 183.675454 211.933591 182.444589 213.246973 181.008579 214.779251 184.484685 216.597929 187.464204 218.156796 190.94031 219.975474 190.94031 219.975474 190.94031 219.975474 190.94031 219.975474Z"/></g></g></svg>