<svg xmlns="http://www.w3.org/2000/svg" width="663px" height="375px" viewBox="0 0 663 375" version="1.1"><title>Coastal Bedding Layers</title><description>Created with Sketch (http://www.bohemiancoding.com/sketch)</description><defs><linearGradient x1="101.290008%" y1="60.3622139%" x2="0%" y2="60.3622159%" id="linearGradient-1"><stop stop-color="#09738A" stop-opacity="0.5" offset="0%"/><stop stop-color="#092B5A" offset="100%"/></linearGradient><linearGradient x1="85.3103741%" y1="21.2444803%" x2="50%" y2="87.3248556%" id="linearGradient-2"><stop stop-color="#493829" offset="0%"/><stop stop-color="#C8A87A" offset="12.4218913%"/><stop stop-color="#493829" offset="23.8910136%"/><stop stop-color="#493829" offset="29.9471511%"/><stop stop-color="#C8A87A" offset="42.0428764%"/><stop stop-color="#493829" offset="48.8931015%"/><stop stop-color="#493829" offset="61.5819816%"/><stop stop-color="#C8A87A" offset="73.7919466%"/><stop stop-color="#4A392A" offset="90.7538593%"/><stop stop-color="#493829" offset="100%"/></linearGradient></defs><g id="Landward-Beds" stroke="none" stroke-width="1" fill="none" fill-rule="evenodd"><path d="M326 328C285.224046 302.215205 199.999984 368.124816 200 320 200.000031 275.999999 183 320 122 320 61 320.000002 0 320 0 320L0 375 496 375 496 320C496 320 394.000012 371 326 328Z" id="water" fill="url(#linearGradient-1)"/><path d="M467 6.99999999C436.73831 20.0529532 449.20573 84.0932659 429 152.999995 389.999999 285.999995 369 375 369 375L663 375 663 7C663 7 498.443639-6.56277131 467 6.99999999Z" id="cliff-face" fill="url(#linearGradient-2)"/></g></svg>