<svg xmlns="http://www.w3.org/2000/svg" width="670px" height="347px" viewBox="0 0 670 347" version="1.1"><title>Seaward Bedding Layers</title><description>Created with Sketch (http://www.bohemiancoding.com/sketch)</description><defs><linearGradient x1="101.290008%" y1="60.3622139%" x2="0%" y2="60.3622159%" id="linearGradient-1"><stop stop-color="#09738A" stop-opacity="0.5" offset="0%"/><stop stop-color="#092B5A" offset="100%"/></linearGradient><linearGradient x1="20.4334077%" y1="0%" x2="71.1628401%" y2="93.9346977%" id="linearGradient-2"><stop stop-color="#493829" offset="0%"/><stop stop-color="#493829" offset="34.9753807%"/><stop stop-color="#C8A87A" offset="43.3277613%"/><stop stop-color="#493829" offset="53.6860778%"/><stop stop-color="#493829" offset="74.7393079%"/><stop stop-color="#C8A87A" offset="83.7876014%"/><stop stop-color="#493829" offset="92.4266052%"/><stop stop-color="#493829" offset="100%"/></linearGradient></defs><g id="Seaward-Beds" stroke="none" stroke-width="1" fill="none" fill-rule="evenodd"><path d="M326 300C258 257 169 318.000002 151 272 146.540632 260.603837 0 292 0 292L0 347 496 347 496 292C496 292 394.000012 343 326 300Z" id="water" fill="url(#linearGradient-1)"/><path d="M475 204C466.438461 215.891022 422.334494 244.02256 401 276 377.48029 311.252777 370 347 370 347L670 347 670 73C670 73 493.000007 179 475 204Z" id="cliff-face" fill="url(#linearGradient-2)"/><path d="M489.797216 183.430904C488.687525 190.004166 483.156346 195 476.5 195 469.044156 195 461.5 194 469 181 476.5 168 476.544156 174 484 174 489.370938 174 490.117357 173.620152 490.114823 176.298069 490.472832 175.920063 490.846435 175.534183 491.233439 175.141974 489.135695 171.757089 492.250801 170.629489 493.061723 165.509525 494.228075 158.145474 493.277355 159.468887 500.914149 160.678437 502.601438 160.945677 504.171988 161.493154 505.582437 162.263413 506.77385 161.275035 507.884945 160.368052 508.866486 159.577164 522.097365 148.916246 612.157934 83.7750403 652.999996 62.0000054 662.535772 56.9159851 660.000001 78.9999995 660.000001 78.9999995 660.000001 78.9999995 579.424652 137.716927 519.144661 169.855339 516.881201 171.062108 514.754577 172.17879 512.758403 173.209885 512.829234 174.190422 512.789862 175.192476 512.62992 176.202312 511.463569 183.566362 509.295715 190.861202 497.629025 181.419892 497.381852 181.219866 497.142579 181.02448 496.910992 180.833556 493.871096 182.129653 491.534643 182.970905 489.797216 183.430904ZM456.9636 216.035964C456.452375 223.284192 450.619848 229 443.5 229 436.044156 229 428.5 228 436 215 443.5 202 443.544156 208 451 208 452.569344 208 453.743865 207.96757 454.620243 207.988466 455.120653 206.561495 455.8979 204.910307 457 203 464.5 190 464.544156 196 472 196 479.455845 196 478 195.268013 478 203 478 210.731987 471.955844 217 464.5 217 461.7456 217 458.979147 216.863523 456.9636 216.035964L456.9636 216.035964Z" id="loose-material" fill="#493829"/><g id="labels" transform="translate(275.000000, -5.000000)"><text id="diagram-label" font-family="Helvetica Neue, Arial, sans-serif" font-size="24" font-weight="lighter" fill="#000000"><tspan x="3.424" y="23">Loose material </tspan><tspan x="12.544" y="52">moves down </tspan><tspan x="51.22" y="81">slope</tspan></text><path d="M102.5 102.5L181.5 184.5" id="arrow" stroke="#000000" stroke-width="3" stroke-linecap="square"/><path id="arrow-decoration-1" d="M180.900581 183.877818C179.034143 180.427121 177.434339 177.469381 175.567901 174.018684 174.05557 175.475686 172.759286 176.724544 171.246955 178.181546 174.625724 180.175241 177.521812 181.884123 180.900581 183.877818 180.900581 183.877818 180.900581 183.877818 180.900581 183.877818Z" stroke="#000000" stroke-width="3" stroke-linecap="square"/></g></g></svg>