---
---
<svg width="1140" height="600" viewBox="0 0 1140 600" xmlns="http://www.w3.org/2000/svg" xmlns:xlink="http://www.w3.org/1999/xlink" xmlns:sketch="http://www.bohemiancoding.com/sketch/ns"><title>spit-formation-diagram</title>{% include svg-diagram-style.svg %}<defs><linearGradient x1="50%" y1="0%" x2="50%" y2="100%" id="a"><stop stop-color="#09738A" offset="0%"/><stop stop-color="#092B5A" offset="100%"/></linearGradient><path id="b" d="M597 110.374v131.626h323s-6.591-45.191-29.875-75c-20.856-26.7-59.378-37.092-48.535-56.626 22.949-41.342-244.59 0-244.59 0z"/><filter x="-50%" y="-50%" width="200%" height="200%" filterUnits="objectBoundingBox" id="c"><feOffset dx="-1" dy="-1" in="SourceAlpha" result="shadowOffsetOuter1"/><feGaussianBlur stdDeviation="2" in="shadowOffsetOuter1" result="shadowBlurOuter1"/><feColorMatrix values="0 0 0 0 0 0 0 0 0 0 0 0 0 0 0 0 0 0 0.35 0" in="shadowBlurOuter1" result="shadowMatrixOuter1"/><feMerge><feMergeNode in="shadowMatrixOuter1"/><feMergeNode in="SourceGraphic"/></feMerge></filter><path id="d" d="M398.258 179.305c-172.661-24.642-347.957-35.047-362.508-25.953-2.542 1.589-48.031 69.449-24.016 82.074 24.016 12.625 118.387-27.75 149.281-32.84 64.898-10.692 162.309-21.609 222.242-11.715 29.925 4.94 63.953-.68 131.227 21.938 37.644 12.656 77.453 33.918 102.012 42.234 24.559 8.316 111.549 32.262 191.773 30.246 80.224-2.016 103.315-15.569 119.051-42.836 7.91-13.707 14.622-50.272 7.91-51.582-8.778-1.714-19.508 12.082-21.379 21.938-2.749 14.483-14.048 22.617-23.871 22.617-39.439 0-59.203 7.027-81.711 0-7.942-2.48-65.672-8.121-81.879 0-16.207 8.121-156.671-31.65-328.133-56.121z"/><filter x="-50%" y="-50%" width="200%" height="200%" filterUnits="objectBoundingBox" id="e"><feOffset dx="4" dy="2" in="SourceAlpha" result="shadowOffsetOuter1"/><feGaussianBlur stdDeviation="2" in="shadowOffsetOuter1" result="shadowBlurOuter1"/><feColorMatrix values="0 0 0 0 0 0 0 0 0 0 0 0 0 0 0 0 0 0 0.35 0" in="shadowBlurOuter1" result="shadowMatrixOuter1"/><feMerge><feMergeNode in="shadowMatrixOuter1"/><feMergeNode in="SourceGraphic"/></feMerge></filter><filter x="-50%" y="-50%" width="200%" height="200%" filterUnits="objectBoundingBox" id="f"><feOffset dx="4" dy="2" in="SourceAlpha" result="shadowOffsetOuter1"/><feGaussianBlur stdDeviation="2" in="shadowOffsetOuter1" result="shadowBlurOuter1"/><feColorMatrix values="0 0 0 0 0 0 0 0 0 0 0 0 0 0 0 0 0 0 0.35 0" in="shadowBlurOuter1" result="shadowMatrixOuter1"/><feMerge><feMergeNode in="shadowMatrixOuter1"/><feMergeNode in="SourceGraphic"/></feMerge></filter></defs><g sketch:type="MSPage" fill="none"><path fill="url(#a)" sketch:type="MSShapeGroup" d="M0 1h1140v600h-1140z"/><g><use fill-opacity=".012" sketch:type="MSShapeGroup" xlink:href="#b"/><use fill="#D4D4D4" xlink:href="#b"/><use fill-opacity=".02" xlink:href="#b"/></g><g filter="url(#c)"><use fill="#C8A87A" sketch:type="MSShapeGroup" xlink:href="#d"/><use fill-opacity=".02" xlink:href="#d"/></g><path d="M0 1v242s184.169-62.418 269.797-62.418c91.573 0 224.25 0 329.875 62.418s114.273-114.486 194.984-114.486c91.543 0 59.344-127.514 59.344-127.514h-854z" stroke="#493829" stroke-width="6" fill="#668D3C" filter="url(#e)" sketch:type="MSShapeGroup"/><path d="M920.5 77.5l67 131" id="Line" stroke="#fff" stroke-width="3" stroke-linecap="square" sketch:type="MSShapeGroup"/><path id="Line-decoration-1" d="M987.437 208.376c-.786-3.843-1.46-7.138-2.247-10.981l-5.342 2.732 7.589 8.249z" stroke="#fff" stroke-width="3" stroke-linecap="square"/><path d="M971 1v94.583c0 60.189 169 20.696 169 20.696v-115.279h-169z" stroke="#493829" stroke-width="6" fill="#668D3C" filter="url(#f)" sketch:type="MSShapeGroup"/><path d="M64.5 254.5s169.076-45.66 256.613-45.66c79.225 0 243.676 45.66 243.676 45.66" id="Line" stroke="#fff" stroke-width="3" stroke-linecap="square" sketch:type="MSShapeGroup"/><path id="Line-decoration-1" d="M564.206 254.339c-3.379-2.01-6.27-3.721-9.656-5.712l-1.542 5.799c3.917-.041 7.27-.069 11.198-.086z" stroke="#fff" stroke-width="3" stroke-linecap="square"/><path d="M93.5 543.5l263-149" stroke="#fff" stroke-width="3" stroke-linecap="square" sketch:type="MSShapeGroup"/><path d="M356.261 394.635c-3.806.95-7.069 1.764-10.876 2.713l2.958 5.22 7.918-7.934z" stroke="#fff" stroke-width="3" stroke-linecap="square"/><g sketch:type="MSLayerGroup" font-weight="260" font-family="Lato" font-size="24" sketch:alignment="middle"><text sketch:type="MSTextLayer" fill="#fff" transform="translate(88 8)"><tspan x="773.26" y="520">Sea</tspan></text><text sketch:type="MSTextLayer" fill="#000" transform="translate(88 8)"><tspan x="500.174" y="206.792">Headland</tspan></text><text sketch:type="MSTextLayer" fill="#000" transform="translate(88 8)"><tspan x="672.786" y="169">Salt Marsh</tspan></text><text sketch:type="MSTextLayer" fill="#000" transform="translate(88 8)"><tspan x="707.682" y="262">Spit</tspan></text><text sketch:type="MSTextLayer" font-style="italic" fill="#D4D4D4" transform="translate(88 8)"><tspan x="801.586" y="24">River</tspan><tspan x="793.774" y="53">Mouth</tspan></text><text sketch:type="MSTextLayer" transform="translate(88 8) rotate(-297 884 125.292)" fill="#F7F7F7"><tspan x="818.924" y="134.792">Fastest Flow</tspan></text><text sketch:type="MSTextLayer" fill="#fff" transform="translate(88 8)"><tspan x="92.864" y="248.192">Direction of Longshore Drift</tspan></text><text sketch:type="MSTextLayer" transform="translate(88 8) rotate(-30 121.5 446.484)" fill="#fff"><tspan x="-9.996" y="455.984">Prevailing Wind Direction</tspan></text><text sketch:type="MSTextLayer" fill="#000" transform="translate(88 8)"><tspan x="179.18" y="75.192">Mainland</tspan></text><text sketch:type="MSTextLayer" fill="#000" transform="translate(88 8)"><tspan x="919.68" y="75.192">Mainland</tspan></text></g></g></svg>