---
---
<svg width="751" height="377" viewBox="0 0 751 377" xmlns="http://www.w3.org/2000/svg" xmlns:sketch="http://www.bohemiancoding.com/sketch/ns"><title>tidal-bulge</title><desc>Created with Sketch.</desc>{% include svg-diagram-style.svg %}<g id="Page-1" sketch:type="MSPage" fill="none"><path d="M171.5 321c93.06 0 168.5-59.77 168.5-133.5 0-73.73-75.44-133.5-168.5-133.5s-168.5 59.77-168.5 133.5c0 73.73 75.44 133.5 168.5 133.5z" id="bulge" fill-opacity=".4" fill="#09738A" sketch:type="MSShapeGroup"/><g id="EARTH" sketch:type="MSLayerGroup"><path d="M171 317c70.692 0 128-57.419 128-128.25 0-70.83-57.308-128.25-128-128.25-70.692 0-128 57.419-128 128.25 0 70.83 57.308 128.25 128 128.25z" id="Earth-Outline" fill="#092B5A" sketch:type="MSShapeGroup"/><path d="M158.2 103.971c26.257 0 65.829-10.993 69.486-21.986 3.657-10.993-24.943-21.986-51.2-21.986-20.654 0-46.744 3.348-56.686 12.825-2.697 2.571-3.657 5.642-3.657 9.161 0 16.489 15.8 21.986 42.057 21.986z" id="n.ice-cap" fill="#fff" sketch:type="MSShapeGroup"/><path d="M141.743 313.336s13.304 3.664 18.286 3.664c6.984 0 30.937.993 42.057-3.664 3.511-1.471 9.157-2.927 9.143-5.755-.012-2.463-5.486-6.371-5.486-7.07 0-.496-6.684-3.37-14.629-3.664-11.637-.431-60.343 0-60.343 9.161 0 2.232 10.971 7.329 10.971 7.329z" id="s.ice-cap" fill="#fff" sketch:type="MSShapeGroup"/><path d="M141.743 132.82s1.579 5.239 0 7.595c-1.602 2.39-6.38 1.899-9.143 1.899-5.486 0-8.919 8.893-7.314 11.393 1.605 2.5 9.143 1.899 14.629-1.899 5.486-3.798 9.143-9.494 14.629-9.494 5.486 0 11.143.445 12.8 1.899s2.157 5.963 1.657 6.964c-.5 1.002 1.956-2.464 3-3.006 0 0 4.314 2.74 4 2.505-.314-.235-7.399-12.16-5-12.16 3.431 0 12.8 15.19 16.457 13.291 3.657-1.899.085-8.125 3.657-7.595 3.573.53 2.613 6.947 7.314 9.494 4.701 2.547 13.053-1.19 13.714 1.899l.153.674c.282 1.2.761 3.124.761 3.124s-5.003 3.263-2.917 7.595c3.188 6.62 8.881 7.224 13.889 13.291 5.963 7.224 12.8 24.684 14.629 28.481 1.829 3.798 10.976-.636 18.286-5.696 7.31-5.06 9.143-9.494 9.143-13.291 0-3.798-1.829-5.696-1.829-5.696s-.117-.775-1.829-1.899c-.81-.532-1.966-1.898-3.657-1.899-1.683-.001-3.642 2.719-5.486 1.899-7.611-3.387-12.44-13.291-10.971-13.291 1.468 0 10.971 9.494 16.457 11.393 1.306.452 2.406.076 3.657 0 4.005-.245 8.049-1.46 12.8 3.798 4.033 4.463 6.596 11.8 7.314 13.291 1.829 3.798 9.143 18.988 9.143 15.19s6.022-5.696 5.486-22.785c-.536-17.089-3.657-24.01-5.486-33.504-1.829-9.494-5.486-23.459-10.971-31.054-5.486-7.595-18.286-9.494-25.6-13.291-7.314-3.798-17.868-4.683-31.086-3.798-13.217.885-17.824 4.643-25.6 5.696s-10.971 0-16.457 0c-5.486 0-18.286 5.696-18.286 7.595s4.904 1.515 9.143 1.899c4.862.44 10.971-3.928 10.971-1.899 0 3.798-14.911 3.798-16.457 3.798-2.111 0-7.314 1.899-7.314 1.899l-18.286 5.696z" id="eurasia" fill="#668D3C" sketch:type="MSShapeGroup"/><path d="M214.886 230.89s-1.829-9.161 0-16.489c1.829-7.329 10.971-16.489 10.971-16.489l1.829-9.161-9.143 1.832s-7.036-8.922-10.971-14.657c-2.77-4.037-10.971-12.825-10.971-12.825h-10.971s-7.236-1.013-9.143-1.832c-2.36-1.013-3.657-3.664-3.657-3.664h-20.114l-7.314 9.161s-4.669.968-7.314 7.329c-2.645 6.361-3.657 14.657-3.657 14.657s1.829 9.161 7.314 10.993c5.486 1.832 20.114-1.832 23.771 1.832 2.685 2.691-2.285 4.151 0 10.993.827 2.476 6.044 5.805 5.486 9.161-.802 4.819.154 10.695 1.48 15.775 1.699 6.507 4.006 11.707 4.006 11.707s4.888 8.266 10.971 7.329c6.083-.938 9.151-4.133 12.8-9.161 3.662-5.046 3.654-7.325 5.486-9.161 3.657-3.664 9.143-7.329 9.143-7.329z" id="africa" fill="#668D3C" sketch:type="MSShapeGroup"/><g id="Brtish-isles" fill="#668D3C" sketch:type="MSShapeGroup"><path d="M138.086 115.465c.979 0 0 3.664 0 3.664s-1.447 1.832-2.525 1.832c-1.078 0-2.96 0-2.96-1.832s4.507-3.664 5.486-3.664z" id="ireland"/><path d="M147.229 115.465c3.657-1.832 5.486 0 5.486 0v5.496s-4.839 2.956-7.314 3.664c-2.476.709-5.486 1.832-5.486 0s4.643-3.931 5.486-4.987c1.469-1.84-1.829-2.341 1.829-4.173z" id="UK!UK!UK!"/></g><path d="M203.914 265.7c1.143-2.004 5.486-3.664 5.486-3.664l9.143-5.496s7.314-5.496 7.314-1.832c0 3.664 0 9.161 1.829 5.496 1.829-3.664 5.486-5.496 5.486-5.496 1.938 0 1.829 7.329 1.829 7.329s7.314 5.496 7.314 7.329c0 1.35 1.149 1.949 0 5.496-.41 1.268-2.213 3.567-3.657 5.496-5.486 7.329-14.629-3.664-14.629-3.664s-5.486-1.832-12.8 1.832c-7.314 3.664-7.314-3.664-7.314-3.664s-1.295-6.89 0-9.161z" id="Path-5" fill="#668D3C" sketch:type="MSShapeGroup"/><path d="M90.543 203.408c3.283-.548 2.899.726 7.314 1.832s6.725-.393 7.314 0c1.247.833.431 1.725 3.657 3.664s5.486 1.832 5.486 1.832l1.829 3.664 1.187.595c.367.184 3.863 2.851 4.299 3.07 3.436 1.721 5.486 1.832 5.486 1.832s2.732-1.391 3.657 0c.925 1.391.925 3.643 0 5.496-.925 1.854-1.929.201-3.657 3.664s-1.829 7.329-1.829 7.329l-3.657 3.664h-3.657l-1.829 3.664-1.829 5.496-7.314 1.832-1.829 3.664-3.657 3.664-3.657 3.664s-2.266 3.743-1.829 5.496c.437 1.753 3.657-1.385 3.657 1.832 0 1.832-3.355 2.259-5.486 1.832-2.131-.427-1.829 0-3.657-3.664-1.829-3.664 4.389-21.684 3.657-29.38-.488-5.129-7.314-9.095-7.314-9.095l-3.657-7.329s2.197-10.634 3.657-14.657c.75-2.066.374-3.116 3.657-3.664z" id="suda-america" fill="#668D3C" sketch:type="MSShapeGroup"/><path d="M107 113.633c-1.829-1.832-25.6 1.832-25.6 1.832l-10.971 3.664-7.314 7.329-5.486 16.489v14.657l1.829 3.664 1.829 5.496 3.657 5.496 5.486 5.496 1.829 7.329 3.657 5.496 12.8 10.993 1.829-9.161-3.657-3.664v-5.496h-3.657l-1.829 1.832-1.829-3.664v-9.161h7.314s1.829 9.161 3.657 7.329c1.829-1.832-.124-5.613 1.829-10.993 1.952-5.38 5.486-9.161 5.486-9.161s7.314-9.161 7.314-10.993l-1.829-5.496c0-1.832 2.185-1.832 3.657-1.832 1.606.428 0 5.496 1.829 5.496 1.649 0 0-3.664 0-9.161 0-5.496-4.888-5.245-7.314-7.329-2.426-2.084-1.087-2.634-3.657-3.664-2.57-1.03-4.23-.629-5.486 0-1.256.629-1.829 3.664-1.829 3.664v3.183c0 1.993 2.679 7.814 0 5.978-2.679-1.837-9.143-10.993-7.314-12.825 1.829-1.832 9.143-3.664 9.143-3.664h9.143l5.486-1.832s1.829-5.496 0-7.329z" id="USAUSAUSA" fill="#668D3C" sketch:type="MSShapeGroup"/></g><g id="MOON" sketch:type="MSLayerGroup"><g id="flag" sketch:type="MSShapeGroup"><path d="M697.5 144.471v17.029" id="Line" stroke="#979797" stroke-linecap="square"/><g id="Flag_of_the_United_States"><path id="Rectangle-path" fill="#fff" d="M697 144h13v7h-13z"/><path id="stripe" fill="#B22234" d="M697 144h13v.538h-13z"/><g id="stripe-link" fill="#B22234"><path id="stripe" d="M697 145.077h13v.538h-13z"/></g><g id="stripe-link" fill="#B22234"><path id="stripe" d="M697 146.154h13v.538h-13z"/></g><g id="stripe-link" fill="#B22234"><path id="stripe" d="M697 147.231h13v.538h-13z"/></g><g id="stripe-link" fill="#B22234"><path id="stripe" d="M697 148.308h13v.538h-13z"/></g><g id="stripe-link" fill="#B22234"><path id="stripe" d="M697 149.385h13v.538h-13z"/></g><g id="stripe-link" fill="#B22234"><path id="stripe" d="M697 150.462h13v.538h-13z"/></g><path id="Rectangle-path" fill="#3C3B6E" d="M697 144h5.2v3.769h-5.2z"/></g></g><path d="M697 231c19.33 0 35-15.67 35-35s-15.67-35-35-35-35 15.67-35 35 15.67 35 35 35z" id="Oval-4" fill="#B3B3B3" sketch:type="MSShapeGroup"/></g><g id="labels" sketch:type="MSLayerGroup" fill="#000"><text id="The-Moon" sketch:type="MSTextLayer" transform="translate(118)"><tspan x="525" y="360">The Moon</tspan></text><text id="The-Earth" sketch:type="MSTextLayer" transform="translate(118)"><tspan x="2" y="360">The Earth</tspan></text><text id="12,800km" sketch:type="MSTextLayer" transform="translate(118)"><tspan x="0" y="24">12,800km</tspan></text><text id="380,000km" sketch:type="MSTextLayer" transform="translate(118)"><tspan x="338" y="24">380,000km</tspan></text><g id="labels-small"><text id="(Not-to-Scale)" sketch:type="MSTextLayer" font-size="12" transform="translate(118)"><tspan x="282" y="362">(Not to Scale)</tspan></text></g></g><g id="earth-diameter-guide" sketch:type="MSLayerGroup" stroke="#979797" stroke-linecap="square"><path d="M44.5 29.5v21.024M297.5 29.5v21.024M44.5 29.5h252M297.5 29.5h399.001" id="Line" sketch:type="MSShapeGroup"/></g><g id="earth-moon-distance-guide" sketch:type="MSLayerGroup" stroke="#979797" stroke-linecap="square"><path d="M697.5 29.5v21.024" id="Line" sketch:type="MSShapeGroup"/></g><g id="tidal-forces" sketch:type="MSLayerGroup" stroke="#000" stroke-width="3" stroke-linecap="square"><path d="M299.393 194.18h34.132" id="Line" sketch:type="MSShapeGroup"/><path id="Line-decoration-1" d="M333.393 194.18l-10.8-3v6l10.8-3z"/><path d="M44.5 193.86h-34.13" id="Line-2" sketch:type="MSShapeGroup"/><path id="Line-2-decoration-1" d="M10.5 193.86l10.8 3v-6l-10.8 3z"/></g></g></svg>