---
---
<svg xmlns="http://www.w3.org/2000/svg" width="537px" height="458px" viewBox="0 0 537 458" version="1.1"><title>Channel Efficiency Cross Section</title><description>Created with Sketch (http://www.bohemiancoding.com/sketch)</description>{% include svg-diagram-style.svg %}<defs><radialGradient cx="50%" cy="0%" fx="50%" fy="0%" r="100%" id="radialGradient-1"><stop stop-color="#039EFF" offset="0%"/><stop stop-color="#3603B2" offset="100%"/></radialGradient></defs><g id="Page-1" stroke="none" stroke-width="1" fill="none" fill-rule="evenodd"><rect id="Rectangle-3" fill="#333333" x="22" y="19" width="45" height="45" rx="8"/><rect id="Rectangle-3-copy" fill="#333333" x="22" y="280" width="45" height="45" rx="8"/><g id="channels" transform="translate(93.000000, 104.000000)"><path d="M261.120222 273C220.80658 261.127149 126.340401 290.361588 67.1214036 273 54.5988797 269.328697 0 273 0 273L0 313 384 313 384 273C384 273 312.055725 288.001116 261.120222 273Z" id="inefficient-water" opacity="0.9" fill="url(#radialGradient-1)"/><path d="M1 273L1 313.012498 384 313.012498 384 273" id="inefficient-channel" stroke="#8B572A" stroke-width="3"/><path d="M132.910912 18.1117458C127.661494 18.1117465 103.214958 26.2183189 74.3915825 11.806633 45.5682063-2.6050523 22 2 22 2L22 127 174 127 174 2C174 2 155.18566 18.1117458 132.910912 18.1117458Z" id="efficient-water" opacity="0.9" fill="url(#radialGradient-1)"/><path d="M23 0L23 128 173 128 173 63.9999999 173 2.01568555" id="efficient-channel" stroke="#8B572A" stroke-width="3"/></g><g id="labels" transform="translate(36.000000, 26.000000)"><text id="A" fill="#FFFFFF"><tspan x="0.500058994" y="23.6918945">A</tspan></text><text id="B" fill="#FFFFFF"><tspan x="0.5" y="284.691895">B</tspan></text><text id="5-m" transform="translate(252.500000, 151.500000) rotate(-270.000000) translate(-252.500000, -151.500000) " fill="#000000"><tspan x="232" y="160">5 m</tspan></text><text id="5-m-copy" transform="translate(57.500000, 151.500000) rotate(-90.000000) translate(-57.500000, -151.500000) " fill="#000000"><tspan x="37" y="160">5 m</tspan></text><text id="4-m" fill="#000000"><tspan x="134" y="234">4 m</tspan></text><text id="2-m" transform="translate(36.560059, 371.560059) rotate(-90.000000) translate(-36.560059, -371.560059) " fill="#000000"><tspan x="16.060059" y="380.060059">2 m</tspan></text><text id="2-m-copy" transform="translate(465.439941, 371.560059) rotate(-270.000000) translate(-465.439941, -371.560059) " fill="#000000"><tspan x="444.939941" y="380.060059">2 m</tspan></text><text id="8-m" fill="#000000"><tspan x="232" y="422">8 m</tspan></text></g></g></svg>