---
---
<svg xmlns="http://www.w3.org/2000/svg" width="1097px" height="580px" viewBox="0 0 1097 580" version="1.1"><title>Channel Velocity Diagram</title><description>Created with Sketch (http://www.bohemiancoding.com/sketch)</description>{% include svg-diagram-style.svg %}<defs><linearGradient x1="50%" y1="0%" x2="50%" y2="100%" id="linearGradient-1"><stop stop-color="#09738A" offset="0%"/><stop stop-color="#092B5A" offset="100%"/></linearGradient></defs><g id="Page-1" stroke="none" stroke-width="1" fill="none" fill-rule="evenodd"><g id="river" transform="translate(10.000000, 72.000000)"><path d="M196.160286 18.9398954C281.999998 39 379.225966 32.4909464 427.195297 18.9290049 444.725108 13.9729585 534.889393-3.42697154 608.94469 12.2865134 645.25989 19.9920861 761.036842 44.0031087 847.518415 21.5015558 933.999982-0.999999993 1042 18.9000244 1042 18.9000244L1042 363 33.9920477 363C33.9920483 363 33.9920477 18.9475396 33.9920477 18.9475396 33.9920477 18.9475396 110.320575-1.12020941 196.160286 18.9398954Z" id="water" fill="url(#linearGradient-1)"/><path d="M45.0000012 6.93948797C45.0000012 6.93948797 595.457737 347.173121 765.000013 345.999987 925.845011 344.887033 1036.16182 0.0812244811 1036.16182 0.0812244811L1081.19995 0.0812244811 1081.19995 410.057055 -0.0154902677 410.057055 -0.0154902677 6.93948783 45.0000012 6.93948797Z" id="channel" fill="#855723"/></g><g id="contours" transform="translate(94.000000, 85.000000)" stroke-width="3"><path d="M470 49.9999992C451 67.0000001 516.270847 140.750964 651 141 785.729153 141.249036 797.876825 58.3564321 750 32 702.123168 5.64356945 489 32.9999984 470 49.9999992Z" id="Path-3" stroke="#F6A623"/><path d="M548 51.9999992C528.049312 63.8625708 581.000002 108.000003 652.000002 108.000003 677.70757 108.000003 775.286565 64.6609075 713.000007 44.0000003 650.713443 23.3390946 567.950689 40.1374277 548 51.9999992Z" id="Path-3" stroke="#D0011B"/><path d="M328 18C328 18 545.270847 199.750964 680 200 814.729153 200.249036 816 1 816 1" id="Path-3-copy" stroke="#F8E81C"/><path d="M192 23C192 23 494.163817 259.000009 679 259 863.836183 258.999991 872 5.68434189e-14 872 5.68434189e-14" id="Path-3-copy-2" stroke="#7ED321"/><path d="M0 2C0 2 487.999996 271.000002 663 301 838 331 920 2 920 2" id="Path-3-copy-3" stroke="#417505"/></g><g id="contour-labels" transform="translate(720.000000, 109.000000)" fill="#FFFFFF" font-size="18"><text id="0.1-m/s"><tspan x="-0.5" y="238.688171">0.1 m/s</tspan></text><text id="0.05-m/s"><tspan x="-0.5" y="279.094086">0.05 m/s</tspan></text><text id="0.4-m/s"><tspan x="-0.5" y="17.3560791">0.4 m/s</tspan></text><text id="0.3-m/s"><tspan x="-0.5" y="121.594086">0.3 m/s</tspan></text><text id="0.2-m/s"><tspan x="-0.5" y="176.856079">0.2 m/s</tspan></text></g><g id="thalweg" transform="translate(769.000000, 397.000000)" stroke="#979797" stroke-width="2" stroke-linecap="square"><path d="M0 10.45L21 10.55" id="Line"/><path d="M10.5000012 0L10.4999988 21" id="Line"/></g><g id="labels" transform="translate(165.000000, 2.000000)" fill="#000000"><text id="Isovel"><tspan x="0" y="23">Isovel</tspan></text><text id="Thalweg"><tspan x="462" y="570">Thalweg</tspan></text></g><path d="M191.5 33.5L196.5 132.5" id="Line" stroke="#000000" stroke-width="3" stroke-linecap="square"/><path id="Line-decoration-1" d="M196.493635 132.373978C197.351633 128.545827 198.087059 125.264555 198.945056 121.436404 196.847729 121.542329 195.050021 121.633123 192.952694 121.739048 194.192023 125.461274 195.254306 128.651753 196.493635 132.373978 196.493635 132.373978 196.493635 132.373978 196.493635 132.373978Z" stroke="#000000" stroke-width="3" stroke-linecap="square"/><path d="M691.5 546.5L770.5 419.5" id="Line" stroke="#000000" stroke-width="3" stroke-linecap="square"/><path id="Line-decoration-1" d="M770.201021 419.980638C767.312865 422.635719 764.837303 424.911503 761.949147 427.566585 763.732306 428.675793 765.260728 429.626544 767.043887 430.735753 768.148884 426.971463 769.096024 423.744928 770.201021 419.980638 770.201021 419.980638 770.201021 419.980638 770.201021 419.980638Z" stroke="#000000" stroke-width="3" stroke-linecap="square"/></g></svg>