---
---
<svg xmlns="http://www.w3.org/2000/svg" width="1140px" height="426px" viewBox="0 0 1140 426" version="1.1"><title>Delta Bedding Layers</title><description>Created with Sketch (http://www.bohemiancoding.com/sketch)</description>{% include svg-diagram-style.svg %}<defs><linearGradient x1="0%" y1="59.5994016%" x2="100%" y2="58.0618351%" id="linearGradient-1"><stop stop-color="#004475" offset="0%"/><stop stop-color="#0095A7" offset="100%"/></linearGradient><linearGradient x1="50%" y1="18.8031547%" x2="50%" y2="100%" id="linearGradient-2"><stop stop-color="#66411E" offset="0%"/><stop stop-color="#714C1E" offset="65.8993682%"/><stop stop-color="#714C1E" offset="44.8321535%"/><stop stop-color="#D3B68D" offset="100%"/></linearGradient></defs><g id="Page-1" stroke="none" stroke-width="1" fill="none" fill-rule="evenodd"><path d="M972.822506 98.8235523C834.751298 101.541468 645.386869 103.089808 542.867241 94.479521 369.079238 79.8836412 302.489378 115.458788 260.957164 122.914579 133.023215 145.881051 0 108.498122 0 108.498122L0 423 1140 423 1140 94.4795209C1140 94.4795209 1068.8052 96.934142 972.822506 98.8235523Z" id="Water" fill="url(#linearGradient-1)"/><path d="M0 372L0 426 1140 426 1140 372 0 372ZM824.646046 110L789.929847 141.632812 112.85794 372 1140 372 1140 110 824.646046 110Z" id="Bottomset-Bed" fill="url(#linearGradient-2)"/><g id="labels" transform="translate(10.000000, 3.000000)"><text id="Stationary-body-of-w" fill="#FFFFFF"><tspan x="0.933756824" y="171">Stationary body </tspan><tspan x="40.2697568" y="200">of water</tspan></text><text id="Topset-Bed" fill="#FFFFFF"><tspan x="891.165012" y="147.792114">Topset Bed</tspan></text><text id="Foreset-Bed" fill="#FFFFFF"><tspan x="891.165012" y="245.984009">Foreset Bed</tspan></text><text id="Bottomset-Bed" fill="#000000"><tspan x="566.539037" y="407">Bottomset Bed</tspan></text><text id="River’s-Mouth" fill="#000000"><tspan x="743.136" y="22.9840088">River’s Mouth</tspan></text></g><path d="M823.586207 32.5L924.413793 90.5" id="Arrow" stroke="#000000" stroke-width="3" stroke-linecap="square"/><path id="Arrow-decoration-1" d="M924.136935 90.34074C921.383926 87.5457722 919.024205 85.1500856 916.271196 82.3551178 915.224079 84.1754327 914.326551 85.7357026 913.279434 87.5560176 917.079559 88.5306704 920.336809 89.3660872 924.136935 90.34074 924.136935 90.34074 924.136935 90.34074 924.136935 90.34074Z" stroke="#000000" stroke-width="3" stroke-linecap="square"/><g id="Fish-egg" transform="translate(56.000000, 223.000000) scale(1, -1) rotate(-180.000000) translate(-56.000000, -223.000000) translate(41.000000, 215.000000)"><path d="M7.85119014 12.4998066C10.8775608 12.4998066 20.0981249 13.2422321 25.3921795 12.9446351 27.6832871 12.8158441 29.1196078 19.6496866 29.72911 13.2812445 30.3386124 6.91280246 29.72911 0 29.72911 0 29.72911 0 27.1760724 2.52151974 26.8143513 4.553009 26.4526302 6.58449827 17.6641926 1.47885136 17.6641926 1.47885136 17.6641926 1.47885136 11.0844829 4.553009 7.85119014 4.553009 3.51509734 4.553009 0 6.33196014 0 8.52640782 0 10.7208555 3.51509734 12.4998066 7.85119014 12.4998066Z" id="Oval-2" fill="#006388"/><circle id="Oval-1" fill="#FFFFFF" cx="2.5" cy="7.5" r="0.5"/><path d="M12 8.33868956L18 12 17.9709408 8 12 8.33868956Z" id="Path-2" fill="#00809A"/></g></g></svg>