---
---
<svg xmlns="http://www.w3.org/2000/svg" width="1140px" height="612px" viewBox="0 0 1140 612" version="1.1"><title>hjulstrom-curve</title><description>Created with Sketch (http://www.bohemiancoding.com/sketch)</description>{% include svg-diagram-style.svg %}<g id="Page-1" stroke="none" stroke-width="1" fill="none" fill-rule="evenodd"><g id="zones" transform="translate(70.000000, 13.000000)"><rect id="transportation-zone" fill="#FFD42E" x="0" y="0" width="1044" height="522"/><path d="M0 53C0 53 185.159716 141.130874 281 176 309.724708 186.450778 350.127606 205.286397 389 215 421.216908 223.050501 485.384295 236.944026 522.5 223 580.171443 201.333381 590.42266 187.897298 615 166 628.99026 153.535309 658.177336 131.547368 697 115 819 63 1044 41 1044 41L1044 0 0 0" id="erosion-transportation-zone" fill="#76D5FE"/><path d="M423.285714 331.125001C514.274832 265.321422 609.038297 205.228746 655.552995 182.222511 766.680877 127.258506 793.896691 110.443065 870.800691 88.2840293 895.851292 81.0659762 936.37964 72.9490179 971.917051 70.2958095 1010.96859 67.3802381 1044 70.2958095 1044 70.2958095L1044 521.999997 175 522C175 522 296.893483 422.532207 423.285714 331.125001Z" id="deposition-zone" fill="#70FDD8"/></g><path d="M69.5 14.5L69.5 534.101746 69.5 14.5ZM1114.49663 535.5L69.5014289 535.5 1114.49663 535.5ZM244.5 565.5L244.5 583.610771 244.5 565.5ZM937.5 565.5L937.5 584.526299 937.5 565.5ZM764.5 565.5L764.5 583.527756 764.5 565.5ZM590.5 565.5L590.5 583.5 590.5 565.5ZM417.5 564.5L417.5 583.5 417.5 564.5Z" id="Axis" stroke="#000000" stroke-linecap="square"/><g id="axis-labels" transform="translate(16.000000, 8.000000)" fill="#000000" font-size="12"><g id="x-axis" transform="translate(42.000000, 534.000000)"><text id="0.001"><tspan x="0" y="12">0.001</tspan></text><text id="0.01"><tspan x="172" y="12">0.01</tspan></text><text id="0.1"><tspan x="350" y="12">0.1</tspan></text><text id="1"><tspan x="529" y="12">1</tspan></text><text id="10"><tspan x="701" y="12">10</tspan></text><text id="100"><tspan x="873" y="12">100</tspan></text><text id="1000"><tspan x="1035" y="12">1000</tspan></text><text id="Clay"><tspan x="88" y="37">Clay</tspan></text><text id="Silt"><tspan x="268" y="37">Silt</tspan></text><text id="Sand"><tspan x="445" y="37">Sand</tspan></text><text id="Gravel"><tspan x="610" y="37">Gravel</tspan></text><text id="Pebbles"><tspan x="779" y="37">Pebbles</tspan></text><text id="Boulders"><tspan x="956" y="37">Boulders</tspan></text><text id="Particle-Size-(mm)"><tspan x="483" y="61">Particle Size (mm)</tspan></text></g><g id="y-axis"><text id="0.1"><tspan x="33" y="528">0.1</tspan></text><text id="1"><tspan x="41" y="402">1</tspan></text><text id="10"><tspan x="36" y="272">10</tspan></text><text id="100"><tspan x="28" y="142">100</tspan></text><text id="1000"><tspan x="23" y="12">1000</tspan></text><text id="Velocity-(cms⁻¹)" transform="translate(10.000000, 257.500000) rotate(-90.000000) translate(-10.000000, -257.500000) "><tspan x="-30" y="260">Velocity (cms</tspan><tspan x="37.356" y="260">⁻</tspan><tspan x="42.4185" y="260">¹)</tspan></text></g></g><g id="curves" transform="translate(70.000000, 54.000000)" stroke-width="3" stroke-linecap="round"><path d="M0 13C0 13 185.159716 100.130874 281 135 309.724708 145.450778 350.127606 164.286397 389 174 421.216908 182.050501 485.384295 195.944026 522.5 182 580.171443 160.333381 590.42266 146.897298 615 125 628.99026 112.535309 658.177336 90.5473681 697 74 819 22 1044 0 1044 0" id="erosion-velocity" stroke="#000000"/><path d="M175 481C175 481 296.753215 381.46707 423 290.000003 513.884412 224.153331 608.538829 164.021301 655 141 766.000001 86.0000008 793.184497 69.1735472 870 47 895.021774 39.7772199 935.503484 31.6549459 971 29 1010.0066 26.0825193 1043 29 1043 29" id="settling-velocity" stroke="#417505"/></g><g id="labels" transform="translate(125.000000, 32.000000)"><text id="Critical-erosion-veo" fill="#000000"><tspan x="120" y="23">Critical erosion veolcity</tspan></text><text id="Particles-are-eroded" font-style="italic" fill="#4A4A4A"><tspan x="224" y="89">Particles are eroded &amp; transported</tspan></text><text id="Mean-settling-veloci" fill="#000000"><tspan x="578" y="319">Mean settling velocity</tspan></text><text id="Particles-are-deposi" font-style="italic" fill="#4A4A4A"><tspan x="578" y="386">Particles are deposited</tspan></text><text id="Particles-are-transp" font-style="italic" fill="#4A4A4A"><tspan x="0" y="319">Particles are transported</tspan></text></g><path d="M271.5 65.5L231.5 134.5" id="arrow" stroke="#000000" stroke-width="3" stroke-linecap="square"/><path id="arrow-decoration-1" d="M231.879094 133.846063C234.683276 131.10244 237.086861 128.750764 239.891043 126.007142 238.074249 124.953928 236.516997 124.051173 234.700203 122.997959 233.712815 126.794795 232.866482 130.049226 231.879094 133.846063 231.879094 133.846063 231.879094 133.846063 231.879094 133.846063Z" stroke="#000000" stroke-width="3" stroke-linecap="square"/><path d="M719.5 325.5L700.5 213.5" id="arrow-2" stroke="#000000" stroke-width="3" stroke-linecap="square"/><path id="arrow-2-decoration-1" d="M700.600381 214.09172C700.197389 217.994091 699.851967 221.33898 699.448974 225.241351 701.519394 224.890119 703.294039 224.589063 705.364458 224.237831 703.697031 220.686692 702.267808 217.642859 700.600381 214.09172 700.600381 214.09172 700.600381 214.09172 700.600381 214.09172Z" stroke="#000000" stroke-width="3" stroke-linecap="square"/></g></svg>