<svg xmlns="http://www.w3.org/2000/svg" width="1140px" height="354px" viewBox="0 0 1140 354" version="1.1"><title>Levee Diagram</title><description>Created with Sketch (http://www.bohemiancoding.com/sketch)</description><defs><linearGradient x1="50%" y1="0%" x2="50%" y2="100%" id="linearGradient-1"><stop stop-color="#09738A" stop-opacity="0.8" offset="0%"/><stop stop-color="#092B5A" offset="100%"/></linearGradient></defs><g id="Page-1" stroke="none" stroke-width="1" fill="none" fill-rule="evenodd"><path d="M10 142.000001C10 142.000001 305.843441 74.03638 343 80.9999998 380.15656 87.9636192 405 166.999999 405 187.999999 404.999999 209 10 142.000001 10 142.000001ZM1137 139.000001C1137 139.000001 851.156559 74.0363802 814 81 776.84344 87.9636194 738 168.999998 738 189.999999 738.000001 211 1137 139.000001 1137 139.000001Z" id="Levees" fill="#C8A87A"/><path d="M637 178C562.000005 164.999998 556 197 502 191 453.692869 185.632542 368 173 368 173L368 280 782 280 782 173C782 173 712 191 637 178Z" id="Water" fill="url(#linearGradient-1)"/><path d="M831 135C760.813601 134.999998 738.752114 204.580182 695 244.5 662.700942 273.969948 607.376511 277 570 277 545.126646 277.000001 491.788528 274.813725 454 244.5 404.803563 205.034912 399 135 323 135 247 135 0 135 0 135L0 354 1140 354 1140 135 831 135Z" id="River-plain" fill="#855723"/><g id="Labels" transform="translate(44.000000, 4.000000)"><text id="Decreasing-sediment-" font-family="Helvetica Neue" font-size="24" font-weight="lighter" fill="#000000"><tspan x="3" y="23">Decreasing sediment grain size</tspan></text><text id="Decreasing-sediment--copy" font-family="Helvetica Neue" font-size="24" font-weight="lighter" fill="#000000"><tspan x="738" y="23">Decreasing sediment grain size</tspan></text><path d="M738.5 33.9444444L1070.5 35.5" id="Grain-size-gradient-right" stroke="#000000" stroke-width="3" stroke-linecap="square"/><path id="Grain-size-gradient-right-decoration-1" d="M1070.49637 35.499983C1066.72133 34.4322839 1063.48558 33.5171132 1059.71054 32.4494141 1059.7007 34.549391 1059.69227 36.3493712 1059.68243 38.4493482 1063.46731 37.4170704 1066.71149 36.5322608 1070.49637 35.499983 1070.49637 35.499983 1070.49637 35.499983 1070.49637 35.499983Z" stroke="#000000" stroke-width="3" stroke-linecap="square"/><path d="M323.5 34.5L0.486068398 33.5" id="Line" stroke="#000000" stroke-width="3" stroke-linecap="square"/><path id="Line-decoration-1" d="M0.501571252 33.500048C4.2783023 34.5617452 7.51550035 35.4717714 11.2922314 36.5334685 11.2987325 34.4334786 11.3043049 32.6334872 11.310806 30.5334973 7.52757386 31.57179 4.28480343 32.4617553 0.501571252 33.500048 0.501571252 33.500048 0.501571252 33.500048 0.501571252 33.500048Z" stroke="#000000" stroke-width="3" stroke-linecap="square"/></g></g></svg>