<?xml version="1.0" encoding="UTF-8" standalone="no"?>
<svg width="1140px" height="246px" viewBox="0 0 1140 246" version="1.1" xmlns="http://www.w3.org/2000/svg" xmlns:xlink="http://www.w3.org/1999/xlink" xmlns:sketch="http://www.bohemiancoding.com/sketch/ns">
    <title>Lower Course Cross Profile</title>
    <description>Created with Sketch (http://www.bohemiancoding.com/sketch)</description>
    <defs>
        <linearGradient x1="50%" y1="0%" x2="50%" y2="100%" id="linearGradient-1">
            <stop stop-color="#09738A" offset="0%"></stop>
            <stop stop-color="#092B5A" offset="100%"></stop>
        </linearGradient>
    </defs>
    <g id="Page-1" stroke="none" stroke-width="1" fill="none" fill-rule="evenodd" sketch:type="MSPage">
        <g id="Upper-Course" sketch:type="MSLayerGroup" transform="translate(1.000000, -5.000000)">
            <path d="M491.082725,135.496034 C565.501806,138.552687 596.961014,125.772016 648.264389,126.355409 C761.606257,127.644267 782.798705,131.121034 782.798705,131.121034 L769.708849,178.867128 L354.88274,175.804628 L363.710783,126.355409 C363.710783,126.355409 416.663644,132.439382 491.082725,135.496034 Z" id="Water" fill="url(#linearGradient-1)" sketch:type="MSShapeGroup"></path>
            <path d="M1137.83444,56.4960921 C1137.83444,56.4960921 1052.05513,56.4960929 1010.38161,56.4960921 C968.708099,56.4960924 945.510167,115.964844 924.69627,115.964842 C903.882374,115.96484 773.828269,115.964844 773.828269,115.964844 L758.149397,147.377365 L568.523688,147.37736 L568.523688,248.51953 L1137.83444,248.51953 L1137.83444,56.4960921 Z M-0.152996273,56.4960921 C-0.152996273,56.4960921 85.6263196,56.4960929 127.299834,56.4960921 C168.973347,56.4960924 192.171278,115.964844 212.985176,115.964842 C233.799072,115.96484 363.853176,115.964844 363.853176,115.964844 L379.532048,147.377365 L569.157757,147.37736 L569.157757,248.51953 L-0.152996282,248.51953 L-0.152996273,56.4960921 Z" id="Valley" stroke="#855723" stroke-width="2" fill="#855723" sketch:type="MSShapeGroup"></path>
            <g id="Labels" transform="translate(463.000000, 0.000000)" font-size="24" font-family="Helvetica Neue" fill="#000000" sketch:type="MSTextLayer" font-weight="lighter">
                <text id="Wider-floodplain-&amp;-v">
                    <tspan x="-0.318359375" y="22.6992188">Wider floodplain &amp; valley</tspan>
                </text>
            </g>
            <path d="M459.5,38.472973 L308.5,111.483249" id="Line" stroke="#000000" stroke-width="3" stroke-linecap="square" sketch:type="MSShapeGroup"></path>
            <path id="Line-decoration-1" d="M309.152232,111.167887 C313.012377,110.467758 316.321073,109.867647 320.181218,109.167517 C319.26709,107.276916 318.483552,105.656402 317.569425,103.765801 C314.623407,106.356531 312.098249,108.577157 309.152232,111.167887 C309.152232,111.167887 309.152232,111.167887 309.152232,111.167887 Z" stroke="#000000" stroke-width="3" stroke-linecap="square"></path>
            <path d="M711.5,38.5 L816.5,111.5" id="Line" stroke="#000000" stroke-width="3" stroke-linecap="square" sketch:type="MSShapeGroup"></path>
            <path id="Line-decoration-1" d="M815.775198,110.99609 C813.270951,107.976214 811.124454,105.38775 808.620207,102.367874 C807.421452,104.09211 806.393949,105.570026 805.195195,107.294262 C808.898196,108.589902 812.072197,109.70045 815.775198,110.99609 C815.775198,110.99609 815.775198,110.99609 815.775198,110.99609 Z" stroke="#000000" stroke-width="3" stroke-linecap="square"></path>
        </g>
    </g>
</svg>