---
---
<svg xmlns="http://www.w3.org/2000/svg" width="1140px" height="584px" viewBox="0 0 1140 584" version="1.1"><title>Meander Cross Section</title><description>Created with Sketch (http://www.bohemiancoding.com/sketch)</description>{% include svg-diagram-style.svg %}<defs><linearGradient x1="50%" y1="0%" x2="69.1458604%" y2="132.531054%" id="linearGradient-1"><stop stop-color="#09738A" stop-opacity="0.7" offset="0%"/><stop stop-color="#092B5A" stop-opacity="0.8" offset="100%"/></linearGradient></defs><g id="Page-1" stroke="none" stroke-width="1" fill="none" fill-rule="evenodd"><path d="M1 96L1 111 85 111 85 96 1 96ZM925 96L925 111 1142 111 1142 96 925 96Z" id="River-banks" fill="#668D3C"/><path d="M177 153C177 153 195 146 218 153 241 160 362.032565 198.113383 385 234 417.000003 283.999999 177 153 177 153Z" id="Slip-off-slope" fill="#C8A87A"/><path d="M470 272.903896C362.705488 233.621947 278 198.984712 278 198.984712 278 198.984712 393.389025 185.788357 470 184 546.610975 182.211643 620.335559 190.993448 620.335559 190.993448 620.335559 190.993448 710.539232 179.006552 807.918197 194.989079 848.057783 201.577073 883.656048 197.706132 911.447412 198.984711 951.078126 200.807976 975 205.977067 975 205.977067 975 205.977067 972.156272 241.227604 943.223706 272.903899 916.448241 302.218539 866.268722 328.246593 800.742905 325.846021 741.693203 323.682705 551.982915 302.918931 470 272.903896Z" id="River" stroke="#979797" fill="url(#linearGradient-1)"/><path d="M78.2881356 111C78.2881356 111 326.668077 222.273378 458.690678 261 590.713275 299.726623 741.152235 320.000002 790.788136 320 816.148305 320 888.031147 302.812351 929.665254 265 967.101695 231 967.101694 185.81627 967.101695 179 967.101695 164 929.665254 111 929.665254 111L1141 111 1141 411 1 411 1 111 78.2881356 111Z" id="River-terrain" stroke="#5C3B18" fill="#855723"/><path d="M279.5 480.5L279.5 197.5" id="Line" stroke="#000000" stroke-width="3" stroke-linecap="square"/><path id="Line-decoration-1" d="M279.5 197.5C278.45 201.28 277.55 204.52 276.5 208.3 278.6 208.3 280.4 208.3 282.5 208.3 281.45 204.52 280.55 201.28 279.5 197.5 279.5 197.5 279.5 197.5 279.5 197.5Z" stroke="#000000" stroke-width="3" stroke-linecap="square"/><path d="M414.5 64.5L448 181" id="Line" stroke="#000000" stroke-width="3" stroke-linecap="square"/><path id="Line-decoration-1" d="M447.938961 180.787731C447.903448 176.864768 447.873007 173.502228 447.837494 169.579265 445.819277 170.15961 444.089377 170.657049 442.07116 171.237395 444.12489 174.580012 445.885231 177.445113 447.938961 180.787731 447.938961 180.787731 447.938961 180.787731 447.938961 180.787731Z" stroke="#000000" stroke-width="3" stroke-linecap="square"/><path d="M759.5 64.5L856.5 195.5" id="Line" stroke="#000000" stroke-width="3" stroke-linecap="square"/><path id="Line-decoration-1" d="M856.498175 195.497535C855.092618 191.834843 853.887856 188.695393 852.482299 185.032701 850.794601 186.282371 849.348003 187.353517 847.660304 188.603186 850.753559 191.016208 853.40492 193.084513 856.498175 195.497535 856.498175 195.497535 856.498175 195.497535 856.498175 195.497535Z" stroke="#000000" stroke-width="3" stroke-linecap="square"/><path d="M982.5 31.5L932.5 91.5" id="Line" stroke="#000000" stroke-width="3" stroke-linecap="square"/><path id="Line-decoration-1" d="M932.565615 91.4212625C935.792144 89.1895796 938.557741 87.2767085 941.78427 85.0450256 940.171006 83.7006383 938.788207 82.5483063 937.174943 81.203919 935.561678 84.7799892 934.178879 87.8451923 932.565615 91.4212625 932.565615 91.4212625 932.565615 91.4212625 932.565615 91.4212625Z" stroke="#000000" stroke-width="3" stroke-linecap="square"/><g id="labels" transform="translate(184.000000, 2.000000)" fill="#000000"><text id="Slip-off-slope-made-"><tspan x="0" y="506">Slip-off slope </tspan><tspan x="0" y="535">made of sand &amp; </tspan><tspan x="0" y="564">shingle</tspan></text><text id="Slowest-current-&amp;-gr"><tspan x="115" y="23">Slowest current &amp; </tspan><tspan x="115" y="52">greatest deposition</tspan></text><text id="Fastest-current-&amp;-gr"><tspan x="414" y="23">Fastest current &amp; </tspan><tspan x="414" y="52">greatest deposition</tspan></text><text id="River-cliff"><tspan x="791" y="23">River cliff</tspan></text></g></g></svg>