<svg xmlns="http://www.w3.org/2000/svg" width="1140px" height="565px" viewBox="0 0 1140 565" version="1.1"><title>Meander Cross Section</title><description>Created with Sketch (http://www.bohemiancoding.com/sketch)</description><defs><linearGradient x1="50%" y1="0%" x2="69.1458604%" y2="132.531054%" id="linearGradient-1"><stop stop-color="#09738A" stop-opacity="0.7" offset="0%"/><stop stop-color="#092B5A" stop-opacity="0.8" offset="100%"/></linearGradient></defs><g id="Page-1" stroke="none" stroke-width="1" fill="none" fill-rule="evenodd"><path d="M1 90L1 105 85 105 85 90 1 90ZM925 90L925 105 1142 105 1142 90 925 90Z" id="River-banks" fill="#668D3C"/><path d="M177 147C177 147 195 140 218 147 241 154 362.032565 192.113383 385 228 417.000003 277.999999 177 147 177 147Z" id="Slip-off-slope" fill="#C8A87A"/><path d="M470 266.903896C362.705488 227.621947 278 192.984712 278 192.984712 278 192.984712 393.389025 179.788357 470 178 546.610975 176.211643 620.335559 184.993448 620.335559 184.993448 620.335559 184.993448 710.539232 173.006552 807.918197 188.989079 848.057783 195.577073 883.656048 191.706132 911.447412 192.984711 951.078126 194.807976 975 199.977067 975 199.977067 975 199.977067 972.156272 235.227604 943.223706 266.903899 916.448241 296.218539 866.268722 322.246593 800.742905 319.846021 741.693203 317.682705 551.982915 296.918931 470 266.903896Z" id="River" stroke="#979797" fill="url(#linearGradient-1)"/><path d="M78.2881356 105C78.2881356 105 326.668077 216.273378 458.690678 255 590.713275 293.726623 741.152235 314.000002 790.788136 314 816.148305 314 888.031147 296.812351 929.665254 259 967.101695 225 967.101694 179.81627 967.101695 173 967.101695 158 929.665254 105 929.665254 105L1141 105 1141 405 1 405 1 105 78.2881356 105Z" id="River-terrain" stroke="#5C3B18" fill="#855723"/><text id="Slip-off-slope-made-" font-family="Helvetica Neue" font-size="24" font-weight="lighter" fill="#000000"><tspan x="184" y="502">Slip-off slope </tspan><tspan x="184" y="531">made of sand &amp; </tspan><tspan x="184" y="560">shingle</tspan></text><path d="M279.5 474.5L279.5 191.5" id="Line" stroke="#000000" stroke-width="3" stroke-linecap="square"/><path id="Line-decoration-1" d="M279.5 191.5C278.45 195.28 277.55 198.52 276.5 202.3 278.6 202.3 280.4 202.3 282.5 202.3 281.45 198.52 280.55 195.28 279.5 191.5 279.5 191.5 279.5 191.5 279.5 191.5Z" stroke="#000000" stroke-width="3" stroke-linecap="square"/><text id="Slowest-current-&amp;-gr" font-family="Helvetica Neue" font-size="24" font-weight="lighter" fill="#000000"><tspan x="299" y="19">Slowest current &amp; </tspan><tspan x="299" y="48">greatest deposition</tspan></text><path d="M414.5 58.5L448 175" id="Line" stroke="#000000" stroke-width="3" stroke-linecap="square"/><path id="Line-decoration-1" d="M447.938961 174.787731C447.903448 170.864768 447.873007 167.502228 447.837494 163.579265 445.819277 164.15961 444.089377 164.657049 442.07116 165.237395 444.12489 168.580012 445.885231 171.445113 447.938961 174.787731 447.938961 174.787731 447.938961 174.787731 447.938961 174.787731Z" stroke="#000000" stroke-width="3" stroke-linecap="square"/><text id="Fastest-current-&amp;-gr" font-family="Helvetica Neue" font-size="24" font-weight="lighter" fill="#000000"><tspan x="598" y="19">Fastest current &amp; </tspan><tspan x="598" y="48">greatest deposition</tspan></text><path d="M759.5 58.5L856.5 189.5" id="Line" stroke="#000000" stroke-width="3" stroke-linecap="square"/><path id="Line-decoration-1" d="M856.498175 189.497535C855.092618 185.834843 853.887856 182.695393 852.482299 179.032701 850.794601 180.282371 849.348003 181.353517 847.660304 182.603186 850.753559 185.016208 853.40492 187.084513 856.498175 189.497535 856.498175 189.497535 856.498175 189.497535 856.498175 189.497535Z" stroke="#000000" stroke-width="3" stroke-linecap="square"/><text id="River-cliff" font-family="Helvetica Neue" font-size="24" font-weight="lighter" fill="#000000"><tspan x="975" y="19">River cliff</tspan></text><path d="M982.5 25.5L932.5 85.5" id="Line" stroke="#000000" stroke-width="3" stroke-linecap="square"/><path id="Line-decoration-1" d="M932.565615 85.4212625C935.792144 83.1895796 938.557741 81.2767085 941.78427 79.0450256 940.171006 77.7006383 938.788207 76.5483063 937.174943 75.203919 935.561678 78.7799892 934.178879 81.8451923 932.565615 85.4212625 932.565615 85.4212625 932.565615 85.4212625 932.565615 85.4212625Z" stroke="#000000" stroke-width="3" stroke-linecap="square"/></g></svg>