---
---
<svg xmlns="http://www.w3.org/2000/svg" width="1140px" height="403px" viewBox="0 0 1140 403" version="1.1"><title>River Middle Course Cross Section</title>{% include svg-diagram-style.svg %}<defs><linearGradient x1="50%" y1="0%" x2="50%" y2="100%" id="linearGradient-1"><stop stop-color="#09738A" offset="0%"/><stop stop-color="#092B5A" offset="100%"/></linearGradient></defs><g id="Page-1" stroke="none" stroke-width="1" fill="none" fill-rule="evenodd"><g id="Middle-Course" transform="translate(1.000000, 7.000000)"><path d="M503.109834 203.241799C566.677679 206.325733 593.54974 193.430989 637.372438 194.019589 734.18764 195.319951 752.289963 198.827749 752.289963 198.827749L741.108772 247 386.769517 243.910166 394.31032 194.019589C394.31032 194.019589 439.541989 200.157864 503.109834 203.241799Z" id="Path-9" fill="url(#linearGradient-1)"/><path d="M1139.45213 54.0000017C1139.45213 54.0000017 1030.67513 54.0000019 977.828832 54.0000017 924.982529 54.0000014 879.006928 187.410268 852.612766 187.410267 826.218604 187.410265 732.743244 187.410267 732.743244 187.410267L712.860821 218.831093 566.273695 218.83109 566.273695 320.000002 1139.45213 320.000002 1139.45213 54.0000017ZM0.0594795539 54.0000017C0.0594795539 54.0000017 110.13141 53.9999979 159.658625 54.0000017 209.18584 54.0000054 262.130644 187.410267 283.306495 187.410266 304.482345 187.410264 401.674781 187.410266 401.674781 187.410266L421.308199 218.831092 566.05948 218.831085 566.05948 320 0.0594795602 320 0.0594795539 54.0000017Z" id="Valley" stroke="#8E582B" fill="#855723"/><g id="Labels" transform="translate(490.687732, 0.000000)"   fill="#000000" ><text id="Wider-Channel"><tspan x="0.00557620818" y="390">Wider Channel</tspan></text><text id="Flood-Plain"><tspan x="19.5055762" y="23.4840088">Flood Plain</tspan></text></g><path d="M565.187732 366.5L565.187732 222.5" id="Line" stroke="#000000" stroke-width="3" stroke-linecap="square"/><path id="Line-decoration-1" d="M565.187732 222.5C564.137732 226.28 563.237732 229.52 562.187732 233.3 564.287732 233.3 566.087732 233.3 568.187732 233.3 567.137732 229.52 566.237732 226.28 565.187732 222.5 565.187732 222.5 565.187732 222.5 565.187732 222.5Z" stroke="#000000" stroke-width="3" stroke-linecap="square"/><path d="M500.5 27.5L306.5 183.5" id="Line" stroke="#000000" stroke-width="3" stroke-linecap="square"/><path id="Line-decoration-1" d="M307.23391 182.909845C310.837645 181.359362 313.92656 180.030377 317.530294 178.479894 316.214324 176.843366 315.086349 175.440628 313.770379 173.804101 311.482615 176.991112 309.521674 179.722835 307.23391 182.909845 307.23391 182.909845 307.23391 182.909845 307.23391 182.909845Z" stroke="#000000" stroke-width="3" stroke-linecap="square"/><path d="M630.5 27.5L791.5 183.5" id="Line" stroke="#000000" stroke-width="3" stroke-linecap="square"/><path id="Line-decoration-1" d="M791.370209 183.374239C789.386184 179.989782 787.685592 177.088819 785.701568 173.704362 784.240247 175.212521 782.987686 176.505228 781.526365 178.013386 784.97171 179.889685 787.924863 181.497941 791.370209 183.374239 791.370209 183.374239 791.370209 183.374239 791.370209 183.374239Z" stroke="#000000" stroke-width="3" stroke-linecap="square"/></g></g></svg>