---
---
<svg xmlns="http://www.w3.org/2000/svg" width="700px" height="1491px" viewBox="0 0 688 1491" version="1.1"><title>Oxbow Lake Formation Diagram</title><description>Created with Sketch (http://www.bohemiancoding.com/sketch)</description>{% include svg-diagram-style.svg %}<defs><linearGradient x1="50%" y1="5.67733617%" x2="50%" y2="100%" id="linearGradient-1"><stop stop-color="#09738A" offset="0%"/><stop stop-color="#092B5A" offset="11.7928511%"/><stop stop-color="#09738A" offset="100%"/></linearGradient></defs><g id="Page-1" stroke="none" stroke-width="1" fill="none" fill-rule="evenodd"><g id="labels" transform="translate(2.000000, 346.000000)" fill="#000000"><text id="Time" transform="translate(14.500000, 25.500000) rotate(269.000000) translate(-14.500000, -25.500000) "><tspan x="-11" y="34">Time</tspan></text></g><path d="M36.5 1.5L36.5 1475.50305" id="Line" stroke="#000000" stroke-width="3" stroke-linecap="square"/><path id="Line-decoration-1" d="M36.5 1475.5C37.55 1471.72 38.45 1468.48 39.5 1464.7 37.4 1464.7 35.6 1464.7 33.5 1464.7 34.55 1468.48 35.45 1471.72 36.5 1475.5 36.5 1475.5 36.5 1475.5 36.5 1475.5Z" stroke="#000000" stroke-width="3" stroke-linecap="square"/><g id="stage-1" transform="translate(85.000000, 10.000000)"><g id="labels" transform="translate(177.000000, 0.000000)" fill="#000000"><text id="Meander-neck"><tspan x="-0.5" y="329.531982">Meander neck</tspan></text><text id="Greatest-deposition"><tspan x="-0.5" y="23">Greatest deposition</tspan></text><path d="M58.5 223.596L58.5 231.228 61.38 231.228C62.8200072 231.228 64.043995 231.635996 65.052 232.452 66.060005 233.268004 66.8759969 234.371993 67.5 235.764 68.1240031 237.156007 68.5799986 238.739991 68.868 240.516 69.1560014 242.292009 69.3 244.13999 69.3 246.06L69.3 266.364C69.3 270.30002 69.7319957 273.683986 70.596 276.516 71.4600043 279.348014 72.4679942 281.699991 73.62 283.572 74.7720058 285.444009 75.8999945 286.859995 77.004 287.82 78.1080055 288.780005 78.8999976 289.403999 79.38 289.692 78.8999976 290.268001 78.1080055 290.891995 77.004 291.852 75.8999945 292.812005 74.7720058 294.227991 73.62 296.1 72.4679942 297.972009 71.4600043 300.323986 70.596 303.156 69.7319957 305.988014 69.3 309.37198 69.3 313.308L69.3 333.468C69.3 335.38801 69.1560014 337.259991 68.868 339.084 68.5799986 340.908009 68.1240031 342.491993 67.5 343.836 66.8759969 345.180007 66.060005 346.259996 65.052 347.076 64.043995 347.892004 62.8200072 348.3 61.38 348.3L58.5 348.3 58.5 355.932 65.7 355.932C69.7320202 355.932 72.851989 354.300016 75.06 351.036 77.268011 347.771984 78.372 343.404027 78.372 337.932L78.372 316.62C78.372 313.739986 78.5159986 310.908014 78.804 308.124 79.0920014 305.339986 79.6199962 302.868011 80.388 300.708 81.1560038 298.547989 82.2119933 296.820006 83.556 295.524 84.9000067 294.227994 86.6279894 293.58 88.74 293.58L88.74 285.948C86.6279894 285.948 84.9000067 285.300006 83.556 284.004 82.2119933 282.707994 81.1560038 280.980011 80.388 278.82 79.6199962 276.659989 79.0920014 274.188014 78.804 271.404 78.5159986 268.619986 78.372 265.788014 78.372 262.908L78.372 241.596C78.372 236.123973 77.268011 231.756016 75.06 228.492 72.851989 225.227984 69.7320202 223.596 65.7 223.596L58.5 223.596Z" id="}" transform="translate(73.500000, 289.596000) rotate(-270.000000) translate(-73.500000, -289.596000) "/><text id="Greatest-erosion"><tspan x="252" y="130">Greatest erosion</tspan></text></g><path d="M94 257C94 257 124.698753 237.182952 137 226 150.365419 213.849618 171 187 171 187L180 256 94 257ZM338.063377 186.523856C338.063377 186.523856 368.043648 214.436515 384.633975 225.098077 397.224939 233.1895 429.047803 251.178404 429.047803 251.178404L361.287741 269.334658 338.063377 186.523856ZM312.692217 140.103173C312.692217 140.103173 286.257758 139.194801 260.415064 144.816987 234.572369 150.439171 211.008261 162.224952 211.008261 162.224952L237.714033 97.9691988 312.692217 140.103173Z" id="deposit" fill="#C8A87A"/><path d="M0 251C0 251 39.468293 251.047793 104 251 168.531707 250.952207 165.283043 184.856152 170.548083 130.208187 175 83.9999996 216.047902 56.7293142 258.126831 55 300.55229 53.2564445 339.57132 89.9999995 339.559696 125.21486 339.524461 232.000002 383.203782 251.000001 403 251L514 251 514 286 353 286C299.611511 285.999994 314 164 299.611497 145.188167 285.222991 126.376335 292 124.298946 258.126828 125.214858 241.521585 125.663854 233.543321 125.21486 221.251567 145.188167 212.613002 159.225275 221.251572 290.999994 117 291 12.7484283 291.000007 0 286 0 286L0 251Z" id="meander-stage-1" stroke="#855723" stroke-width="7" fill="url(#linearGradient-1)"/><path d="M154.5 249.5C154.5 249.5 183 228.000006 191 180.000003 199 131.999999 230.280355 84.1273797 259 82 313 78.0000027 347 249.499993 347 249.499993" id="Line" stroke-opacity="0.8" stroke="#D4D4D4" stroke-width="3" stroke-linecap="square"/><path id="Line-decoration-1" d="M346.849031 248.754349C347.095161 244.827303 347.282365 241.468097 347.473019 237.529571 345.425565 237.996406 343.670605 238.39655 341.623152 238.863385 343.474711 242.311763 345.042192 245.269253 346.849031 248.754349 346.849031 248.754349 346.849031 248.754349 346.849031 248.754349Z" stroke-opacity="0.8" stroke="#D4D4D4" stroke-width="3" stroke-linecap="square"/><path d="M266.5 36.5L266.5 136.5" id="Line" stroke="#000000" stroke-width="3" stroke-linecap="square"/><path id="Line-decoration-1" d="M266.5 136.5C267.55 132.72 268.45 129.48 269.5 125.7 267.4 125.7 265.6 125.7 263.5 125.7 264.55 129.48 265.45 132.72 266.5 136.5 266.5 136.5 266.5 136.5 266.5 136.5Z" stroke="#000000" stroke-width="3" stroke-linecap="square"/><path d="M305.5 36.5L370.5 219.5" id="Line" stroke="#000000" stroke-width="3" stroke-linecap="square"/><path id="Line-decoration-1" d="M370.432749 219.310661C370.157003 215.39724 369.92065 212.042879 369.644905 208.129458 367.666026 208.832338 365.969845 209.434807 363.990967 210.137687 366.24559 213.348228 368.178125 216.10012 370.432749 219.310661 370.432749 219.310661 370.432749 219.310661 370.432749 219.310661Z" stroke="#000000" stroke-width="3" stroke-linecap="square"/><path d="M222.5 36.5L149.5 224.5" id="Line" stroke="#000000" stroke-width="3" stroke-linecap="square"/><path id="Line-decoration-1" d="M149.7445 223.870327C152.091538 220.726713 154.103285 218.032186 156.450323 214.888571 154.492723 214.128439 152.81478 213.476897 150.857179 212.716765 150.467742 216.620512 150.133938 219.966581 149.7445 223.870327 149.7445 223.870327 149.7445 223.870327 149.7445 223.870327Z" stroke="#000000" stroke-width="3" stroke-linecap="square"/><path d="M416.5 121.5L205.5 234.5" id="Line" stroke="#000000" stroke-width="3" stroke-linecap="square"/><path id="Line-decoration-1" d="M205.811451 234.333204C209.63939 233.474265 212.920481 232.738031 216.748421 231.879091 215.757 230.027853 214.90721 228.441077 213.915788 226.589839 211.07927 229.300017 208.647969 231.623026 205.811451 234.333204 205.811451 234.333204 205.811451 234.333204 205.811451 234.333204Z" stroke="#000000" stroke-width="3" stroke-linecap="square"/><path d="M436.5 139.5L331.5 266.5" id="Line" stroke="#000000" stroke-width="3" stroke-linecap="square"/><path id="Line-decoration-1" d="M332.000016 265.895219C335.217851 263.651018 337.975995 261.727418 341.19383 259.483217 339.575354 258.145107 338.18809 256.998156 336.569614 255.660046 334.970255 259.242357 333.599375 262.312909 332.000016 265.895219 332.000016 265.895219 332.000016 265.895219 332.000016 265.895219Z" stroke="#000000" stroke-width="3" stroke-linecap="square"/><path d="M417.5 108.5L269.5 61.5" id="Line" stroke="#000000" stroke-width="3" stroke-linecap="square"/><path id="Line-decoration-1" d="M269.770312 61.5858423C273.055205 63.730692 275.870827 65.5691344 279.15572 67.7139842 279.791331 65.7124851 280.33614 63.9969145 280.971751 61.9954153 277.051248 61.8520649 273.690816 61.7291929 269.770312 61.5858423 269.770312 61.5858423 269.770312 61.5858423 269.770312 61.5858423Z" stroke="#000000" stroke-width="3" stroke-linecap="square"/><path d="M20.5 268.5L134.5 268.5" id="Line" stroke-opacity="0.8" stroke="#D4D4D4" stroke-width="3" stroke-linecap="square"/><path id="Line-decoration-1" d="M134.5 268.5C130.72 267.45 127.48 266.55 123.7 265.5 123.7 267.6 123.7 269.4 123.7 271.5 127.48 270.45 130.72 269.55 134.5 268.5 134.5 268.5 134.5 268.5 134.5 268.5Z" stroke-opacity="0.8" stroke="#D4D4D4" stroke-width="3" stroke-linecap="square"/></g><g id="stage-2" transform="translate(94.000000, 397.000000)"><path d="M94 202C94 202 124.698753 182.182952 137 171 150.365419 158.849618 171 132 171 132L180 201 94 202ZM324.063377 132.523856C324.063377 132.523856 354.043648 160.436515 370.633975 171.098077 383.224939 179.1895 415.047803 197.178404 415.047803 197.178404L347.287741 215.334658 324.063377 132.523856ZM337.07636 99.1676707C337.07636 99.1676707 302.571641 96.938579 269.107263 102.938571 235.642883 108.938563 205.403154 122.776019 205.403154 122.776019L237.579952 43.1466767 337.07636 99.1676707Z" id="deposit" fill="#C8A87A"/><path d="M0 196C0 196 39.468293 196.047793 104 196 126.041421 195.983676 154.733371 192.339062 163.999995 179.999994 181.8637 156.21339 167.081368 111.190617 170.548083 75.208187 175 28.9999996 216.047902 1.72931423 258.126831-1.42316714e-14 300.55229-1.74355555 339.57132 34.9999995 339.559696 70.2148596 339.524461 177.000002 325.00001 195.999994 403 196 465 196.000005 514 196 514 196L514 231 353 231C222.999995 230.999994 305.611497 110.161472 290.00001 90.1881652 274.388523 70.2148582 241.712204 73.3664186 233.999995 90.1881652 223.999995 112.000001 290.257875 227.160324 117 236 19.0000006 240.999994 0 231 0 231L0 196Z" id="meander-stage-1" stroke="#855723" stroke-width="7" fill="url(#linearGradient-1)"/><g id="labels" transform="translate(180.000000, 260.000000)" fill="#000000"><text id="Neck-narrows"><tspan x="0.5" y="23">Neck narrows</tspan></text></g><path d="M243.5 253.5L230.5 204.5" id="Line" stroke="#000000" stroke-width="3" stroke-linecap="square"/><path id="Line-decoration-1" d="M230.678265 205.171922C230.632699 209.094781 230.593642 212.457232 230.548075 216.380091 232.577854 215.841578 234.317665 215.379996 236.347444 214.841483 234.363232 211.457137 232.662478 208.556268 230.678265 205.171922 230.678265 205.171922 230.678265 205.171922 230.678265 205.171922Z" stroke="#000000" stroke-width="3" stroke-linecap="square"/><path d="M253.5 253.5L278.5 204.5" id="Line" stroke="#000000" stroke-width="3" stroke-linecap="square"/><path id="Line-decoration-1" d="M278.495869 204.508097C275.842671 207.397983 273.568501 209.875029 270.915303 212.764915 272.785903 213.719302 274.389275 214.537349 276.259875 215.491737 277.042473 211.647463 277.713271 208.352371 278.495869 204.508097 278.495869 204.508097 278.495869 204.508097 278.495869 204.508097Z" stroke="#000000" stroke-width="3" stroke-linecap="square"/><path d="M31.5 217.5L145.5 217.5" id="Line" stroke-opacity="0.8" stroke="#D4D4D4" stroke-width="3" stroke-linecap="square"/><path id="Line-decoration-1" d="M145.5 217.5C141.72 216.45 138.48 215.55 134.7 214.5 134.7 216.6 134.7 218.4 134.7 220.5 138.48 219.45 141.72 218.55 145.5 217.5 145.5 217.5 145.5 217.5 145.5 217.5Z" stroke-opacity="0.8" stroke="#D4D4D4" stroke-width="3" stroke-linecap="square"/><path d="M165.5 198.5C165.5 198.5 194 177.000006 202 129.000003 205.839932 105.96041 202 30.9999896 270 31 296.822021 31.000006 307.507106 119.397308 325 173 337.215291 210.430775 361 219 361 219" id="Line" stroke-opacity="0.8" stroke="#D4D4D4" stroke-width="3" stroke-linecap="square"/><path id="Line-decoration-1" d="M360.274621 218.702021C357.447608 216.068765 355.272782 213.64192 352.963053 210.663171 351.670173 212.318001 350.561991 213.736426 349.269111 215.391256 353.091322 216.874757 356.39447 217.885603 360.274621 218.702021 360.274621 218.702021 360.274621 218.702021 360.274621 218.702021Z" stroke-opacity="0.8" stroke="#D4D4D4" stroke-width="3" stroke-linecap="square"/></g><g id="stage-3" transform="translate(94.000000, 714.000000)"><path d="M94 225C94 225 124.698753 205.182952 137 194 150.365419 181.849618 171 155 171 155L180 224 94 225ZM324.063377 155.523856C324.063377 155.523856 354.043648 183.436515 370.633975 194.098077 383.224939 202.1895 415.047803 220.178404 415.047803 220.178404L347.287741 238.334658 324.063377 155.523856ZM337.07636 122.167671C337.07636 122.167671 302.571641 119.938579 269.107263 125.938571 235.642883 131.938563 205.403154 145.776019 205.403154 145.776019L237.579952 66.1466767 337.07636 122.167671Z" id="deposit" fill="#C8A87A"/><path d="M333 252.889383C339.0291 253.616586 345.677248 254 353 254L514 254 514 219C514 219 465 219.000005 403 219 325.00001 218.999994 339.524461 200.000002 339.559696 93.2148596 339.57132 57.9999995 300.55229 21.2564445 258.126831 23 216.047902 24.7293142 175 51.9999996 170.548083 98.208187 167.081368 134.190617 181.8637 179.21339 163.999995 202.999994 154.733371 215.339062 126.041421 218.983676 104 219 39.468293 219.047793 0 219 0 219L0 254 108 253.999994C108 253.999994 147.846696 258.860956 163.999974 254L333 254 333 252.889383ZM278.638778 206C275.277395 169.888717 299.014866 124.721754 290.00001 113.188165 274.388523 93.2148582 241.712204 96.3664186 233.999995 113.188165 228.434457 125.327626 241.104102 168.993717 224.258244 206L278.638778 206Z" id="meander-stage-1" stroke="#855723" stroke-width="7" fill="url(#linearGradient-1)"/><g id="labels" transform="translate(152.000000, 0.000000)" fill="#000000"><text id="River-cuts-across-ne"><tspan x="19.433" y="323.5">River cuts across </tspan><tspan x="22.325" y="352.5">neck during high </tspan><tspan x="57.665" y="381.5">discharge</tspan></text><text id="Cutoff"><tspan x="299" y="23">Cutoff</tspan></text></g><path d="M254.5 295.5L254.5 255.5" id="Line" stroke="#000000" stroke-width="3" stroke-linecap="square"/><path id="Line-decoration-1" d="M254.5 255.5C253.45 259.28 252.55 262.52 251.5 266.3 253.6 266.3 255.4 266.3 257.5 266.3 256.45 262.52 255.55 259.28 254.5 255.5 254.5 255.5 254.5 255.5 254.5 255.5Z" stroke="#000000" stroke-width="3" stroke-linecap="square"/><path d="M444 25L340.5 64.5" id="Line" stroke="#000000" stroke-width="3" stroke-linecap="square"/><path id="Line-decoration-1" d="M341.229965 64.2214143C345.135903 63.8546106 348.48385 63.5402075 352.389789 63.1734038 351.641016 61.2114303 350.999211 59.5297388 350.250439 57.5677654 347.093273 59.8965425 344.387131 61.8926372 341.229965 64.2214143 341.229965 64.2214143 341.229965 64.2214143 341.229965 64.2214143Z" stroke="#000000" stroke-width="3" stroke-linecap="square"/><path d="M23.5 236.5L491.5 236.5" id="Line" stroke-opacity="0.8" stroke="#D4D4D4" stroke-width="3" stroke-linecap="square"/><path id="Line-decoration-1" d="M491.5 236.5C487.72 235.45 484.48 234.55 480.7 233.5 480.7 235.6 480.7 237.4 480.7 239.5 484.48 238.45 487.72 237.55 491.5 236.5 491.5 236.5 491.5 236.5 491.5 236.5Z" stroke-opacity="0.8" stroke="#D4D4D4" stroke-width="3" stroke-linecap="square"/></g><g id="stage-4" transform="translate(94.000000, 1151.000000)"><path d="M99 205C99 205 129.698753 185.182952 142 174 155.365419 161.849618 176 135 176 135L185 204 99 205ZM329.063377 135.523856C329.063377 135.523856 359.043648 163.436515 375.633975 174.098077 388.224939 182.1895 420.047803 200.178404 420.047803 200.178404L352.287741 218.334658 329.063377 135.523856ZM342.07636 102.167671C342.07636 102.167671 307.571641 99.938579 274.107263 105.938571 240.642883 111.938563 210.403154 125.776019 210.403154 125.776019L242.579952 46.1466767 342.07636 102.167671Z" id="deposit" fill="#C8A87A"/><path d="M333 229.889383C339.0291 230.616586 345.677248 231 353 231L514 231 514 196C514 196 465 196.000005 403 196 325.00001 195.999994 339.524461 177.000002 339.559696 70.2148596 339.57132 34.9999995 300.55229-1.74355555 258.126831-1.42177936e-14 216.047902 1.72931423 175 28.9999996 170.548083 75.208187 167.081368 111.190617 181.8637 156.21339 163.999995 179.999994 154.733371 192.339062 126.041421 195.983676 104 196 39.468293 196.047793 0 196 0 196L0 231 116 230.999994C116 230.999994 147.846703 235.860956 163.999974 231L333 231 333 229.889383ZM278.638778 183C275.277395 146.888717 299.014866 101.721754 290.00001 90.1881652 274.388523 70.2148582 241.712204 73.3664186 233.999995 90.1881652 228.434457 102.327626 241.104102 145.993717 224.258244 183L278.638778 183Z" id="meander-stage-1" stroke="#855723" stroke-width="7" fill="url(#linearGradient-1)"/><path d="M285 172.954968C284.999992 194.954967 259.147602 185 245 185 232 185 212 194.954967 223 172.954969 234.000001 150.95497 175.33985 158.890334 174 163.000001 167 184.470813 161 191.000003 188 191.000002 215 191.000002 308.000002 197.000001 326 191.000001 344 185.000001 349 163.000001 331 163.000001 290 163.000001 285.000008 150.95497 285 172.954968Z" id="deposit-2" fill="#C8A87A"/><path d="M21.5 213.5L498.504181 213.5" id="Line" stroke-opacity="0.8" stroke="#D4D4D4" stroke-width="3" stroke-linecap="square"/><path id="Line-decoration-1" d="M498.5 213.5C494.72 212.45 491.48 211.55 487.7 210.5 487.7 212.6 487.7 214.4 487.7 216.5 491.48 215.45 494.72 214.55 498.5 213.5 498.5 213.5 498.5 213.5 498.5 213.5Z" stroke-opacity="0.8" stroke="#D4D4D4" stroke-width="3" stroke-linecap="square"/><path d="M257.5 260.5L257.5 197.5" id="Line" stroke="#000000" stroke-width="3" stroke-linecap="square"/><path id="Line-decoration-1" d="M257.5 197.5C256.45 201.28 255.55 204.52 254.5 208.3 256.6 208.3 258.4 208.3 260.5 208.3 259.45 204.52 258.55 201.28 257.5 197.5 257.5 197.5 257.5 197.5 257.5 197.5Z" stroke="#000000" stroke-width="3" stroke-linecap="square"/><g id="labels" transform="translate(169.000000, 261.000000)" fill="#000000"><text id="Deposition-cuts-off-"><tspan x="10.53" y="23">Deposition cuts </tspan><tspan x="45.846" y="52">off cutoff</tspan></text></g></g></g></svg>