<svg xmlns="http://www.w3.org/2000/svg" width="1140px" height="449px" viewBox="0 0 1140 449" version="1.1"><title>River Eddie Currents</title><description>Created with Sketch (http://www.bohemiancoding.com/sketch)</description><defs><linearGradient x1="50%" y1="0%" x2="50%" y2="100%" id="linearGradient-1"><stop stop-color="#09738A" offset="0%"/><stop stop-color="#092B5A" offset="100%"/></linearGradient></defs><g id="Page-1" stroke="none" stroke-width="1" fill="none" fill-rule="evenodd"><path d="M782 103.741913C612.000019 155.335163 437.857469 88.7283149 351 103.741913 169.000005 135.201211 0 81.0912197 0 81.0912197L0 368 1140 368 1140 81.0912197C1140 81.0912197 952 52.1486669 782 103.741913Z" id="Water" fill="url(#linearGradient-1)"/><path d="M532 306.999997C532 306.999997 541.000001 276.000003 548 252.000001 555 228 601 245 611 252.000001 621 259.000002 606.565571 303.124124 593 307 565.000001 314.999997 532 306.999997 532 306.999997Z" id="Rock" fill="#493829"/><path d="M764 308L676 308C676 308 655.27619 317.308332 650 315 645.86213 313.189682 640.123839 308.995039 634 308 616.444642 305.147497 593.169999 308 575.439388 308L0 308 0 368 1140 368 1140 308 764 308Z" id="River-Bed" fill="#855723"/><g id="Flow-Lines" transform="translate(19.000000, 165.000000)" stroke="#F6F6F6" stroke-opacity="0.4" stroke-width="3" stroke-linecap="square"><path d="M-0.5 0.75L302.823273 0.75" id="Line"/><path id="Line-decoration-1" d="M302.5 0.75C298.72-0.3 295.48-1.2 291.7-2.25 291.7-0.15 291.7 1.65 291.7 3.75 295.48 2.7 298.72 1.8 302.5 0.75 302.5 0.75 302.5 0.75 302.5 0.75Z"/><path d="M0.5 27.75L303.823273 27.75" id="Line-copy"/><path id="Line-copy-decoration-1" d="M303.5 27.75C299.72 26.7 296.48 25.8 292.7 24.75 292.7 26.85 292.7 28.65 292.7 30.75 296.48 29.7 299.72 28.8 303.5 27.75 303.5 27.75 303.5 27.75 303.5 27.75Z"/><path d="M1.5 54.75L304.823273 54.75" id="Line-copy-2"/><path id="Line-copy-2-decoration-1" d="M304.5 54.75C300.72 53.7 297.48 52.8 293.7 51.75 293.7 53.85 293.7 55.65 293.7 57.75 297.48 56.7 300.72 55.8 304.5 54.75 304.5 54.75 304.5 54.75 304.5 54.75Z"/><path d="M0.5 81.75L303.823273 81.75" id="Line-copy-3"/><path id="Line-copy-3-decoration-1" d="M303.5 81.75C299.72 80.7 296.48 79.8 292.7 78.75 292.7 80.85 292.7 82.65 292.7 84.75 296.48 83.7 299.72 82.8 303.5 81.75 303.5 81.75 303.5 81.75 303.5 81.75Z"/></g><g id="Labels" transform="translate(409.000000, 0.000000)"><text id="River-Bed" font-family="Helvetica Neue" font-size="24" font-weight="lighter" fill="#000000"><tspan x="111.256" y="355">River Bed</tspan></text><text id="Bedload" font-family="Helvetica Neue" font-size="24" font-weight="lighter" fill="#000000"><tspan x="0" y="439">Bedload</tspan></text><path d="M51.5 412.5L121.5 311.5" id="Line" stroke="#000000" stroke-width="3" stroke-linecap="square"/><path id="Line-decoration-1" d="M120.995235 312.228304C117.979028 314.736968 115.393707 316.887252 112.3775 319.395916 114.103488 320.592145 115.582907 321.617485 117.308895 322.813714 118.599114 319.108821 119.705016 315.933198 120.995235 312.228304 120.995235 312.228304 120.995235 312.228304 120.995235 312.228304Z" stroke="#000000" stroke-width="3" stroke-linecap="square"/><text id="Depression-in-river-" font-family="Helvetica Neue" font-size="24" font-weight="lighter" fill="#000000"><tspan x="269" y="439">Depression in river bed</tspan></text><path d="M324.5 412.5L256.5 320.5" id="Line" stroke="#000000" stroke-width="3" stroke-linecap="square"/><path id="Line-decoration-1" d="M256.739417 320.823917C258.14183 324.487814 259.343899 327.628296 260.746312 331.292193 262.435082 330.043972 263.882599 328.974068 265.571369 327.725847 262.480186 325.310171 259.8306 323.239593 256.739417 320.823917 256.739417 320.823917 256.739417 320.823917 256.739417 320.823917Z" stroke="#000000" stroke-width="3" stroke-linecap="square"/><text id="Diverted-flow" font-family="Helvetica Neue" font-size="24" font-weight="lighter" fill="#000000"><tspan x="0" y="29">Diverted flow</tspan></text><path d="M79.5 43.5L116.5 144.5" id="Line" stroke="#000000" stroke-width="3" stroke-linecap="square"/><path id="Line-decoration-1" d="M116.306017 143.970479C115.991692 140.059968 115.722271 136.708101 115.407947 132.797589 113.436096 133.51995 111.745938 134.139117 109.774088 134.861478 112.060263 138.049628 114.019842 140.782329 116.306017 143.970479 116.306017 143.970479 116.306017 143.970479 116.306017 143.970479Z" stroke="#000000" stroke-width="3" stroke-linecap="square"/><text id="Downcutting-eddie-cu" font-family="Helvetica Neue" font-size="24" font-weight="lighter" fill="#000000"><tspan x="167" y="23">Downcutting </tspan><tspan x="167" y="52">eddie currents</tspan></text><path d="M233.5 64.5L252.5 196.5" id="Line" stroke="#000000" stroke-width="3" stroke-linecap="square"/><path id="Line-decoration-1" d="M252.448652 196.143264C252.9494 192.252229 253.378613 188.917057 253.879361 185.026022 251.800783 185.325211 250.019145 185.581659 247.940567 185.880848 249.518397 189.472694 250.870822 192.551418 252.448652 196.143264 252.448652 196.143264 252.448652 196.143264 252.448652 196.143264Z" stroke="#000000" stroke-width="3" stroke-linecap="square"/></g><g id="Eddie-Currents" transform="translate(361.000000, 151.000000)" stroke-opacity="0.4" stroke-width="3" stroke-linecap="square"><path d="M12.5 93.5C12.5 93.5 48.9694593 99.4335952 91 88 133.030539 76.5664045 143 58 143 58" id="Line" stroke="#F6F6F6"/><path id="Line-decoration-1" d="M142.80692 58.3277067C139.753679 60.676392 136.982339 62.3706544 133.638194 64.0859707 135.027597 65.6606323 136.218514 67.0103423 137.607917 68.5850039 139.761667 65.1065881 141.357002 62.0326201 142.80692 58.3277067 142.80692 58.3277067 142.80692 58.3277067 142.80692 58.3277067Z" stroke="#F6F6F6"/><path d="M168.5 51.5C168.5 51.5 193.75 38.0000005 219 38 244.25 37.9999995 275 63 275 63" id="Line" stroke="#F6F6F6"/><path id="Line-decoration-1" d="M274.994387 62.9954462C272.621814 59.8499044 270.499924 57.1974899 267.945538 54.1498551 266.769043 55.8893551 265.760619 57.3803551 264.584125 59.1198551 268.241773 60.3772313 271.369764 61.5358377 274.994387 62.9954462 274.994387 62.9954462 274.994387 62.9954462 274.994387 62.9954462Z" stroke="#F6F6F6"/><path d="M285.5 74.5C285.5 74.5 300.466999 84.0898045 300.466999 102.985578 300.466999 121.881353 285.5 147 285.5 147" id="Line" stroke="#F6F6F6"/><path id="Line-decoration-1" d="M285.689238 146.676874C288.444143 143.876771 290.757081 141.387835 293.399625 138.400816 291.504795 137.495487 289.880656 136.71949 287.985826 135.814161 287.280024 139.621462 286.59289 142.885377 285.689238 146.676874 285.689238 146.676874 285.689238 146.676874 285.689238 146.676874Z" stroke="#F6F6F6"/><path d="M9.5 68.5C9.5 68.5 29.7957929 77.9400825 74.25 68.5 118.704206 59.0599173 139 41 139 41" id="Line" stroke="#F5F5F5"/><path id="Line-decoration-1" d="M138.645015 41.3025679C135.034276 42.7502078 131.912776 43.8154755 128.229984 44.9239562 129.330022 46.7127871 130.272912 48.2460706 131.372951 50.0349015 134.073928 47.0619231 136.262185 44.4538036 138.645015 41.3025679 138.645015 41.3025679 138.645015 41.3025679 138.645015 41.3025679Z" stroke="#F5F5F5"/><path d="M157.5 30.5C157.5 30.5 184.717742 16.4336875 224 22 263.282259 27.5663122 281 48 281 48" id="Line" stroke="#F5F5F5"/><path id="Line-decoration-1" d="M280.54912 47.5107432C278.525144 44.1209968 276.572982 41.2954201 274.10175 38.0885955 272.868552 39.788367 271.811525 41.245314 270.578328 42.9450855 274.129053 44.334698 277.130184 45.6907371 280.54912 47.5107432 280.54912 47.5107432 280.54912 47.5107432 280.54912 47.5107432Z" stroke="#F5F5F5"/><path d="M293.5 56.5C293.5 56.5 311.848272 72.5054621 316.5 90 321.151728 107.494538 306.033717 144 306.033717 144" id="Line" stroke="#F5F5F5"/><path id="Line-decoration-1" d="M306.339703 143.243518C308.68675 140.072239 310.648395 137.321083 312.892263 134.054461 310.902303 133.383597 309.196623 132.80857 307.206663 132.137705 306.974679 136.011958 306.71951 139.337414 306.339703 143.243518 306.339703 143.243518 306.339703 143.243518 306.339703 143.243518Z" stroke="#F5F5F5"/><path d="M-0.5 34.5C-0.5 34.5 9.30846565 40.8462711 58.4467368 34.5 107.585007 28.1537287 135 17 135 17" id="Line" stroke="#F6F6F6"/><path id="Line-decoration-1" d="M134.919856 17.0321898C131.027814 17.3547899 127.694293 17.5452913 123.812111 17.6969348 124.441722 19.7003294 124.981389 21.4175248 125.611 23.4209194 128.926277 21.2455907 131.726927 19.3350022 134.919856 17.0321898 134.919856 17.0321898 134.919856 17.0321898 134.919856 17.0321898Z" stroke="#F6F6F6"/><path d="M153.5 8.5C153.5 8.5 206.835489 0 234 0 263.835489 0 287 8.5 287 8.5" id="Line" stroke="#F6F6F6"/><path id="Line-decoration-1" d="M286.132191 8.1974805C282.836152 6.05202512 279.932766 4.28545433 276.497388 2.30256013 275.990001 4.34034269 275.555097 6.08701345 275.047709 8.12479601 278.901861 8.04673532 282.235047 8.06415661 286.132191 8.1974805 286.132191 8.1974805 286.132191 8.1974805 286.132191 8.1974805Z" stroke="#F6F6F6"/><path d="M308 15.25C308 15.25 362.131324 26.7850041 390 29 417.868675 31.214996 481 29 481 29" id="Line" stroke="#F6F6F6"/><path id="Line-decoration-1" d="M480.770192 29.0079242C476.969575 28.0797004 473.699111 27.2766617 469.902453 26.3319688 469.958858 28.4312111 470.007205 30.2305617 470.06361 32.3298041 473.811553 31.1750404 477.034112 30.1787085 480.770192 29.0079242 480.770192 29.0079242 480.770192 29.0079242 480.770192 29.0079242Z" stroke="#F6F6F6"/><path d="M310.5 52.5C310.5 52.5 368.648389 75.0811226 385 77.5 424.981721 83.4144561 479.5 77.5 479.5 77.5" id="Line" stroke="#F5F5F5"/><path id="Line-decoration-1" d="M479.133063 77.5386841C475.283729 76.8557212 471.990444 76.240646 468.144547 75.4965061 468.305393 77.5903372 468.443262 79.3850495 468.604108 81.4788805 472.317335 80.1269221 475.474488 78.9470393 479.133063 77.5386841 479.133063 77.5386841 479.133063 77.5386841 479.133063 77.5386841Z" stroke="#F5F5F5"/></g></g></svg>
