<svg xmlns="http://www.w3.org/2000/svg" width="1140px" height="653px" viewBox="0 0 1140 653" version="1.1"><title>Riffles and Pools</title><description>Created with Sketch (http://www.bohemiancoding.com/sketch)</description><defs><filter x="-20%" y="-20%" width="140%" height="140%" filterUnits="objectBoundingBox" id="filter-1"><feOffset dx="0" dy="1" in="SourceAlpha" result="shadowOffsetInner1"/><feGaussianBlur stdDeviation="1.5" in="shadowOffsetInner1" result="shadowBlurInner1"/><feComposite in="shadowBlurInner1" in2="SourceAlpha" operator="arithmetic" k2="-1" k3="1" result="shadowInnerInner1"/><feColorMatrix values="0 0 0 0 0   0 0 0 0 0   0 0 0 0 0  0 0 0 0.7 0" in="shadowInnerInner1" type="matrix" result="shadowMatrixInner1"/><feMerge><feMergeNode in="SourceGraphic"/><feMergeNode in="shadowMatrixInner1"/></feMerge></filter></defs><g id="Page-1" stroke="none" stroke-width="1" fill="none" fill-rule="evenodd"><rect id="River-banks" fill="#668D3C" x="0" y="112" width="1140" height="213"/><rect id="River-Channel" fill="#09738A" filter="url(#filter-1)" x="0" y="128" width="1140" height="177"/><g id="Riffles-&amp;-Pools" transform="translate(67.000000, 156.000000)"><path d="M214.5 117C230.792401 117 244 91.7040899 244 60.5 244 29.2959101 230.792401 4 214.5 4 198.207599 4 185 29.2959101 185 60.5 185 91.7040899 198.207599 117 214.5 117Z" id="Riffle" fill="#D3B68D"/><path d="M584.5 117C600.792401 117 614 91.7040899 614 60.5 614 29.2959101 600.792401 4 584.5 4 568.207599 4 555 29.2959101 555 60.5 555 91.7040899 568.207599 117 584.5 117Z" id="Riffle-2" fill="#D3B68D"/><path d="M954.5 113C970.792401 113 984 87.7040899 984 56.5 984 25.2959101 970.792401 0 954.5 0 938.207599 0 925 25.2959101 925 56.5 925 87.7040899 938.207599 113 954.5 113Z" id="Riffle-3" fill="#D3B68D"/><path d="M29.5 117C45.7924009 117 59 91.7040899 59 60.5 59 29.2959101 45.7924009 4 29.5 4 13.2075991 4 0 29.2959101 0 60.5 0 91.7040899 13.2075991 117 29.5 117Z" id="Pool" fill="#092B5A"/><path d="M399.5 117C415.792401 117 429 91.7040899 429 60.5 429 29.2959101 415.792401 4 399.5 4 383.207599 4 370 29.2959101 370 60.5 370 91.7040899 383.207599 117 399.5 117Z" id="Pool-2" fill="#092B5A"/><path d="M769.5 117C785.792401 117 799 91.7040899 799 60.5 799 29.2959101 785.792401 4 769.5 4 753.207599 4 740 29.2959101 740 60.5 740 91.7040899 753.207599 117 769.5 117Z" id="Pool-3" fill="#092B5A"/></g><g id="Fucking-arrows" transform="translate(17.000000, 136.000000)" stroke="#000000" stroke-width="3"><path d="M-0.5 97.5C-0.5 97.5 9.28453448 124.996965 23.2681561 136.539001 37.2517772 148.081039 62.5 149.5 62.5 149.5" id="Line"/><path id="Line-decoration-1" d="M62.4588623 149.49755C58.8159135 148.09772 55.7739767 146.783458 52.3078198 145.139145 51.9247872 147.203918 51.5964735 148.973723 51.2134409 151.038496 55.1982013 150.640721 58.5708048 150.183367 62.4588623 149.49755 62.4588623 149.49755 62.4588623 149.49755 62.4588623 149.49755Z"/><path d="M91 149.5C91 149.5 119.895066 157.403659 137 149.5 161.968258 137.962942 171 95 171 95" id="Line" stroke-linecap="square"/><path id="Line-decoration-1" d="M170.786008 95.9451304C168.834597 99.3329184 167.083816 102.163626 164.966393 105.38002 166.959967 106.04007 168.668744 106.605826 170.662317 107.265876 170.818375 103.287491 170.859879 99.888109 170.786008 95.9451304 170.786008 95.9451304 170.786008 95.9451304 170.786008 95.9451304Z" stroke-linecap="square"/><path d="M171 69C171 69 177.494677 36.9070984 199 22 220.505323 7.09290206 259 8 259 8" id="Line" stroke-linecap="square"/><path id="Line-decoration-1" d="M258.686986 7.99488449C254.869881 6.97359876 251.587469 6.18263281 247.699706 5.34473007 247.838425 7.44014339 247.957327 9.23621194 248.096047 11.3316253 251.757182 10.0789385 254.917625 9.07305596 258.686986 7.99488449 258.686986 7.99488449 258.686986 7.99488449 258.686986 7.99488449Z" stroke-linecap="square"/><path d="M281.5 8.5C281.5 8.5 306.521691 5.35369391 320 17 333.478309 28.6463064 333 53 333 53" id="Line" stroke-linecap="square"/><path id="Line-decoration-1" d="M332.999027 52.2307736C333.870937 48.3696492 334.444667 44.9953255 334.914465 40.9740778 332.845668 41.3347452 331.072414 41.6438887 329.003617 42.0045562 330.572603 45.4612844 331.776873 48.5274262 332.999027 52.2307736 332.999027 52.2307736 332.999027 52.2307736 332.999027 52.2307736Z" stroke-linecap="square"/><path d="M338 83C338 83 337.666522 113.906108 353 129 368.333478 144.093893 402 146 402 146" id="Line" stroke-linecap="square"/><path id="Line-decoration-1" d="M401.726755 145.982443C398.074174 144.592154 395.012479 143.30841 391.495695 141.718824 391.154828 143.790975 390.862657 145.567104 390.52179 147.639255 394.487851 147.172962 397.844249 146.679529 401.726755 145.982443 401.726755 145.982443 401.726755 145.982443 401.726755 145.982443Z" stroke-linecap="square"/><path d="M455 151C455 151 478.483446 165.265389 510 151 541.516554 136.734611 550 92 550 92" id="Line" stroke-linecap="square"/><path id="Line-decoration-1" d="M549.861599 92.6724739C547.961052 96.080631 546.234918 98.9231313 544.131251 102.146918 546.126219 102.802741 547.836191 103.364875 549.831159 104.020698 549.976464 100.02351 549.992163 96.6140999 549.861599 92.6724739 549.861599 92.6724739 549.861599 92.6724739 549.861599 92.6724739Z" stroke-linecap="square"/><path d="M558 58C558 58 569.636812 18.3128213 586 7.00000004 602.363188-4.31282152 639 2.00000004 639 2.00000004" id="Line" stroke-linecap="square"/><path id="Line-decoration-1" d="M638.744578 1.95763402C635.146838 0.386730594 631.985415-0.883105396 628.26421-2.28014035 628.096907-0.186815254 627.953505 1.6074634 627.786203 3.7007885 631.580902 2.99585963 634.883651 2.47017313 638.744578 1.95763402 638.744578 1.95763402 638.744578 1.95763402 638.744578 1.95763402Z" stroke-linecap="square"/><path d="M655.5 3.5C655.5 3.5 691.683849-7.90448549 713 11.9999997 734.31615 31.9044855 736 71.999999 736 71.999999" id="Line" stroke-linecap="square"/><path id="Line-decoration-1" d="M735.985867 71.7202318C736.726191 67.8343237 737.251312 64.4734975 737.755324 60.5161825 735.680036 60.8373988 733.901217 61.112727 731.82593 61.4339433 733.381992 64.9617233 734.636567 68.0428225 735.985867 71.7202318 735.985867 71.7202318 735.985867 71.7202318 735.985867 71.7202318Z" stroke-linecap="square"/><path d="M743.5 92.5C743.5 92.5 749.975345 133.911481 769 149 788.024655 164.088518 830.5 161.5 830.5 161.5" id="Line" stroke-linecap="square"/><path id="Line-decoration-1" d="M830.5 161.5C826.707844 160.584188 823.488268 159.718805 819.77201 158.633755 819.730168 160.733338 819.694304 162.532981 819.652462 164.632564 823.492887 163.618802 826.751415 162.683736 830.5 161.5 830.5 161.5 830.5 161.5 830.5 161.5Z" stroke-linecap="square"/><path d="M851.5 160.5C851.5 160.5 888.388092 157.539648 903 142 917.611908 126.460353 914.5 93.5 914.5 93.5" id="Line" stroke-linecap="square"/><path id="Line-decoration-1" d="M914.562552 94.2942658C913.689737 98.1085732 912.82715 101.316353 911.704189 104.975337 913.802763 105.052699 915.601542 105.119009 917.700116 105.19637 916.727131 101.328331 915.788988 98.0525107 914.562552 94.2942658 914.562552 94.2942658 914.562552 94.2942658 914.562552 94.2942658Z" stroke-linecap="square"/><path d="M916 65.9999988C916 65.9999988 929.414202 20.5398149 948 7.99999979 966.585798-4.53981492 1001 1 1001 1" id="Line" stroke-linecap="square"/><path id="Line-decoration-1" d="M1000.31736 0.898996196C996.673672-0.594496275 993.492473-1.78131636 989.710648-3.0680066 989.610436-0.970399002 989.52454 0.827550365 989.424329 2.92515796 993.19525 2.10734129 996.46042 1.49464802 1000.31736 0.898996196 1000.31736 0.898996196 1000.31736 0.898996196 1000.31736 0.898996196Z" stroke-linecap="square"/><path d="M1028 1.5C1028 1.5 1044.36336-4.04005516 1064 13.0000005 1083.63664 30.0400556 1086 54 1086 54" id="Line" stroke-linecap="square"/><path id="Line-decoration-1" d="M1085.90364 53.2366615C1086.24606 49.2827815 1086.33238 45.8528857 1086.21569 41.8033994 1084.2205 42.4585345 1082.51033 43.0200789 1080.51514 43.675214 1082.56767 46.871195 1084.19456 49.7314949 1085.90364 53.2366615 1085.90364 53.2366615 1085.90364 53.2366615 1085.90364 53.2366615Z" stroke-linecap="square"/></g><g id="Legend" transform="translate(17.000000, 350.000000)"><path d="M-0.5-0.5C-0.5-0.5 9.28453448 26.9969648 23.2681561 38.5390015 37.2517772 50.0810385 62.5 51.5 62.5 51.5" id="Line-legend" stroke="#000000" stroke-width="3" stroke-linecap="square"/><path id="Line-legend-decoration-1" d="M62.4588623 51.4975496C58.8159135 50.0977205 55.7739767 48.7834575 52.3078198 47.1391452 51.9247872 49.2039178 51.5964735 50.9737229 51.2134409 53.0384955 55.1982013 52.6407211 58.5708048 52.1833671 62.4588623 51.4975496 62.4588623 51.4975496 62.4588623 51.4975496 62.4588623 51.4975496Z" stroke="#000000" stroke-width="3" stroke-linecap="square"/><text id="Strongest-flow" font-family="Helvetica Neue" font-size="24" font-weight="lighter" fill="#000000"><tspan x="79" y="55">Strongest flow</tspan></text><path d="M31.5 174C47.7924009 174 61 148.70409 61 117.5 61 86.2959101 47.7924009 61 31.5 61 15.2075991 61 2 86.2959101 2 117.5 2 148.70409 15.2075991 174 31.5 174Z" id="Pool-Legend" fill="#092B5A"/><path d="M31.5 296C47.7924009 296 61 270.70409 61 239.5 61 208.29591 47.7924009 183 31.5 183 15.2075991 183 2 208.29591 2 239.5 2 270.70409 15.2075991 296 31.5 296Z" id="Riffle-Legend" fill="#D3B68D"/><text id="Pool" font-family="Helvetica Neue" font-size="24" font-weight="lighter" fill="#000000"><tspan x="79" y="135">Pool</tspan></text><text id="Riffle" font-family="Helvetica Neue" font-size="24" font-weight="lighter" fill="#000000"><tspan x="79" y="247">Riffle</tspan></text></g><g id="Labels" transform="translate(187.000000, -5.000000)"><path d="M467.5 412.5L467.499996 312.5" id="Line" stroke="#000000" stroke-width="3" stroke-linecap="square"/><path id="Line-decoration-1" d="M467.499996 312.5C466.449996 316.28 465.549996 319.52 464.499996 323.3 466.599996 323.3 468.399996 323.3 470.499996 323.3 469.449996 319.52 468.549996 316.28 467.499996 312.5 467.499996 312.5 467.499996 312.5 467.499996 312.5Z" stroke="#000000" stroke-width="3" stroke-linecap="square"/><text id="Maximum-Deposition" font-family="Helvetica Neue" font-size="24" font-weight="lighter" fill="#000000"><tspan x="359" y="441">Maximum Deposition</tspan></text><path d="M92.5 29.5L92.4999971 129.5" id="Line" stroke="#000000" stroke-width="3" stroke-linecap="square"/><path id="Line-decoration-1" d="M92.4999971 129.5C93.5499972 125.72 94.4499973 122.48 95.4999974 118.7 93.3999974 118.7 91.5999974 118.7 89.4999974 118.7 90.5499973 122.48 91.4499972 125.72 92.4999971 129.5 92.4999971 129.5 92.4999971 129.5 92.4999971 129.5Z" stroke="#000000" stroke-width="3" stroke-linecap="square"/><text id="Maximum-Erosion" font-family="Helvetica Neue" font-size="24" font-weight="lighter" fill="#000000"><tspan x="0" y="23">Maximum Erosion</tspan></text><path d="M279.5 104.5L649.019887 104.5" id="Line" stroke="#000000" stroke-width="3" stroke-linecap="square"/><path id="Line-decoration-1" d="M648.49999 104.5C644.71999 103.45 641.47999 102.55 637.69999 101.5 637.69999 103.6 637.69999 105.4 637.69999 107.5 641.47999 106.45 644.71999 105.55 648.49999 104.5 648.49999 104.5 648.49999 104.5 648.49999 104.5Z" stroke="#000000" stroke-width="3" stroke-linecap="square"/><path id="Line-decoration-2" d="M291.1 107.5C287.32 106.45 284.08 105.55 280.3 104.5 284.08 103.45 287.32 102.55 291.1 101.5" stroke="#000000" stroke-width="3" stroke-linecap="square"/><text id="5⨉-Channel-Width" font-family="Helvetica Neue" font-size="24" font-weight="lighter" fill="#000000"><tspan x="374" y="85">5&#215; Channel Width</tspan></text></g></g></svg>