<svg xmlns:svg="http://www.w3.org/2000/svg" xmlns="http://www.w3.org/2000/svg" version="1.1" width="1425" height="816.3" id="svg2" xml:space="preserve"><metadata id="metadata8"/><defs id="defs6"><clipPath id="clipPath18"><path d="m0 3280 11400 0 0 2130L0 5410 0 3280z" id="path20"/></clipPath><clipPath id="clipPath28"><path d="m0 3480 11400 0 0 1770L0 5250 0 3480z" id="path30"/></clipPath><clipPath id="clipPath42"><path d="m2815 3800c162.9 0 295 253 295 565 0 312-132.1 565-295 565-162.9 0-295-253-295-565 0-312 132.1-565 295-565z" id="path44"/></clipPath><clipPath id="clipPath48"><path d="m0 0 11400 0 0 6530L0 6530 0 0z" id="path50"/></clipPath><clipPath id="clipPath58"><path d="m6515 3800c162.9 0 295 253 295 565 0 312-132.1 565-295 565-162.9 0-295-253-295-565 0-312 132.1-565 295-565z" id="path60"/></clipPath><clipPath id="clipPath64"><path d="m0 0 11400 0 0 6530L0 6530 0 0z" id="path66"/></clipPath><clipPath id="clipPath74"><path d="m10215 3840c162.9 0 295 253 295 565 0 312-132.1 565-295 565-162.9 0-295-253-295-565 0-312 132.1-565 295-565z" id="path76"/></clipPath><clipPath id="clipPath80"><path d="m0 0 11400 0 0 6530L0 6530 0 0z" id="path82"/></clipPath><clipPath id="clipPath90"><path d="m965 3800c162.9 0 295 253 295 565 0 312-132.1 565-295 565-162.9 0-295-253-295-565 0-312 132.1-565 295-565z" id="path92"/></clipPath><clipPath id="clipPath96"><path d="m0 0 11400 0 0 6530L0 6530 0 0z" id="path98"/></clipPath><clipPath id="clipPath106"><path d="m4665 3800c162.9 0 295 253 295 565 0 312-132.1 565-295 565-162.9 0-295-253-295-565 0-312 132.1-565 295-565z" id="path108"/></clipPath><clipPath id="clipPath112"><path d="m0 0 11400 0 0 6530L0 6530 0 0z" id="path114"/></clipPath><clipPath id="clipPath122"><path d="m8365 3800c162.9 0 295 253 295 565 0 312-132.1 565-295 565-162.9 0-295-253-295-565 0-312 132.1-565 295-565z" id="path124"/></clipPath><clipPath id="clipPath128"><path d="m0 0 11400 0 0 6530L0 6530 0 0z" id="path130"/></clipPath><clipPath id="clipPath196"><path d="m485 1290c162.9 0 295 253 295 565 0 312-132.1 565-295 565-162.9 0-295-253-295-565 0-312 132.1-565 295-565z" id="path198"/></clipPath><clipPath id="clipPath202"><path d="m0 0 11400 0 0 6530L0 6530 0 0z" id="path204"/></clipPath><clipPath id="clipPath212"><path d="m485 70c162.9 0 295 253 295 565 0 312-132.1 565-295 565C322.1 1200 190 947 190 635 190 323 322.1 70 485 70z" id="path214"/></clipPath><clipPath id="clipPath218"><path d="m0 0 11400 0 0 6530L0 6530 0 0z" id="path220"/></clipPath></defs><g transform="matrix(1.25,0,0,-1.25,0,816.25)" id="g10"><g transform="scale(0.1,0.1)" id="g12"><g id="g14"><g clip-path="url(#clipPath18)" id="g16"><path d="m0 3230 11450 0 0 2230L0 5460 0 3230z" id="path22" fill="#6a883b"/></g></g><g id="g24"><g clip-path="url(#clipPath28)" id="g26"><path d="m0 3430 11450 0 0 1870L0 5300 0 3430z" id="path32" fill="#3a7188"/></g></g><g transform="matrix(11400,0,0,1850,0,3440)" id="g34"><image width="1" height="1" transform="matrix(1,0,0,-1,0,1)" id="image36"/></g><g id="g38"><g clip-path="url(#clipPath42)" id="g40"><g clip-path="url(#clipPath48)" id="g46"><path d="m2470 3750 690 0 0 1230-690 0 0-1230z" id="path52" fill="#cbb690"/></g></g></g><g id="g54"><g clip-path="url(#clipPath58)" id="g56"><g clip-path="url(#clipPath64)" id="g62"><path d="m6170 3750 690 0 0 1230-690 0 0-1230z" id="path68" fill="#cbb690"/></g></g></g><g id="g70"><g clip-path="url(#clipPath74)" id="g72"><g clip-path="url(#clipPath80)" id="g78"><path d="m9870 3790 690 0 0 1230-690 0 0-1230z" id="path84" fill="#cbb690"/></g></g></g><g id="g86"><g clip-path="url(#clipPath90)" id="g88"><g clip-path="url(#clipPath96)" id="g94"><path d="m620 3750 690 0 0 1230-690 0 0-1230z" id="path100" fill="#1a2d59"/></g></g></g><g id="g102"><g clip-path="url(#clipPath106)" id="g104"><g clip-path="url(#clipPath112)" id="g110"><path d="m4320 3750 690 0 0 1230-690 0 0-1230z" id="path116" fill="#1a2d59"/></g></g></g><g id="g118"><g clip-path="url(#clipPath122)" id="g120"><g clip-path="url(#clipPath128)" id="g126"><path d="m8020 3750 690 0 0 1230-690 0 0-1230z" id="path132" fill="#1a2d59"/></g></g></g><path d="m165 4195c0 0 97.8-275 237.7-390.4C542.5 3689.2 795 3675 795 3675" id="path134" style="fill:none;stroke-width:30;stroke:#000"/><path d="m794.6 3675c-36.4 14-66.9 27.1-101.5 43.6-3.8-20.6-7.1-38.3-10.9-59 39.8 4 73.6 8.6 112.5 15.4l0 0z" id="path136" style="fill:none;stroke-width:30;stroke:#000"/><path d="m1136.2 3689.5c0 0 290.9 23.4 438.6 128.6 147.7 105.2 195.5 308 195.5 308" id="path138" style="fill:none;stroke-width:30;stroke:#000"/><path d="m1769.6 4123.1c-20.9-32.8-40.3-59.5-64.2-89 19.1-8.7 35.5-16.2 54.6-24.9 5.6 40.2 8.6 74.4 9.6 113.9l0 0z" id="path140" style="fill:none;stroke-width:30;stroke:#000"/><path d="m1905.8 4386.5c0 0 23.3 290.9 128.5 438.6C2139.6 4972.8 2430 5000 2430 5000" id="path142" style="fill:none;stroke-width:30;stroke:#000"/><path d="m2424.9 4999.5c-35.6-15.6-65.5-30.1-99.2-48.2-4.8 20.4-9 37.9-13.9 58.4 40-2 74.1-5 113.1-10.2l0 0z" id="path144" style="fill:none;stroke-width:30;stroke:#000"/><path d="m2847.5 5085.8c0 0 290.9-23.3 438.6-128.5C3433.8 4852.1 3480 4590 3480 4590" id="path146" style="fill:none;stroke-width:30;stroke:#000"/><path d="m3479 4595.4c-18.6 34.3-35.6 62.7-56.6 94.6 19.9 6.7 37 12.4 56.9 19 1.5-40 1.5-74.2-0.3-113.6l0 0z" id="path148" style="fill:none;stroke-width:30;stroke:#000"/><path d="m3575.8 4398.8c0 0 23.3-290.9 128.5-438.6C3809.6 3812.5 4350 3700 4350 3700" id="path150" style="fill:none;stroke-width:30;stroke:#000"/><path d="m4343.5 3701.4c-34.6 18.5-63.8 34.7-97.7 54-5.2-20.4-9.6-37.8-14.7-58.2 39.5 1 73.2 2.3 112.5 4.2l0 0z" id="path152" style="fill:none;stroke-width:30;stroke:#000"/><path d="m4837.6 3667.1c0 0 287.1-52.7 456.9 10.6C5405.4 3719.1 5670 4060 5670 4060" id="path154" style="fill:none;stroke-width:30;stroke:#000"/><path d="m5669.7 4059.6c-31.7-23.1-59-42.5-91-64.9 16.2-13.4 30-24.9 46.2-38.3 16 36 29.5 67 44.8 103.2l0 0z" id="path156" style="fill:none;stroke-width:30;stroke:#000"/><path d="m5799.9 4527.8c0 0 68.6 283.7 195.6 413.1C6078.4 5025.4 6540 5110 6540 5110" id="path158" style="fill:none;stroke-width:30;stroke:#000"/><path d="m6534.5 5109c-34.9-17.5-64.8-32.8-99.5-50.9-4.4 20.5-8.2 38.1-12.7 58.6 39.5-2.4 73.2-4.7 112.2-7.7l0 0z" id="path160" style="fill:none;stroke-width:30;stroke:#000"/><path d="m6830.4 5110.7c0 0 290.9-23.3 438.6-128.5C7365.4 4913.5 7470 4470 7470 4470" id="path162" style="fill:none;stroke-width:30;stroke:#000"/><path d="m7468.3 4477c-19.4 34-36.2 62.9-56.2 96.4 20.2 5.6 37.6 10.4 57.8 16-0.1-39.5-0.6-73.2-1.6-112.4l0 0z" id="path164" style="fill:none;stroke-width:30;stroke:#000"/><path d="m7579.6 4149c0 0 97.3-310.7 202.5-458.4 68.7-96.4 576.8-154.6 576.8-154.6" id="path166" style="fill:none;stroke-width:30;stroke:#000"/><path d="m8351.9 3536.8c-36.2 15.2-66.9 28.5-102.6 44.4-3.1-20.8-5.8-38.6-9-59.3 39.2 4.9 72.6 9.4 111.5 15l0 0z" id="path168" style="fill:none;stroke-width:30;stroke:#000"/><path d="m8646.9 3562.6c0 0 472.4 99.3 519.1 257.8 24.9 84.3 99.2 370.3 99.2 370.3" id="path170" style="fill:none;stroke-width:30;stroke:#000"/><path d="m9265.2 4190.6c-19.7-33.9-36.6-62.8-56.3-96.7 20.3-5.3 37.7-9.9 58-15.3-0.5 39.3-1.1 72.8-1.7 112l0 0z" id="path172" style="fill:none;stroke-width:30;stroke:#000"/><path d="m9319.6 4466c0 0 23.3 290.9 128.5 438.6 68.7 96.4 308.8 180.4 467.2 227.1 84.3 24.9 145.6 39.1 145.6 39.1" id="path174" style="fill:none;stroke-width:30;stroke:#000"/><path d="m10053.2 5169c-34.1-19.4-62.9-36.4-96.3-56.5-5.7 20.2-10.6 37.5-16.3 57.7 39.5 0.1 73.2-0.3 112.6-1.2l0 0z" id="path176" style="fill:none;stroke-width:30;stroke:#000"/><path d="m10517.7 5155.6c0 0 290.9-23.3 438.6-128.5 78.5-55.9 253.7-537.1 253.7-537.1" id="path178" style="fill:none;stroke-width:30;stroke:#000"/><path d="m11207.1 4498c-23 31.6-43 58.7-66.3 90 19.5 7.6 36.3 14.2 55.9 21.8 3.8-39.1 7-72.8 10.4-111.7l0 0z" id="path180" style="fill:none;stroke-width:30;stroke:#000"/><path d="m165 3035c0 0 97.8-275 237.7-390.4C542.5 2529.2 795 2515 795 2515" id="path182" style="fill:none;stroke-linecap:square;stroke-width:30;stroke:#000"/><path d="m794.6 2515c-36.4 14-66.9 27.1-101.5 43.6-3.8-20.6-7.1-38.3-10.9-59 39.8 4 73.6 8.6 112.5 15.4l0 0z" id="path184" style="fill:none;stroke-linecap:square;stroke-width:30;stroke:#000"/><g transform="scale(10,10)" id="g186"><text transform="matrix(1,0,0,-1,96,248)" id="text188"><tspan x="0" y="0" id="tspan190" style="-inkscape-font-specification:HelveticaNeue-Light;fill:#000;font-family:HelveticaNeue;font-size:24;font-weight:lighter;writing-mode:lr-tb">Strongest ﬂow</tspan></text></g><g id="g192"><g clip-path="url(#clipPath196)" id="g194"><g clip-path="url(#clipPath202)" id="g200"><path d="m140 1240 690 0 0 1230-690 0 0-1230z" id="path206" fill="#1a2d59"/></g></g></g><g id="g208"><g clip-path="url(#clipPath212)" id="g210"><g clip-path="url(#clipPath218)" id="g216"><path d="m140 20 690 0 0 1230-690 0 0-1230z" id="path222" fill="#cbb690"/></g></g></g><g transform="scale(10,10)" id="g224"><text transform="matrix(1,0,0,-1,96,168)" id="text226"><tspan x="0" y="0" id="tspan228" style="-inkscape-font-specification:HelveticaNeue-Light;fill:#000;font-family:HelveticaNeue;font-size:24;font-weight:lighter;writing-mode:lr-tb">Pool</tspan><tspan x="0" y="112" id="tspan230" style="-inkscape-font-specification:HelveticaNeue-Light;fill:#000;font-family:HelveticaNeue;font-size:24;font-weight:lighter;writing-mode:lr-tb">Rifﬂe</tspan></text></g><path d="m6545 2455 0 1000" id="path232" style="fill:none;stroke-linecap:square;stroke-width:30;stroke:#000"/><path d="m6545 3455c-10.5-37.8-19.5-70.2-30-108 21 0 39 0 60 0-10.5 37.8-19.5 70.2-30 108l0 0z" id="path234" style="fill:none;stroke-linecap:square;stroke-width:30;stroke:#000"/><g transform="scale(10,10)" id="g236"><text transform="matrix(1,0,0,-1,546,217)" id="text238"><tspan x="0" y="0" id="tspan240" style="-inkscape-font-specification:HelveticaNeue-Light;fill:#000;font-family:HelveticaNeue;font-size:24;font-weight:lighter;writing-mode:lr-tb">Maximum Deposition</tspan></text></g><path d="m2795 6285 0-1000" id="path242" style="fill:none;stroke-linecap:square;stroke-width:30;stroke:#000"/><path d="m2795 5285c10.5 37.8 19.5 70.2 30 108-21 0-39 0-60 0 10.5-37.8 19.5-70.2 30-108l0 0z" id="path244" style="fill:none;stroke-linecap:square;stroke-width:30;stroke:#000"/><g transform="scale(10,10)" id="g246"><text transform="matrix(1,0,0,-1,187,635)" id="text248"><tspan x="0" y="0" id="tspan250" style="-inkscape-font-specification:HelveticaNeue-Light;fill:#000;font-family:HelveticaNeue;font-size:24;font-weight:lighter;writing-mode:lr-tb">Maximum Erosion</tspan></text></g><path d="m4665 5535 3695.2 0" id="path252" style="fill:none;stroke-linecap:square;stroke-width:30;stroke:#000"/><path d="m8355 5535c-37.8 10.5-70.2 19.5-108 30 0-21 0-39 0-60 37.8 10.5 70.2 19.5 108 30l0 0zm-3574-30c-37.8 10.5-70.2 19.5-108 30 37.8 10.5 70.2 19.5 108 30" id="path254" style="fill:none;stroke-linecap:square;stroke-width:30;stroke:#000"/><g transform="scale(10,10)" id="g256"><text transform="matrix(1,0,0,-1,561,573)" id="text258"><tspan x="0" y="0" id="tspan260" style="-inkscape-font-specification:HelveticaNeue-Light;fill:#000;font-family:HelveticaNeue;font-size:24;font-weight:lighter;writing-mode:lr-tb">5</tspan></text><text transform="matrix(1,0,0,-1,574.3441,573)" id="text262"><tspan x="0" y="0" id="tspan264" style="-inkscape-font-specification:AppleSymbols;fill:#000;font-family:AppleSymbols;font-size:24;writing-mode:lr-tb">⨉</tspan></text><text transform="matrix(1,0,0,-1,597.0005,573)" id="text266"><tspan x="0" y="0" id="tspan268" style="-inkscape-font-specification:HelveticaNeue-Light;fill:#000;font-family:HelveticaNeue;font-size:24;font-weight:lighter;writing-mode:lr-tb">Channel Width</tspan></text></g></g></g></svg>
