---
---
<svg xmlns="http://www.w3.org/2000/svg" width="1126px" height="610px" viewBox="0 0 1126 610" version="1.1"><title>Hydrograph</title><description>Created with Sketch (http://www.bohemiancoding.com/sketch)</description>{% include svg-diagram-style.svg %}<g id="Page-1" stroke="none" stroke-width="1" fill="none" fill-rule="evenodd"><path d="M1074.5 186.5L1074.5 220.5 1078.5 220.5 1074.5 220.5 1074.5 253.5 1074.5 253.5 1078.5 253.5 1074.5 253.5 1074.5 286.5 1078.5 286.5 1074.5 286.5 1074.5 319.5 1074.5 319.5 1078.5 319.5 1074.5 319.5 1074.5 352.5 1078.5 352.5 1074.5 352.5 1074.5 385.5 1074.5 385.5 1078.5 385.5 1074.5 385.5 1074.5 418.5 1072.5 418.5 1074.5 418.5 1074.5 451.5 1074.5 451.5 1072.5 451.5 1074.5 451.5 1074.5 418.5 1078.5 418.5 1074.5 418.5 1074.5 418.5 1074.5 385.5 1072.5 385.5 1074.5 385.5 1074.5 352.5 1072.5 352.5 1074.5 352.5 1074.5 352.5 1074.5 319.5 1072.5 319.5 1074.5 319.5 1074.5 286.5 1072.5 286.5 1074.5 286.5 1074.5 286.5 1074.5 253.5 1072.5 253.5 1074.5 253.5 1074.5 220.5 1072.5 220.5 1074.5 220.5 1074.5 220.5 1074.5 186.5 1074.5 186.5 1074.5 186.5 1074.5 186.5 1074.5 153.5 1078.5 153.5 1074.5 153.5 1074.5 153.5 1074.5 120.5 1078.5 120.5 1074.5 120.5 1074.5 87.5 1078.5 87.5 1074.5 87.5 1074.5 87.5 1074.5 54.5 1078.5 54.5 1074.5 54.5 1074.5 21.5 1078.5 21.5 1074.5 21.5 1074.5 21.5 1074.5 54.5 1074.5 54.5 1072.5 54.5 1074.5 54.5 1074.5 87.5 1072.5 87.5 1074.5 87.5 1074.5 120.5 1074.5 120.5 1072.5 120.5 1074.5 120.5 1074.5 153.5 1072.5 153.5 1074.5 153.5 1074.5 186.5 1072.5 186.5 1074.5 186.5 1074.5 186.5 1074.5 186.5 1078.5 186.5 1074.5 186.5ZM83.5 550.5L109.5 550.5 109.5 552.5 109.5 550.5 83.5 550.5 83.5 545.5 83.5 550.5ZM83.5 550.5L57.4880063 550.5 83.5 550.5 83.5 552.5 83.5 550.5ZM109.5 550.5L135.5 550.5 135.5 550.5 135.5 553.5 135.5 550.5 109.5 550.5 109.5 545.5 109.5 550.5ZM135.5 550.5L161.5 550.5 161.5 550.5 161.5 553.5 161.5 550.5 135.5 550.5 135.5 546.5 135.5 550.5ZM161.5 550.5L187.5 550.5 187.5 550.5 187.5 553.5 187.5 550.5 161.5 550.5 161.5 546.5 161.5 550.5 161.5 550.5ZM187.5 550.5L213.5 550.5 213.5 550.5 213.5 553.5 213.5 550.5 187.5 550.5 187.5 546.5 187.5 550.5ZM213.5 550.5L239.5 550.5 239.5 550.5 239.5 553.5 239.5 550.5 213.5 550.5 213.5 546.5 213.5 550.5ZM239.5 550.5L265.5 550.5 265.5 550.5 265.5 553.5 265.5 550.5 239.5 550.5 239.5 546.5 239.5 550.5ZM265.5 550.5L292.5 550.5 292.5 550.5 292.5 553.5 292.5 550.5 265.5 550.5 265.5 546.5 265.5 550.5 265.5 550.5ZM292.5 550.5L318.5 550.5 318.5 552.5 318.5 550.5 292.5 550.5 292.5 546.5 292.5 550.5 292.5 550.5ZM318.5 550.5L344.5 550.5 344.5 550.5 344.5 552.5 344.5 550.5 318.5 550.5 318.5 545.5 318.5 550.5ZM344.5 550.5L370.5 550.5 370.5 550.5 370.5 552.5 370.5 550.5 344.5 550.5 344.5 545.5 344.5 550.5 344.5 550.5ZM370.5 550.5L396.5 550.5 396.5 550.5 396.5 552.5 396.5 550.5 370.5 550.5 370.5 545.5 370.5 550.5 370.5 550.5ZM396.5 550.5L422.5 550.5 422.5 552.5 422.5 550.5 396.5 550.5 396.5 545.5 396.5 550.5 396.5 550.5ZM422.5 550.5L448.5 550.5 448.5 550.5 448.5 552.5 448.5 550.5 422.5 550.5 422.5 545.5 422.5 550.5ZM448.5 550.5L474.5 550.5 474.5 552.5 474.5 550.5 448.5 550.5 448.5 545.5 448.5 550.5 448.5 550.5ZM474.5 550.5L500.5 550.5 500.5 550.5 500.5 552.5 500.5 550.5 474.5 550.5 474.5 545.5 474.5 550.5ZM500.5 550.5L526.5 550.5 526.5 552.5 526.5 550.5 552.5 550.5 552.5 552.5 552.5 550.5 552.5 550.5 579.5 550.5 579.5 552.5 579.5 550.5 605.5 550.5 605.5 552.5 605.5 550.5 631.5 550.5 631.5 552.5 631.5 550.5 657.5 550.5 657.5 552.5 657.5 550.5 657.5 550.5 683.5 550.5 683.5 552.5 683.5 550.5 709.5 550.5 709.5 552.5 709.5 550.5 735.5 550.5 735.5 552.5 735.5 550.5 761.5 550.5 761.5 552.5 761.5 550.5 787.5 550.5 787.5 552.5 787.5 550.5 813.5 550.5 813.5 552.5 813.5 550.5 813.5 550.5 839.5 550.5 839.5 552.5 839.5 550.5 866.5 550.5 866.5 552.5 866.5 550.5 892.5 550.5 892.5 552.5 892.5 550.5 918.5 550.5 918.5 552.5 918.5 550.5 918.5 550.5 944.5 550.5 944.5 552.5 944.5 550.5 970.5 550.5 970.5 552.5 970.5 550.5 970.5 550.5 944.5 550.5 944.5 545.5 944.5 550.5 918.5 550.5 918.5 545.5 918.5 550.5 892.5 550.5 892.5 550.5 892.5 545.5 892.5 550.5 866.5 550.5 866.5 545.5 866.5 550.5 839.5 550.5 839.5 550.5 839.5 545.5 839.5 550.5 813.5 550.5 813.5 545.5 813.5 550.5 787.5 550.5 787.5 550.5 787.5 545.5 787.5 550.5 761.5 550.5 761.5 545.5 761.5 550.5 735.5 550.5 735.5 550.5 735.5 545.5 735.5 550.5 709.5 550.5 709.5 545.5 709.5 550.5 683.5 550.5 683.5 545.5 683.5 550.5 657.5 550.5 657.5 545.5 657.5 550.5 631.5 550.5 631.5 550.5 631.5 545.5 631.5 550.5 605.5 550.5 605.5 545.5 605.5 550.5 579.5 550.5 579.5 550.5 579.5 545.5 579.5 550.5 552.5 550.5 552.5 545.5 552.5 550.5 526.5 550.5 526.5 550.5 526.5 545.5 526.5 550.5 500.5 550.5 500.5 545.5 500.5 550.5 500.5 550.5ZM970.5 550.5L996.5 550.5 996.5 552.5 996.5 550.5 970.5 550.5 970.5 545.5 970.5 550.5 970.5 550.5ZM996.5 550.5L1022.5 550.5 1022.5 550.5 1022.5 552.5 1022.5 550.5 996.5 550.5 996.5 545.5 996.5 550.5ZM1022.5 550.5L1048.5 550.5 1048.5 550.5 1048.5 552.5 1048.5 550.5 1022.5 550.5 1022.5 545.5 1022.5 550.5 1022.5 550.5ZM1048.5 550.5L1074.51011 550.5 1048.5 550.5 1048.5 545.5 1048.5 550.5 1048.5 550.5ZM1074.5 517.5L1074.5 484.5 1074.5 484.5 1078.5 484.5 1074.5 484.5 1074.5 517.5 1072.5 517.5 1074.5 517.5 1074.5 550.077608 1074.5 517.5 1078.5 517.5 1074.5 517.5 1074.5 517.5ZM1074.5 484.5L1074.5 451.5 1078.5 451.5 1074.5 451.5 1074.5 484.5 1072.5 484.5 1074.5 484.5 1074.5 484.5ZM1074.5 21.5L1074.5 16.5134357 1074.5 21.5 1072.5 21.5 1074.5 21.5 1074.5 21.5ZM57.5 21.5L57.5 54.5 57.5 54.5 55.5 54.5 57.5 54.5 57.5 21.5 61.5 21.5 57.5 21.5 57.5 21.5ZM57.5 21.5L57.5 17.512476 57.5 21.5 55.5 21.5 57.5 21.5 57.5 21.5ZM57.5 54.5L57.5 87.5 57.5 87.5 55.5 87.5 57.5 87.5 57.5 54.5 61.5 54.5 57.5 54.5 57.5 54.5ZM57.5 87.5L57.5 120.5 55.5 120.5 57.5 120.5 57.5 153.5 55.5 153.5 57.5 153.5 57.5 153.5 57.5 186.5 55.5 186.5 57.5 186.5 57.5 220.5 55.5 220.5 57.5 220.5 57.5 220.5 57.5 253.5 55.5 253.5 57.5 253.5 57.5 286.5 55.5 286.5 57.5 286.5 57.5 319.5 55.5 319.5 57.5 319.5 57.5 352.5 55.5 352.5 57.5 352.5 57.5 385.5 55.5 385.5 57.5 385.5 57.5 418.5 55.5 418.5 57.5 418.5 57.5 418.5 57.5 451.5 57.5 451.5 55.5 451.5 57.5 451.5 57.5 418.5 61.5 418.5 57.5 418.5 57.5 385.5 61.5 385.5 57.5 385.5 57.5 352.5 61.5 352.5 57.5 352.5 57.5 319.5 57.5 319.5 61.5 319.5 57.5 319.5 57.5 286.5 61.5 286.5 57.5 286.5 57.5 253.5 61.5 253.5 57.5 253.5 57.5 220.5 61.5 220.5 57.5 220.5 57.5 186.5 61.5 186.5 57.5 186.5 57.5 153.5 61.5 153.5 57.5 153.5 57.5 120.5 57.5 120.5 61.5 120.5 57.5 120.5 57.5 87.5 61.5 87.5 57.5 87.5 57.5 87.5ZM57.5 451.5L57.5 484.5 57.5 484.5 55.5 484.5 57.5 484.5 57.5 451.5 61.5 451.5 57.5 451.5 57.5 451.5ZM57.5 484.5L57.5 517.5 57.5 517.5 61.5 517.5 57.5 517.5 57.5 484.5 61.5 484.5 57.5 484.5 57.5 484.5ZM57.5 517.5L57.5 550.079332 57.5 517.5 55.5 517.5 57.5 517.5 57.5 517.5Z" id="Axis" stroke="#000000" stroke-linecap="square"/><g id="axis-labels" transform="translate(3.000000, 15.000000)" fill="#000000"><g id="y-axis"><text id="0"><tspan x="41.5" y="541">0</tspan></text><text id="5"><tspan x="40.5" y="508">5</tspan></text><text id="10"><tspan x="34" y="474">10</tspan></text><text id="15"><tspan x="34" y="442">15</tspan></text><text id="20"><tspan x="34" y="409">20</tspan></text><text id="25"><tspan x="34" y="376">25</tspan></text><text id="30"><tspan x="34" y="343">30</tspan></text><text id="35"><tspan x="34" y="310">35</tspan></text><text id="40"><tspan x="34" y="277">40</tspan></text><text id="45"><tspan x="34" y="244">45</tspan></text><text id="50"><tspan x="34" y="211">50</tspan></text><text id="55"><tspan x="34" y="177">55</tspan></text><text id="60"><tspan x="33" y="144">60</tspan></text><text id="65"><tspan x="34" y="111">65</tspan></text><text id="70"><tspan x="34" y="78">70</tspan></text><text id="75"><tspan x="34" y="45">75</tspan></text><text id="80"><tspan x="34" y="12">80</tspan></text><text id="Discharge-(cumecs)" transform="translate(10.000000, 281.500000) rotate(-90.000000) translate(-10.000000, -281.500000) "><tspan x="-41" y="284">Discharge (cumecs)</tspan></text><text id="10"><tspan x="1078" y="506">10</tspan></text><text id="20"><tspan x="1078" y="475">20</tspan></text><text id="30"><tspan x="1078" y="443">30</tspan></text><text id="40"><tspan x="1078" y="406">40</tspan></text><text id="50"><tspan x="1078" y="375">50</tspan></text><text id="60"><tspan x="1078" y="342">60</tspan></text><text id="70"><tspan x="1078" y="311">70</tspan></text><text id="80"><tspan x="1078" y="275">80</tspan></text><text id="90"><tspan x="1078" y="243">90</tspan></text><text id="Precipitation-(mm)" transform="translate(1109.000000, 291.492004) rotate(-270.000000) translate(-1109.000000, -291.492004) "><tspan x="1062.5" y="293.992004">Precipitation (mm)</tspan></text></g><g id="x-axis" transform="translate(51.000000, 541.000000)"><text id="0"><tspan x="0.164" y="12">0</tspan></text><text id="1"><tspan x="25.664" y="12">1</tspan></text><text id="2"><tspan x="51.664" y="12">2</tspan></text><text id="3"><tspan x="77.664" y="12">3</tspan></text><text id="4"><tspan x="103.664" y="12">4</tspan></text><text id="5"><tspan x="129.164" y="12">5</tspan></text><text id="6"><tspan x="154.664" y="12">6</tspan></text><text id="7"><tspan x="181.5" y="12">7</tspan></text><text id="8"><tspan x="208" y="12">8</tspan></text><text id="11"><tspan x="282.5" y="12">11</tspan></text><text id="12"><tspan x="309" y="12">12</tspan></text><text id="13"><tspan x="335" y="12">13</tspan></text><text id="14"><tspan x="361" y="12">14</tspan></text><text id="15"><tspan x="386.5" y="12">15</tspan></text><text id="16"><tspan x="414" y="12">16</tspan></text><text id="17"><tspan x="439.5" y="12">17</tspan></text><text id="18"><tspan x="466" y="12">18</tspan></text><text id="19"><tspan x="491.5" y="12">19</tspan></text><text id="20"><tspan x="518" y="12">20</tspan></text><text id="21"><tspan x="544.5" y="12">21</tspan></text><text id="22"><tspan x="570.5" y="12">22</tspan></text><text id="23"><tspan x="596.5" y="12">23</tspan></text><text id="24"><tspan x="622" y="12">24</tspan></text><text id="25"><tspan x="647.5" y="12">25</tspan></text><text id="26"><tspan x="675" y="12">26</tspan></text><text id="27"><tspan x="700.5" y="12">27</tspan></text><text id="28"><tspan x="727" y="12">28</tspan></text><text id="29"><tspan x="752.5" y="12">29</tspan></text><text id="30"><tspan x="778" y="12">30</tspan></text><text id="31"><tspan x="804" y="12">31</tspan></text><text id="32"><tspan x="830" y="12">32</tspan></text><text id="33"><tspan x="856" y="12">33</tspan></text><text id="34"><tspan x="882" y="12">34</tspan></text><text id="35"><tspan x="908" y="12">35</tspan></text><text id="36"><tspan x="935" y="12">36</tspan></text><text id="37"><tspan x="962" y="12">37</tspan></text><text id="38"><tspan x="987.328" y="12">38</tspan></text><text id="9"><tspan x="234.5" y="12">9</tspan></text><text id="10"><tspan x="257.328" y="12">10</tspan></text><text id="Time-(hours)"><tspan x="474" y="45">Time (hours)</tspan></text></g></g><g id="histogram" transform="translate(293.000000, 288.000000)" fill-opacity="0.8" fill="#4A90E2"><path d="M102.5 262L129 262 129 218 103 218 103 43 78 43 78 262 102.5 262ZM0 232L0 262 26 262 26 232 0 232ZM26 174L26 262 51 262 51 174 26 174ZM51 0L51 262 78 262 78 0 51 0Z" id="Rectangle-1"/></g><path d="M57 525C57 525 314.198339 528.386 348 526 381.801661 523.614 371.018467 514.884751 397 501.000005 412.523281 492.704236 427.823573 480.17646 443 477 471.69814 470.993416 495.386685 289.261516 522 167.999997 535.262883 107.56872 554.356755 62.663007 565 61 597 56 612.000005 326.999989 665 357 698.213433 375.800062 697.375006 376.598883 711 385.000005 719.116953 390.004888 736.346779 393.106785 758 417 816 481.000005 857 506.999995 914 520 971 533.000005 1048 526 1048 526" id="discharge" stroke="#000000" stroke-width="3"/><path d="M355.5 287.5L355.5 60.5" id="peak-rainfall" stroke="#979797" stroke-linecap="square" stroke-dasharray="4"/><path d="M565.5 58.5L565.5 550.5" id="peak-discharge" stroke="#979797" stroke-linecap="square" stroke-dasharray="4"/><path d="M563.5 59.5L355.490385 59.5" id="lag-time" stroke="#979797" stroke-linecap="square" stroke-dasharray="4"/><path d="M356.5 52.5L564.521637 52.5" id="Line" stroke="#000000" stroke-width="3" stroke-linecap="square"/><path id="Line-decoration-1" d="M357.3 52.5C361.08 51.45 364.32 50.55 368.1 49.5 368.1 51.6 368.1 53.4 368.1 55.5 364.32 54.45 361.08 53.55 357.3 52.5 357.3 52.5 357.3 52.5 357.3 52.5Z" stroke="#000000" stroke-width="3" stroke-linecap="square"/><path id="Line-decoration-2" d="M564.5 52.5C560.72 51.45 557.48 50.55 553.7 49.5 553.7 51.6 553.7 53.4 553.7 55.5 557.48 54.45 560.72 53.55 564.5 52.5 564.5 52.5 564.5 52.5 564.5 52.5Z" stroke="#000000" stroke-width="3" stroke-linecap="square"/><g id="labels" transform="translate(169.000000, 3.000000)" fill="#000000"><text id="Lag-time"><tspan x="253" y="38">Lag time</tspan></text><text id="Peak-discharge"><tspan x="531.5" y="23.4840088">Peak discharge</tspan></text><text id="Peak-rainfall"><tspan x="0" y="150">Peak rainfall</tspan></text><text id="Rising-limb"><tspan x="210.5" y="101">Rising limb</tspan></text><text id="Falling-limb"><tspan x="532" y="101">Falling limb</tspan></text></g><path d="M693.5 31.5L578.5 59.5" id="Line" stroke="#000000" stroke-width="3" stroke-linecap="square"/><path id="Line-decoration-1" d="M578.849411 59.4149259C582.770512 59.5408979 586.131456 59.6488739 590.052557 59.7748459 589.555766 57.7344541 589.129945 55.9855469 588.633154 53.9451551 585.208844 55.8595749 582.273721 57.5005061 578.849411 59.4149259 578.849411 59.4149259 578.849411 59.4149259 578.849411 59.4149259Z" stroke="#000000" stroke-width="3" stroke-linecap="square"/><path d="M261.5 161.5L343.5 280.5" id="Line" stroke="#000000" stroke-width="3" stroke-linecap="square"/><path id="Line-decoration-1" d="M343.206971 280.07475C341.92677 276.366383 340.829455 273.187782 339.549255 269.479415 337.82004 270.670975 336.337856 271.692312 334.608641 272.883872 337.618056 275.40068 340.197555 277.557943 343.206971 280.07475 343.206971 280.07475 343.206971 280.07475 343.206971 280.07475Z" stroke="#000000" stroke-width="3" stroke-linecap="square"/><path d="M442.5 118.5L509.5 175.5" id="Line" stroke="#000000" stroke-width="3" stroke-linecap="square"/><path id="Line-decoration-1" d="M508.764311 174.874115C506.565618 171.625015 504.681024 168.840073 502.482331 165.590973 501.121577 167.190456 499.955216 168.561442 498.594461 170.160925 502.153908 171.810542 505.204863 173.224499 508.764311 174.874115 508.764311 174.874115 508.764311 174.874115 508.764311 174.874115Z" stroke="#000000" stroke-width="3" stroke-linecap="square"/><path d="M702.5 112.5L608.5 167.5" id="Line" stroke="#000000" stroke-width="3" stroke-linecap="square"/><path id="Line-decoration-1" d="M609.283894 167.041338C613.076721 166.038659 616.327715 165.17922 620.120542 164.176541 619.060016 162.364006 618.150994 160.810404 617.090468 158.997868 614.358167 161.813083 612.016195 164.226124 609.283894 167.041338 609.283894 167.041338 609.283894 167.041338 609.283894 167.041338Z" stroke="#000000" stroke-width="3" stroke-linecap="square"/></g></svg>