---
---
<svg xmlns="http://www.w3.org/2000/svg" width="1046px" height="539px" viewBox="0 0 1046 539" version="1.1"><title>River Upper Course Cross Section</title>{% include svg-diagram-style.svg %}<defs><linearGradient x1="50%" y1="0%" x2="50%" y2="100%" id="linearGradient-1"><stop stop-color="#09738A" offset="0%"/><stop stop-color="#092B5A" offset="100%"/></linearGradient></defs><g id="Page-1" stroke="none" stroke-width="1" fill="none" fill-rule="evenodd"><g id="Lower-Course" transform="translate(17.000000, 5.000000)"><path d="M478.764015 304.540738C538.220931 309.55036 550.743523 284 603.315335 298.599653 660.484843 314.476125 713 294.589615 713 294.589615L673.803928 363.947699 376.832045 367 351 284C351 284 419.307099 299.531116 478.764015 304.540738Z" id="Path-3" fill="url(#linearGradient-1)"/><path d="M488 354.738578L408.298725 354.738578C408.298725 354.738578 291.85436 47.9999945 246.606977 48 201.359595 48.0000057 0 48 0 48L0 456 473.791137 455.999995 1019.79114 456 1019.79114 48.0000002C1019.79114 48.0000002 820.926414 48 772.857886 48.0000002 724.789359 48.0000004 610.952212 354.738578 610.952212 354.738578L488 354.738583Z" id="Valley" stroke="#8E582B" fill="#855723"/><g id="Labels" transform="translate(431.000000, 0.000000)"   fill="#000000" ><text id="Steep-Valley-Sides"><tspan x="0" y="23">Steep Valley Sides</tspan></text><text id="Narrow-Channel"><tspan x="11" y="518">Narrow Channel</tspan></text></g><path d="M433.5 41.5135135L312.5 116.513151" id="Line" stroke="#000000" stroke-width="3" stroke-linecap="square"/><path id="Line-decoration-1" d="M312.804718 116.324277C316.57077 115.225301 319.798815 114.283321 323.564868 113.184345 322.458511 111.399414 321.510206 109.869474 320.40385 108.084544 317.744154 110.968451 315.464414 113.44037 312.804718 116.324277 312.804718 116.324277 312.804718 116.324277 312.804718 116.324277Z" stroke="#000000" stroke-width="3" stroke-linecap="square"/><path d="M615.5 41.4230769L695.5 116.587912" id="Line" stroke="#000000" stroke-width="3" stroke-linecap="square"/><path id="Line-decoration-1" d="M694.937841 116.05973C692.902001 112.706186 691.156995 109.83172 689.121155 106.478176 687.683201 108.00863 686.450669 109.320447 685.012716 110.850901 688.486509 112.673991 691.464047 114.236639 694.937841 116.05973 694.937841 116.05973 694.937841 116.05973 694.937841 116.05973Z" stroke="#000000" stroke-width="3" stroke-linecap="square"/><path d="M515.5 492.5L503.5 355.5" id="Line" stroke="#000000" stroke-width="3" stroke-linecap="square"/><path id="Line-decoration-1" d="M503.54577 356.022535C502.829606 359.879738 502.215752 363.185912 501.499589 367.043114 503.59158 366.859874 505.384714 366.702811 507.476704 366.519571 506.100877 362.845609 504.921597 359.696498 503.54577 356.022535 503.54577 356.022535 503.54577 356.022535 503.54577 356.022535Z" stroke="#000000" stroke-width="3" stroke-linecap="square"/></g></g></svg>