<svg xmlns="http://www.w3.org/2000/svg" width="1140px" height="608px" viewBox="0 0 1140 608" version="1.1"><title>Waterfall Diagram</title><description>Created with Sketch (http://www.bohemiancoding.com/sketch)</description><defs><linearGradient x1="50%" y1="0%" x2="50%" y2="100%" id="linearGradient-1"><stop stop-color="#09738A" offset="0%"/><stop stop-color="#092B5A" offset="100%"/></linearGradient></defs><g id="Page-1" stroke="none" stroke-width="1" fill="none" fill-rule="evenodd"><path d="M499.07525 84.1453126C480.811193 83.3972706 484.155449 92.155046 450.585894 84.1453125 417.016339 76.1355787 401.675873 86.4278522 380.406005 81.6898075 355.472155 76.1355795 300.744034 85.4921756 288.333046 92.155046 262.223391 106.172079 3 84.1453114 3 84.1453114L3 125.195194 405 125.195194C405 125.195194 585.831124 116.026318 595 125.195194 620 150.195194 620.315147 260.904117 630 270 649.808945 288.604295 640.613221 423.130196 681 432 717.520934 440.020782 735 341 718 323 700.999996 305.000001 711 274 705 252 699.056871 230.208524 705.945297 195.53998 696 165 686.054704 134.46002 681 141 653.868197 107.173296 626.736393 73.3465931 561.073306 86.6845686 499.07525 84.1453126Z" id="River" fill="#09738A"/><path d="M805.846482 368.501987C864.695112 288.785631 753.257334 395.280877 746.997868 400.626491 716.347547 426.802012 643.677035 444.193202 632.978678 394.677509 628.471966 373.818876 550 295 571 363 580.204896 392.806328 555 406.999998 524 387.000002 493 367.000005 444 407 444 407L440 508 1142 496 1142 393.677508C1142 393.677508 746.997868 448.218344 805.846482 368.501987Z" id="Pool" fill="url(#linearGradient-1)"/><path d="M3 164L549 164C549 164 539.964515 237.640716 531.51355 312 526.530875 355.842044 492.73582 404.837423 502 428 511.264182 451.162576 537.573576 462.778809 553.850907 470.961822 605.50597 496.930094 604.097447 501.929045 684.378461 489.931564 764.659475 477.934083 1143 470.961815 1143 470.961815L1143 530 3 529.999994 3 164Z" id="Soft-rock" fill="#855723"/><path d="M3 119L3 164C3 164 560.093934 164 576.759137 164 593.42434 164 607.7088 119 576.759137 119L3 119Z" id="Hard-rock" fill="#493829"/><g id="Labels" transform="translate(4.000000, -5.000000)"><text id="Less-resistant-rock" font-family="Helvetica Neue" font-size="24" font-weight="lighter" fill="#FFFFFF"><tspan x="183" y="346">Less resistant rock</tspan></text><text id="Resistant-rock" font-family="Helvetica Neue" font-size="24" font-weight="lighter" fill="#FFFFFF"><tspan x="183" y="147">Resistant rock</tspan></text><text id="Overhanging-cap-rock" font-family="Helvetica Neue" font-size="24" font-weight="lighter" fill="#000000"><tspan x="668" y="23.3837891">Overhanging cap rock</tspan></text><path d="M756.5 39.5L591.5 122.5" id="Line" stroke="#000000" stroke-width="3" stroke-linecap="square"/><path id="Line-decoration-1" d="M592.125118 122.185547C595.973797 121.424907 599.272664 120.77293 603.121343 120.01229 602.177649 118.136272 601.368769 116.528257 600.425075 114.652239 597.52009 117.288897 595.030103 119.548889 592.125118 122.185547 592.125118 122.185547 592.125118 122.185547 592.125118 122.185547Z" stroke="#000000" stroke-width="3" stroke-linecap="square"/><text id="Plunge-pool" font-family="Helvetica Neue" font-size="24" font-weight="lighter" fill="#000000"><tspan x="902" y="281">Plunge pool</tspan></text><path d="M896.5 281.5L730.5 395.5" id="Line" stroke="#000000" stroke-width="3" stroke-linecap="square"/><path id="Line-decoration-1" d="M730.809351 395.287554C734.519737 394.013217 737.700068 392.920928 741.410454 391.646591 740.221628 389.915495 739.202635 388.431698 738.01381 386.700601 735.492249 389.706035 733.330912 392.282121 730.809351 395.287554 730.809351 395.287554 730.809351 395.287554 730.809351 395.287554Z" stroke="#000000" stroke-width="3" stroke-linecap="square"/><text id="Splashback" font-family="Helvetica Neue" font-size="24" font-weight="lighter" fill="#000000"><tspan x="429" y="608">Splashback</tspan></text><path d="M486.5 582.5L598.5 392.5" id="Line" stroke="#000000" stroke-width="3" stroke-linecap="square"/><path id="Line-decoration-1" d="M598.218749 392.977122C595.394677 395.700267 592.974043 398.034391 590.149971 400.757535 591.959053 401.823941 593.509695 402.738004 595.318777 403.80441 596.333767 400.014859 597.203759 396.766673 598.218749 392.977122 598.218749 392.977122 598.218749 392.977122 598.218749 392.977122Z" stroke="#000000" stroke-width="3" stroke-linecap="square"/><text id="Undercutting" font-family="Helvetica Neue" font-size="24" font-weight="lighter" fill="#000000"><tspan x="860.5" y="163.691895">Undercutting</tspan></text><path d="M857.5 171.5L530.5 430.5" id="Line" stroke="#000000" stroke-width="3" stroke-linecap="square"/><path id="Line-decoration-1" d="M530.613705 430.40994C534.228778 428.886082 537.327413 427.579917 540.942486 426.056059 539.638623 424.409869 538.521026 422.998849 537.217163 421.352659 534.905953 424.522708 532.924915 427.239892 530.613705 430.40994 530.613705 430.40994 530.613705 430.40994 530.613705 430.40994Z" stroke="#000000" stroke-width="3" stroke-linecap="square"/><path d="M596.5 39.5L0.5 39.5" id="Line" stroke="#000000" stroke-width="3" stroke-linecap="square"/><path id="Line-decoration-1" d="M0.5 39.5C4.28000016 40.55 7.52000029 41.45 11.3000005 42.5 11.3000001 40.4 11.2999999 38.6 11.2999995 36.5 7.51999971 37.55 4.27999984 38.45 0.5 39.5 0.5 39.5 0.5 39.5 0.5 39.5Z" stroke="#000000" stroke-width="3" stroke-linecap="square"/><text id="Waterfall-retreats-u" font-family="Helvetica Neue" font-size="24" font-weight="lighter" fill="#000000"><tspan x="182.5" y="23.3837891">Waterfall retreats upstream</tspan></text></g><path d="M226.5 107.5L504.544952 107.5" id="Line" stroke-opacity="0.4" stroke="#F6F6F6" stroke-width="3" stroke-linecap="square"/><path id="Line-decoration-1" d="M504.5 107.5C500.72 106.45 497.48 105.55 493.7 104.5 493.7 106.6 493.7 108.4 493.7 110.5 497.48 109.45 500.72 108.55 504.5 107.5 504.5 107.5 504.5 107.5 504.5 107.5Z" stroke-opacity="0.4" stroke="#F6F6F6" stroke-width="3" stroke-linecap="square"/></g></svg>