---
---
<svg xmlns="http://www.w3.org/2000/svg" width="1154px" height="587px" viewBox="0 0 1154 587" version="1.1"><title>Water Balance Graph</title><description>Created with Sketch (http://www.bohemiancoding.com/sketch)</description>{% include svg-diagram-style.svg %}{% include svg-diagram-style.svg %}<g id="Page-1" stroke="none" stroke-width="1" fill="none" fill-rule="evenodd"><g id="Axis-Labels" transform="translate(-5.000000, -4.000000)" fill="#000000"><text id="120"><tspan x="47" y="23">120</tspan></text><text id="100"><tspan x="47" y="107">100</tspan></text><text id="80"><tspan x="54" y="191">80</tspan></text><text id="60"><tspan x="54" y="275">60</tspan></text><text id="40"><tspan x="54" y="359">40</tspan></text><text id="20"><tspan x="54" y="443">20</tspan></text><text id="0"><tspan x="74" y="526.484009">0</tspan></text><text id="Jan"><tspan x="81" y="556">Jan</tspan></text><text id="Feb"><tspan x="154.5" y="556">Feb</tspan></text><text id="Mar"><tspan x="244.5" y="556">Mar</tspan></text><text id="Apr"><tspan x="334.5" y="556">Apr</tspan></text><text id="May"><tspan x="421.5" y="556">May</tspan></text><text id="Jun"><tspan x="515.5" y="556">Jun</tspan></text><text id="Jul"><tspan x="603.5" y="556">Jul</tspan></text><text id="Aug"><tspan x="683.5" y="556">Aug</tspan></text><text id="Sept"><tspan x="775.5" y="556">Sept</tspan></text><text id="Oct"><tspan x="874.5" y="556">Oct</tspan></text><text id="Nov"><tspan x="962.5" y="556">Nov</tspan></text><text id="Dec"><tspan x="1054.5" y="556">Dec</tspan></text><text id="Month"><tspan x="588" y="590">Month</tspan></text><text id="Evapotranspiration-/" transform="translate(14.500000, 301.500000) rotate(-90.000000) translate(-14.500000, -301.500000) "><tspan x="-185.5" y="310">Evapotranspiration / </tspan><tspan x="28.316" y="310">Precipitation</tspan><tspan x="155.468" y="310"> (mm)</tspan></text></g><path d="M90 185C90 185 155.080163 185.706999 230.968458 209.000161 282.670204 224.869501 337.20577 250.393039 382 282 383.212396 282.855471 385.897239 283.37968 386 285 386.276068 289.353021 381.243312 292.476834 375 301 364.393345 315.479862 348.461088 336.67854 329 356 306.818864 378.02199 280.647516 398.012591 263 410 217.362727 440.999976 90 445 90 445L90 185Z" id="Surplus" fill="#00FF7C"/><path d="M392 284.000002C392 284.000002 443 218 456 200 469 182 481.09756 168.953095 489 161 501.45687 148.463279 518.470651 137.137845 533 130 547.673814 122.791183 559.817591 119.828165 563 119 564.575993 118.589876 566 118.000001 576 117 586 116 585.220425 116.756179 590 117 593.007124 117.153402 602.143141 118.528005 604 119 610.672568 120.696101 616 122 616 122L617 412.999987C617 412.999987 609.833053 412.545684 598 409.999987 585.768152 407.368495 571.719471 399.586221 563 395.999987 538.821328 386.055534 496 359 496 359L392 284.000002Z" id="Utilisation" fill="#FAFF6F"/><path d="M616 122C616 122 641.8825 131.38019 663 146 676 155 684 162 695 173 698.649032 176.649033 719.148376 199.130278 739 227 748.41385 240.216118 752.79588 247.279833 768 269 775 279 788 301 799 319 810 337 824 354 824 354 824 354 806.065097 364.011772 789 372 778.357554 376.981762 738.334619 396.024085 709 403 701.414392 404.803895 701.432627 405.960913 689 409 676.567373 412.039086 671.063486 413.254525 664 414 637.967527 416.747445 617 413 617 413L616 122Z" id="Deficit" fill="#FF0000"/><path d="M946 279C995 242 1063 183 1063 183L1063 441C1063 441 995 437.999998 932 416 902.268052 405.617415 876.699789 392.068957 859 380 839.195127 366.495646 829 355 829 355 829 355 897 316 946 279Z" id="Recharge" fill="#4100FF"/><path d="M1059.5 184C1059.5 184 896 335 753 389 690.947561 412.432387 675.699746 416 644 416 588 416.000002 573.695817 403.065943 539 385 489.353574 359.149341 438.42697 317.817287 393 288 340.971006 253.849282 356 260 276 223 262.363391 216.693069 209.617236 200.688727 164 192 125.488294 184.664665 92 184 92 184" id="Precipitation-Line" stroke="#209700" stroke-width="3" stroke-linecap="square" stroke-dasharray="5"/><path d="M91.5 443.5C91.5 443.5 134.378282 444.239822 178 438.000001 203.421533 434.363606 228.590139 425.891157 247 420.000001 253.623264 417.880551 295.427281 391.38956 328 358.999996 360.217643 326.963509 415.188932 248.069253 425 237.999999 437.947171 224.712114 460.991529 182.852996 494 154.000001 524.607151 127.24602 564.815817 112.798146 588 114.999996 641.416608 120.073083 685.422011 154.806343 721 200.000003 758 247.000003 795.612045 310.451484 804 324.000003 821.186895 351.760881 845.512649 375.972174 874 391.999988 960.610652 440.729663 1061 443.500001 1061 443.500001" id="Evapotranspiration-Line" stroke="#FF8D00" stroke-width="3" stroke-linecap="square" stroke-dasharray="5"/><path d="M90 2.5L90 526.500977 90 527.500977 92 527.500977 92 526.500977 92 2.5 92 1.5 90 1.5 90 2.5ZM1151.5 526L93.2500296 526 92.2500296 526 92.2500296 528 93.2500296 528 1151.5 528 1152.5 528 1152.5 526 1151.5 526Z" id="Axis" stroke="#000000" stroke-width="2" stroke-linecap="square"/><g id="Labels" transform="translate(109.000000, 36.000000)"><text id="Precipitation" fill="#000000"><tspan x="149" y="23">Precipitation</tspan></text><text id="Evapotranspiration" fill="#000000"><tspan x="624" y="23">Evapotranspiration</tspan></text><text id="Ground-water-deficit" fill="#FFFFFF"><tspan x="541.346" y="225">Ground </tspan><tspan x="517.79" y="254">water deficit</tspan></text><path d="M194.5 42.5L149.5 170.5" id="Line" stroke="#000000" stroke-width="3" stroke-linecap="square"/><path id="Line-decoration-1" d="M149.725453 169.858712C151.969708 166.640915 153.893355 163.882803 156.13761 160.665005 154.156475 159.968512 152.458358 159.371518 150.477223 158.675025 150.214103 162.589316 149.988572 165.944422 149.725453 169.858712 149.725453 169.858712 149.725453 169.858712 149.725453 169.858712Z" stroke="#000000" stroke-width="3" stroke-linecap="square"/><path d="M709.5 34.5L607.5 146.5" id="Line" stroke="#000000" stroke-width="3" stroke-linecap="square"/><path id="Line-decoration-1" d="M607.827223 146.140696C611.148718 144.052979 613.995715 142.263506 617.31721 140.175788 615.764591 138.761796 614.433775 137.549802 612.881156 136.13581 611.112279 139.63752 609.596099 142.638986 607.827223 146.140696 607.827223 146.140696 607.827223 146.140696 607.827223 146.140696Z" stroke="#000000" stroke-width="3" stroke-linecap="square"/><text id="Ground-water-surplus" fill="#000000"><tspan x="33.58" y="260.691895">Ground water </tspan><tspan x="67.18" y="289.691895">surplus</tspan></text><text id="Ground-water-utilisa" fill="#000000"><tspan x="341.58" y="225">Ground water </tspan><tspan x="364.956" y="254">utilisation</tspan></text><text id="Ground-water-recharg" fill="#FFFFFF"><tspan x="801.83" y="313.191895">Ground water </tspan><tspan x="827.378" y="342.191895">recharge</tspan></text></g></g></svg>