---
---
<svg xmlns="http://www.w3.org/2000/svg" xmlns:xlink="http://www.w3.org/1999/xlink" width="1140px" height="323px" viewBox="0 0 1140 323" version="1.1"><title>Wing Dykes</title><description>Created with Sketch (http://www.bohemiancoding.com/sketch)</description>{% include svg-diagram-style.svg %}<defs><filter x="-20%" y="-20%" width="140%" height="140%" filterUnits="objectBoundingBox" id="filter-1"><feOffset dx="0" dy="1" in="SourceAlpha" result="shadowOffsetInner1"/><feGaussianBlur stdDeviation="1.5" in="shadowOffsetInner1" result="shadowBlurInner1"/><feComposite in="shadowBlurInner1" in2="SourceAlpha" operator="arithmetic" k2="-1" k3="1" result="shadowInnerInner1"/><feColorMatrix values="0 0 0 0 0   0 0 0 0 0   0 0 0 0 0  0 0 0 0.7 0" in="shadowInnerInner1" type="matrix" result="shadowMatrixInner1"/><feMerge><feMergeNode in="SourceGraphic"/><feMergeNode in="shadowMatrixInner1"/></feMerge></filter><filter x="-20%" y="-20%" width="140%" height="140%" filterUnits="objectBoundingBox" id="filter-2"><feOffset dx="-2" dy="0" in="SourceAlpha" result="shadowOffsetOuter1"/><feGaussianBlur stdDeviation="1" in="shadowOffsetOuter1" result="shadowBlurOuter1"/><feColorMatrix values="0 0 0 0 0   0 0 0 0 0   0 0 0 0 0  0 0 0 0.7 0" in="shadowBlurOuter1" type="matrix" result="shadowMatrixOuter1"/><feMerge><feMergeNode in="shadowMatrixOuter1"/><feMergeNode in="SourceGraphic"/></feMerge></filter><rect id="path-3" x="0" y="0" width="32" height="71"/></defs><g id="Page-1" stroke="none" stroke-width="1" fill="none" fill-rule="evenodd"><g id="River-banks-+-River-Channel" transform="translate(1.000000, 7.000000)"><rect id="River-banks" fill="#668D3C" x="0" y="0" width="1140" height="213"/><rect id="River-Channel" fill="#09738A" filter="url(#filter-1)" x="0" y="16" width="1140" height="177"/></g><path d="M342.993245 24C338.578698 24 335 27.5735893 335 31.9985496L335 76.0014504C335 80.4189274 338.587559 84 342.993245 84L372.006755 84C376.421302 84 380 80.4264107 380 76.0014504L380 31.9985496C380 27.5810726 376.412441 24 372.006755 24L342.993245 24ZM342.993245 130C338.578698 130 335 133.588481 335 137.999471L335 191.000529C335 195.418515 338.587559 199 342.993245 199L372.006755 199C376.421302 199 380 195.411519 380 191.000529L380 137.999471C380 133.581485 376.412441 130 372.006755 130L342.993245 130ZM486.993245 24C482.578698 24 479 27.5735893 479 31.9985496L479 76.0014504C479 80.4189274 482.587559 84 486.993245 84L516.006755 84C520.421302 84 524 80.4264107 524 76.0014504L524 31.9985496C524 27.5810726 520.412441 24 516.006755 24L486.993245 24ZM486.993245 130C482.578698 130 479 133.588481 479 137.999471L479 191.000529C479 195.418515 482.587559 199 486.993245 199L516.006755 199C520.421302 199 524 195.411519 524 191.000529L524 137.999471C524 133.581485 520.412441 130 516.006755 130L486.993245 130ZM656.993245 24C652.578698 24 649 27.5735893 649 31.9985496L649 76.0014504C649 80.4189274 652.587559 84 656.993245 84L686.006755 84C690.421302 84 694 80.4264107 694 76.0014504L694 31.9985496C694 27.5810726 690.412441 24 686.006755 24L656.993245 24ZM656.993245 130C652.578698 130 649 133.588481 649 137.999471L649 191.000529C649 195.418515 652.587559 199 656.993245 199L686.006755 199C690.421302 199 694 195.411519 694 191.000529L694 137.999471C694 133.581485 690.412441 130 686.006755 130L656.993245 130Z" id="Rectangle-9" fill="#C8A87A"/><path d="M373 24L373 86 405 86 405 24 373 24ZM373 128L373 199 405 199 405 128 373 128ZM520 24L520 86 552 86 552 24 520 24ZM520 128L520 199 552 199 552 128 520 128ZM686 24L686 86 718 86 718 24 686 24ZM686 128L686 199 718 199 718 128 686 128Z" id="Wing-Dykes" fill="#855723" filter="url(#filter-2)"/><g id="labels" transform="translate(1.000000, 244.000000)"><g id="Dyke-Legend"><use fill="#855723" fill-rule="evenodd" xlink:href="#path-3"/><use fill="none" xlink:href="#path-3"/><use fill="none" xlink:href="#path-3"/></g><text id="Wing-Dyke"  fill="#000000"><tspan x="39.152" y="43">Wing Dyke</tspan></text><rect id="Sediment" fill="#C8A87A" x="158" y="0" width="45" height="69" rx="8"/><text id="Sediment"  fill="#000000"><tspan x="210.384" y="43">Sediment</tspan></text></g><path d="M62.5 113.5L371.525879 113.5" id="Flow-Line" stroke-opacity="0.7" stroke="#D4D4D4" stroke-width="3" stroke-linecap="square"/><path id="Flow-Line-decoration-1" d="M371.5 113.5C367.72 112.45 364.48 111.55 360.7 110.5 360.7 112.6 360.7 114.4 360.7 116.5 364.48 115.45 367.72 114.55 371.5 113.5 371.5 113.5 371.5 113.5 371.5 113.5Z" stroke-opacity="0.7" stroke="#D4D4D4" stroke-width="3" stroke-linecap="square"/><path d="M546.5 114.722222L855.5 114.223802" id="Flow-Line" stroke-opacity="0.79" stroke="#D4D4D4" stroke-width="3" stroke-linecap="square"/><path id="Flow-Line-decoration-1" d="M855.499603 114.223803C851.717914 113.179902 848.476467 112.285129 844.694778 111.241227 844.698165 113.341225 844.701069 115.141222 844.704456 117.24122 848.482758 116.185124 851.721302 115.279899 855.499603 114.223803 855.499603 114.223803 855.499603 114.223803 855.499603 114.223803Z" stroke-opacity="0.79" stroke="#D4D4D4" stroke-width="3" stroke-linecap="square"/></g></svg>