---
---
<svg width="1140" height="447" viewBox="0 0 1140 447" xmlns="http://www.w3.org/2000/svg" xmlns:sketch="http://www.bohemiancoding.com/sketch/ns"><title>sand-dune-succession</title>{% include svg-diagram-style.svg %}<defs><linearGradient x1="100%" y1="50%" x2="0%" y2="50%" id="a"><stop stop-color="#09738A" offset="0%"/><stop stop-color="#092B5A" offset="100%"/></linearGradient><linearGradient x1="0%" y1="50%" y2="50%" id="b"><stop stop-color="#C8A87A" offset="0%"/><stop stop-color="#C8A87A" offset="32.34%"/><stop stop-color="#A39B8F" offset="79.508%"/><stop stop-color="#725F44" offset="100%"/></linearGradient></defs><g sketch:type="MSPage" fill="none"><g sketch:type="MSLayerGroup" fill="#668D3C"><path d="M241.464 188.964v-5.232h-4v6.964l-3.518-6.093-3.464 2 6.5 11.258 1.956-1.129h.053l1.956 1.129 6.5-11.258-3.464-2-2.518 4.361zM255.464 188.964v-5.232h-4v6.964l-3.518-6.093-3.464 2 6.5 11.258 1.956-1.129h.053l1.956 1.129 6.5-11.258-3.464-2-2.518 4.361z" id="grass" sketch:type="MSShapeGroup"/></g><g sketch:type="MSLayerGroup" fill="#668D3C"><path d="M417.464 170.964v-5.232h-4v6.964l-3.518-6.093-3.464 2 6.5 11.258 1.956-1.129h.053l1.956 1.129 6.5-11.258-3.464-2-2.518 4.361zM433.464 171.964v-5.232h-4v6.964l-3.518-6.093-3.464 2 6.5 11.258 1.956-1.129h.053l1.956 1.129 6.5-11.258-3.464-2-2.518 4.361zM404.464 175.964v-5.232h-4v6.964l-3.518-6.093-3.464 2 6.5 11.258 1.956-1.129h.053l1.956 1.129 6.5-11.258-3.464-2-2.518 4.361zM448.464 177.964v-5.232h-4v6.964l-3.518-6.093-3.464 2 6.5 11.258 1.956-1.129h.053l1.956 1.129 6.5-11.258-3.464-2-2.518 4.361z" id="grass" sketch:type="MSShapeGroup"/></g><g sketch:type="MSLayerGroup"><g transform="translate(1008 118) translate(63 12)" sketch:type="MSShapeGroup"><path id="Rectangle-3" fill="#725F44" d="M10 14h15v46h-15z"/><circle id="Oval-1" fill="#668D3C" cx="8.5" cy="17.5" r="8.5"/><circle id="Oval-2" fill="#668D3C" cx="18.5" cy="8.5" r="8.5"/><circle id="Oval-3" fill="#668D3C" cx="26.5" cy="17.5" r="8.5"/><circle id="Oval-5" fill="#668D3C" cx="9.5" cy="8.5" r="8.5"/><circle id="Oval-4" fill="#668D3C" cx="29.5" cy="8.5" r="8.5"/></g><g transform="translate(1008 118) translate(93)" sketch:type="MSShapeGroup"><path id="Rectangle-3" fill="#725F44" d="M10 14h15v46h-15z"/><circle id="Oval-1" fill="#668D3C" cx="8.5" cy="17.5" r="8.5"/><circle id="Oval-2" fill="#668D3C" cx="18.5" cy="8.5" r="8.5"/><circle id="Oval-3" fill="#668D3C" cx="26.5" cy="17.5" r="8.5"/><circle id="Oval-5" fill="#668D3C" cx="9.5" cy="8.5" r="8.5"/><circle id="Oval-4" fill="#668D3C" cx="29.5" cy="8.5" r="8.5"/></g><g transform="translate(1008 118) translate(39 30)" sketch:type="MSShapeGroup"><path fill="#725F44" d="M10 14h15v46h-15z"/><circle fill="#668D3C" cx="8.5" cy="17.5" r="8.5"/><circle fill="#668D3C" cx="18.5" cy="8.5" r="8.5"/><circle fill="#668D3C" cx="26.5" cy="17.5" r="8.5"/><circle fill="#668D3C" cx="9.5" cy="8.5" r="8.5"/><circle fill="#668D3C" cx="29.5" cy="8.5" r="8.5"/></g><g transform="translate(1008 118) translate(0 57)" stroke="#5A7D34" fill="#668D3C" sketch:type="MSShapeGroup"><circle cx="13.5" cy="17.5" r="8.5"/><circle cx="25.5" cy="13.5" r="8.5"/><circle cx="34.5" cy="25.5" r="8.5"/><circle cx="22.5" cy="29.5" r="8.5"/><circle cx="8.5" cy="29.5" r="8.5"/><circle cx="22.5" cy="8.5" r="8.5"/><circle cx="39.5" cy="12.5" r="8.5"/></g></g><g sketch:type="MSLayerGroup" fill="#668D3C"><path d="M617.464 132.964v-5.232h-4v6.964l-3.518-6.093-3.464 2 6.5 11.258 1.956-1.129h.053l1.956 1.129 6.5-11.258-3.464-2-2.518 4.361zM633.768 142.902l2.616-4.531-3.464-2-3.482 6.031v-7.036h-4v13h2.258l.046.026 1.129 1.956 11.258-6.5-2-3.464-4.361 2.518zM577.41 139.188l-2.616-4.531-3.464 2 3.482 6.031-6.093-3.518-2 3.464 11.258 6.5 1.129-1.956.046-.026h2.258v-13h-4v5.036zM556.732 151.688l-2.616-4.531-3.464 2 3.482 6.031-6.093-3.518-2 3.464 11.258 6.5 1.129-1.956.046-.026h2.258v-13h-4v5.036zM527.863 176.215l-3.699-3.699-2.828 2.828 4.924 4.924-6.795-1.821-1.035 3.863 12.555 3.364.584-2.181.037-.037 2.181-.584-3.364-12.555-3.863 1.035 1.303 4.864zM540.364 165.216l-3.699-3.699-2.828 2.828 4.924 4.924-6.795-1.821-1.035 3.863 12.555 3.364.584-2.181.037-.037 2.181-.584-3.364-12.555-3.863 1.035 1.303 4.864zM598.627 133.369l-1.355-5.054-3.864 1.036 1.804 6.727-4.976-4.975-2.828 2.829 9.195 9.192 1.597-1.597.051-.014 2.182.584 3.363-12.559-3.864-1.035-1.303 4.865zM658.768 155.902l2.616-4.531-3.464-2-3.482 6.031v-7.036h-4v13h2.258l.046.026 1.129 1.956 11.258-6.5-2-3.464-4.361 2.518z" id="grass" sketch:type="MSShapeGroup"/></g><g sketch:type="MSLayerGroup" fill="#668D3C"><path d="M852.464 122.964v-5.232h-4v6.964l-3.518-6.093-3.464 2 6.5 11.258 1.956-1.129h.053l1.956 1.129 6.5-11.258-3.464-2-2.518 4.361zM868.768 126.902l2.616-4.531-3.464-2-3.482 6.031v-7.036h-4v13h2.258l.046.026 1.129 1.956 11.258-6.5-2-3.464-4.361 2.518zM835.948 125.119l-1.355-5.054-3.864 1.036 1.804 6.727-4.976-4.975-2.828 2.829 9.195 9.192 1.597-1.597.051-.014 2.182.584 3.363-12.559-3.864-1.035-1.303 4.865zM820.948 133.119l-1.355-5.054-3.864 1.036 1.804 6.727-4.976-4.975-2.828 2.829 9.195 9.192 1.597-1.597.051-.014 2.182.584 3.363-12.559-3.864-1.035-1.303 4.865zM806.364 138.966l-3.699-3.699-2.828 2.828 4.924 4.924-6.795-1.821-1.035 3.863 12.555 3.364.584-2.181.037-.037 2.181-.584-3.364-12.555-3.863 1.035 1.303 4.864zM797.232 151.438l-2.616-4.531-3.464 2 3.482 6.031-6.093-3.518-2 3.464 11.258 6.5 1.129-1.956.046-.026h2.258v-13h-4v5.036zM784.134 161.196l-4.531-2.616-2 3.464 6.031 3.482h-7.036v4h13v-2.258l.026-.046 1.956-1.129-6.5-11.258-3.464 2 2.518 4.361zM774.914 174.006l-5.054-1.355-1.036 3.864 6.727 1.804-6.797 1.82 1.035 3.864 12.559-3.363-.584-2.182.014-.051 1.597-1.597-9.192-9.195-2.829 2.828 3.561 3.562zM882.768 135.902l2.616-4.531-3.464-2-3.482 6.031v-7.036h-4v13h2.258l.046.026 1.129 1.956 11.258-6.5-2-3.464-4.361 2.518zM897.768 145.902l2.616-4.531-3.464-2-3.482 6.031v-7.036h-4v13h2.258l.046.026 1.129 1.956 11.258-6.5-2-3.464-4.361 2.518zM911.535 159.863l3.699-3.699-2.828-2.828-4.924 4.924 1.821-6.795-3.863-1.035-3.364 12.555 2.181.584.037.037.584 2.181 12.555-3.364-1.035-3.863-4.864 1.303zM925.535 170.864l3.699-3.699-2.828-2.828-4.924 4.924 1.821-6.795-3.863-1.035-3.364 12.555 2.181.584.037.037.584 2.181 12.555-3.364-1.035-3.863-4.864 1.303zM943.1 180.89l2.616-4.531-3.464-2-3.482 6.031v-7.036h-4v13h2.258l.046.026 1.129 1.956 11.258-6.5-2-3.464-4.361 2.518zM961.432 190.617l2.616-4.531-3.464-2-3.482 6.031v-7.036h-4v13h2.258l.046.026 1.129 1.956 11.258-6.5-2-3.464-4.361 2.518zM980.072 195.797l1.355-5.054-3.864-1.036-1.804 6.727-1.82-6.797-3.864 1.035 3.363 12.559 2.182-.584.051.014 1.597 1.597 9.195-9.192-2.828-2.829-3.562 3.561z" id="grass" sketch:type="MSShapeGroup"/></g><g sketch:type="MSLayerGroup" fill="#668D3C"><path d="M732.745 207.914l1.355-5.054-3.864-1.036-1.804 6.727-1.82-6.797-3.864 1.035 3.363 12.559 2.182-.584.051.014 1.597 1.597 9.195-9.192-2.828-2.829-3.562 3.561zM750.232 206.438l-2.616-4.531-3.464 2 3.482 6.031-6.093-3.518-2 3.464 11.258 6.5 1.129-1.956.046-.026h2.258v-13h-4v5.036zM764.232 191.438l-2.616-4.531-3.464 2 3.482 6.031-6.093-3.518-2 3.464 11.258 6.5 1.129-1.956.046-.026h2.258v-13h-4v5.036zM712.59 195.902l2.616-4.531-3.464-2-3.482 6.031v-7.036h-4v13h2.258l.046.026 1.129 1.956 11.258-6.5-2-3.464-4.361 2.518zM698.768 184.902l2.616-4.531-3.464-2-3.482 6.031v-7.036h-4v13h2.258l.046.026 1.129 1.956 11.258-6.5-2-3.464-4.361 2.518z" sketch:type="MSShapeGroup"/></g><path d="M753.738 203.23c-1.157-.854-24.628 4.382-30.401 0s-237.384-.301-276.713 2.682c-125.89 9.547-174.847 15.552-279.755 0-26.46-3.923-62.053 7.231-82.744 6.518-61.343-2.116-84.125-6.518-84.125-6.518v105.088h1140v-105.088s-380.648 1.464-386.262-2.682z" fill-opacity=".9" fill="url(#a)" sketch:type="MSShapeGroup"/><path d="M228.5 196h-228.107" id="Line" stroke="#2A6FB3" stroke-width="2" stroke-linecap="square" stroke-dasharray="5" sketch:type="MSShapeGroup"/><path d="M997.031 204.523c-72.508 0-112.312-75.516-141.656-75.516-63.398 0-88.211 89.859-113.891 89.859-23.609 0-101.476-79.436-129.805-79.586-63.14-.333-83.469 63.242-112.531 63.242-29.063 0-63.57-25.422-76.133-25.422-26.359 0-35.656 27.422-73.656 27.422-28.617 0-52.617 0-96.367-9.031-22.99-4.746-8.758-1.039-93.68 18.508-84.922 19.547-159.313 0-159.313 0v228h1140v-302.719s-70.461 65.242-142.969 65.242z" fill="url(#b)" sketch:type="MSShapeGroup"/><g sketch:type="MSLayerGroup" stroke="#333" stroke-linecap="square" stroke-dasharray="5"><path d="M334.5 58.5v381.021" sketch:type="MSShapeGroup"/><path d="M686.5 57.5v381.033" sketch:type="MSShapeGroup"/><path d="M785.5 57.5v381.033" sketch:type="MSShapeGroup"/><path d="M972.5 58.5v380.021" sketch:type="MSShapeGroup"/></g><g sketch:type="MSLayerGroup" stroke="#000" stroke-linecap="square"><path d="M182.5 30.5v15.133" id="Line" sketch:type="MSShapeGroup"/><path d="M685.5 30.5v15.133" sketch:type="MSShapeGroup"/><path d="M684.5 30.5h-502.003" id="Line" sketch:type="MSShapeGroup"/></g><g sketch:type="MSLayerGroup" stroke="#000" stroke-linecap="square"><path d="M784.5 29.5h190M784.5 30v15.529" sketch:type="MSShapeGroup"/><path d="M975.5 29.555v15.945" sketch:type="MSShapeGroup"/></g><g sketch:type="MSLayerGroup" font-weight="260" font-family="Lato" fill="#000" font-size="24"><text sketch:type="MSTextLayer" sketch:alignment="middle" transform="translate(39)"><tspan x="139.266" y="83">Embryo Dune</tspan><tspan x="167.712" y="112" font-style="italic">pH ≈ 8.5</tspan></text><text sketch:type="MSTextLayer" sketch:alignment="middle" transform="translate(39)"><tspan x="355.798" y="83">Foredune/Yellow Dune</tspan><tspan x="431.212" y="112" font-style="italic">pH</tspan><tspan x="464.656" y="112" font-style="italic">≈ 7.5</tspan></text><text sketch:type="MSTextLayer" sketch:alignment="middle" transform="translate(39)"><tspan x="788.334" y="83">Grey Dune</tspan></text><text sketch:type="MSTextLayer" sketch:alignment="middle" transform="translate(39)"><tspan x="995.448" y="83">Climax</tspan><tspan x="988.212" y="112" font-style="italic">pH</tspan><tspan x="1021.656" y="112" font-style="italic">≈ 6.0</tspan></text><text sketch:type="MSTextLayer" transform="translate(39)"><tspan x="347" y="24">Mobile Dunes</tspan></text><text sketch:type="MSTextLayer" transform="translate(39)"><tspan x="788" y="24">Fixed Dune</tspan></text><text sketch:type="MSTextLayer" sketch:alignment="middle" transform="translate(39)"><tspan x="668.84" y="77">Ridge</tspan><tspan x="671.678" y="106">Slack</tspan></text><text sketch:type="MSTextLayer" transform="translate(39)"><tspan x="0" y="186">High Water Mark</tspan></text></g></g></svg>