---
---
<svg xmlns="http://www.w3.org/2000/svg" width="1156px" height="392px" viewBox="0 0 1156 392" version="1.1"><title>Coastal Outline</title><description>Created with Sketch (http://www.bohemiancoding.com/sketch)</description>{% include svg-diagram-style.svg %}<g id="Page-1" stroke="none" stroke-width="1" fill="none" fill-rule="evenodd"><path d="M1146 284L330.5 284" id="LW-Mark" stroke="#4A4A4A" stroke-width="2" stroke-linecap="square"/><path d="M178 252L580.182693 252 1148 252" id="HW-Mark" stroke="#4A4A4A" stroke-width="2" stroke-linecap="square" transform="translate(662.500000, 253.000000) scale(1, -1) translate(-662.500000, -253.000000) "/><path d="M131 197L1091 375.927886 723.399757 379.847754 146.44992 386 131 197Z" id="Beach" fill="#F3C363"/><path d="M114.12738 31.5612717C114.12738 31.5612717 121.701143 263.39489 211.360776 298.230002 301.020412 333.065114 730.959495 322.970995 834.353965 333.380883 914.652101 341.465403 1128.77945 376.226467 1128.77945 376.226467L1147 391.999997 3 392 3 31.5612717 114.12738 31.5612717Z" id="Ground" fill="#7B5C47"/><path d="M444.5 31.5L581.5 31.25" id="Foreshore-Area" stroke="#000000" stroke-width="3" stroke-linecap="square"/><path id="Foreshore-Area-decoration-1" d="M581.499771 31.2500004C577.717861 30.2069 574.476224 29.3128139 570.694315 28.2697134 570.698147 30.3697099 570.701431 32.1697069 570.705264 34.2697034 574.483341 33.2128074 577.721693 32.3068965 581.499771 31.2500004 581.499771 31.2500004 581.499771 31.2500004 581.499771 31.2500004Z" stroke="#000000" stroke-width="3" stroke-linecap="square"/><path id="Foreshore-Area-decoration-2" d="M445.299999 31.4985401C449.078076 30.4416441 452.316429 29.5357332 456.094506 28.4788371 456.098338 30.5788337 456.101623 32.3788307 456.105455 34.4788272 452.323545 33.4357267 449.081908 32.5416406 445.299999 31.4985401 445.299999 31.4985401 445.299999 31.4985401 445.299999 31.4985401Z" stroke="#000000" stroke-width="3" stroke-linecap="square"/><path d="M420.5 31.5L131.492278 31.5" id="Backshore-Area" stroke="#000000" stroke-width="3" stroke-linecap="square"/><path id="Backshore-Area-decoration-1" d="M131.499999 31.5C135.279999 32.55 138.519999 33.45 142.3 34.5 142.299999 32.4 142.299999 30.6 142.299999 28.5 138.519999 29.55 135.279999 30.45 131.499999 31.5 131.499999 31.5 131.499999 31.5 131.499999 31.5Z" stroke="#000000" stroke-width="3" stroke-linecap="square"/><path id="Backshore-Area-decoration-2" d="M419.7 31.5C415.92 32.55 412.68 33.45 408.9 34.5 408.9 32.4 408.9 30.6 408.9 28.5 412.68 29.55 415.92 30.45 419.7 31.5 419.7 31.5 419.7 31.5 419.7 31.5Z" stroke="#000000" stroke-width="3" stroke-linecap="square"/><path d="M607.5 31.5L890.5 31.75" id="Inshore-Area" stroke="#000000" stroke-width="3" stroke-linecap="square"/><path id="Inshore-Area-decoration-1" d="M890.499878 31.7499999C886.720807 30.6966611 883.481604 29.7937992 879.702533 28.7404604 879.700678 30.8404596 879.699088 32.6404589 879.697232 34.7404581 883.478158 33.6937977 886.718952 32.7966603 890.499878 31.7499999 890.499878 31.7499999 890.499878 31.7499999 890.499878 31.7499999Z" stroke="#000000" stroke-width="3" stroke-linecap="square"/><path id="Inshore-Area-decoration-2" d="M608.3 31.5007067C612.080926 30.4540463 615.321719 29.5569089 619.102645 28.5102485 619.10079 30.6102477 619.0992 32.410247 619.097345 34.5102462 615.318274 33.4569074 612.07907 32.5540455 608.3 31.5007067 608.3 31.5007067 608.3 31.5007067 608.3 31.5007067Z" stroke="#000000" stroke-width="3" stroke-linecap="square"/><path d="M916.5 31.5L1146.5 31" id="Line" stroke="#000000" stroke-width="3" stroke-linecap="square"/><path id="Line-decoration-1" d="M1146.49945 31.0000012C1142.71718 29.958221 1139.47523 29.0652666 1135.69295 28.0234865 1135.69752 30.1234815 1135.70143 31.9234773 1135.706 34.0234723 1139.48371 32.9652574 1142.72174 32.0582161 1146.49945 31.0000012 1146.49945 31.0000012 1146.49945 31.0000012 1146.49945 31.0000012Z" stroke="#000000" stroke-width="3" stroke-linecap="square"/><path id="Line-decoration-2" d="M917.299998 31.4982609C921.077706 30.440046 924.315742 29.5330046 928.093451 28.4747898 928.098016 30.5747848 928.101929 32.3747805 928.106494 34.4747756 924.32422 33.4329954 921.082272 32.540041 917.299998 31.4982609 917.299998 31.4982609 917.299998 31.4982609 917.299998 31.4982609Z" stroke="#000000" stroke-width="3" stroke-linecap="square"/><path d="M902.5 31.0760613L902.5 391" id="Offshore/Inshore" stroke="#979797" stroke-width="3" stroke-linecap="square" stroke-dasharray="7"/><path d="M593.5 31.0779629L593.5 391.001902" id="Foreshore/Inshore" stroke="#979797" stroke-width="3" stroke-linecap="square" stroke-dasharray="7"/><path d="M431.5 31.4942194L431.5 390.574153" id="Backshore/Foreshore" stroke="#979797" stroke-width="3" stroke-linecap="square" stroke-dasharray="7"/><g id="labels" transform="translate(37.000000, 2.000000)"><text id="Backshore" fill="#000000"><tspan x="183.86" y="23">Backshore</tspan></text><text id="Foreshore" fill="#000000"><tspan x="424.412" y="23">Foreshore</tspan></text><text id="Inshore" fill="#000000"><tspan x="673.5" y="23">Inshore</tspan></text><text id="Offshore" fill="#000000"><tspan x="950.5" y="23">Offshore</tspan></text><text id="High-Water-Mark" font-style="italic" fill="#9B9B9B"><tspan x="936" y="245">High Water Mark</tspan></text><text id="Low-Water-Mark" font-style="italic" fill="#9B9B9B"><tspan x="939" y="307">Low Water Mark</tspan></text><text id="Beach" fill="#FFFFFF"><tspan x="228" y="284">Beach</tspan></text><text id="Cliff" fill="#FFFFFF"><tspan x="0" y="83">Cliff</tspan></text></g></g></svg>