<svg xmlns="http://www.w3.org/2000/svg" width="1149" height="386" viewBox="0" version="1.1"><title>Coastal Outline</title><description>Created with Sketch (http://www.bohemiancoding.com/sketch)</description><g stroke="none" stroke-width="1" fill="none" fill-rule="evenodd"><path d="M1143 278L327.5 278" stroke="#4A4A4A" stroke-width="2" stroke-linecap="square"/><path d="M175 246L577.2 246 1145 246" stroke="#4A4A4A" stroke-width="2" stroke-linecap="square" transform="translate(659.500000, 247.000000) scale(1, -1) translate(-659.500000, -247.000000) "/><path d="M128 191L1088 369.9 720.4 373.8 143.4 380 128 191Z" fill="#F3C363"/><path d="M111.1 25.6C111.1 25.6 118.7 257.4 208.4 292.2 298 327.1 728 317 831.4 327.4 911.7 335.5 1125.8 370.2 1125.8 370.2L1144 386 0 386 0 25.6 111.1 25.6Z" fill="#7B5C47"/><path d="M441.5 25.5L578.5 25.3" stroke="#000000" stroke-width="3" stroke-linecap="square"/><path d="M578.5 25.3C574.7 24.2 571.5 23.3 567.7 22.3 567.7 24.4 567.7 26.2 567.7 28.3 571.5 27.2 574.7 26.3 578.5 25.3 578.5 25.3 578.5 25.3 578.5 25.3Z" stroke="#000000" stroke-width="3" stroke-linecap="square"/><path d="M442.3 25.5C446.1 24.4 449.3 23.5 453.1 22.5 453.1 24.6 453.1 26.4 453.1 28.5 449.3 27.4 446.1 26.5 442.3 25.5 442.3 25.5 442.3 25.5 442.3 25.5Z" stroke="#000000" stroke-width="3" stroke-linecap="square"/><path d="M417.5 25.5L128.5 25.5" stroke="#000000" stroke-width="3" stroke-linecap="square"/><path d="M128.5 25.5C132.3 26.6 135.5 27.5 139.3 28.5 139.3 26.4 139.3 24.6 139.3 22.5 135.5 23.6 132.3 24.5 128.5 25.5 128.5 25.5 128.5 25.5 128.5 25.5Z" stroke="#000000" stroke-width="3" stroke-linecap="square"/><path d="M416.7 25.5C412.9 26.6 409.7 27.5 405.9 28.5 405.9 26.4 405.9 24.6 405.9 22.5 409.7 23.6 412.9 24.5 416.7 25.5 416.7 25.5 416.7 25.5 416.7 25.5Z" stroke="#000000" stroke-width="3" stroke-linecap="square"/><path d="M604.5 25.5L887.5 25.8" stroke="#000000" stroke-width="3" stroke-linecap="square"/><path d="M887.5 25.7C883.7 24.7 880.5 23.8 876.7 22.7 876.7 24.8 876.7 26.6 876.7 28.7 880.5 27.7 883.7 26.8 887.5 25.7 887.5 25.7 887.5 25.7 887.5 25.7Z" stroke="#000000" stroke-width="3" stroke-linecap="square"/><path d="M605.3 25.5C609.1 24.5 612.3 23.6 616.1 22.5 616.1 24.6 616.1 26.4 616.1 28.5 612.3 27.5 609.1 26.6 605.3 25.5 605.3 25.5 605.3 25.5 605.3 25.5Z" stroke="#000000" stroke-width="3" stroke-linecap="square"/><path d="M913.5 25.5L1143.5 25" stroke="#000000" stroke-width="3" stroke-linecap="square"/><path d="M1143.5 25C1139.7 24 1136.5 23.1 1132.7 22 1132.7 24.1 1132.7 25.9 1132.7 28 1136.5 27 1139.7 26.1 1143.5 25 1143.5 25 1143.5 25 1143.5 25Z" stroke="#000000" stroke-width="3" stroke-linecap="square"/><path d="M914.3 25.5C918.1 24.4 921.3 23.5 925.1 22.5 925.1 24.6 925.1 26.4 925.1 28.5 921.3 27.4 918.1 26.5 914.3 25.5 914.3 25.5 914.3 25.5 914.3 25.5Z" stroke="#000000" stroke-width="3" stroke-linecap="square"/><text font-family="Helvetica Neue" font-size="24" font-weight="260" fill="#000000"><tspan x="217.9" y="19">Backshore</tspan></text><text font-family="Helvetica Neue" font-size="24" font-weight="260" fill="#000000"><tspan x="458.4" y="19">Foreshore</tspan></text><text font-family="Helvetica Neue" font-size="24" font-weight="260" fill="#000000"><tspan x="707.5" y="19">Inshore</tspan></text><text font-family="Helvetica Neue" font-size="24" font-weight="260" fill="#000000"><tspan x="984.5" y="19">Offshore</tspan></text><text font-family="Helvetica Neue" font-size="24" font-style="italic" font-weight="260" fill="#9B9B9B"><tspan x="970" y="241">High Water Mark</tspan></text><text font-family="Helvetica Neue" font-size="24" font-style="italic" font-weight="260" fill="#9B9B9B"><tspan x="973" y="303">Low Water Mark</tspan></text><path d="M899.5 25.1L899.5 385" stroke="#979797" stroke-width="3" stroke-linecap="square" stroke-dasharray="7"/><path d="M590.5 25.1L590.5 385" stroke="#979797" stroke-width="3" stroke-linecap="square" stroke-dasharray="7"/><path d="M428.5 25.5L428.5 384.6" stroke="#979797" stroke-width="3" stroke-linecap="square" stroke-dasharray="7"/><text font-family="Helvetica Neue" font-size="24" font-weight="260" fill="#FFFFFF"><tspan x="262" y="280">Beach</tspan></text><text font-family="Helvetica Neue" font-size="24" font-weight="260" fill="#FFFFFF"><tspan x="34" y="79">Cliff</tspan></text></g></svg>