---
---
<svg width="1140" height="568" viewBox="0 0 1140 568" xmlns="http://www.w3.org/2000/svg" xmlns:sketch="http://www.bohemiancoding.com/sketch/ns"><title>storm-hydrograph</title><desc>Created with Sketch.</desc>{% include svg-diagram-style.svg %}<g id="Page-1" sketch:type="MSPage" fill="none"><g id="Group" sketch:type="MSLayerGroup"><g id="chart-geometry" sketch:type="MSShapeGroup"><g id="y-grid" stroke="#D0D0E0" stroke-width=".5" fill="#000" stroke-dasharray="0.5,0.5"><path d="M52.852 508.397h1032.137m-1032.137-99.74h1032.137m-1032.137-99.778h1032.137m-1032.137-99.778h1032.137m-1032.137-99.74h1032.137m-1032.137-99.778h1032.137" id="Shape"/></g><g id="x-grid" stroke="#D0D0E0" stroke-width=".5" fill="#000" stroke-dasharray="0.5,0.5"><path d="M60.429 2v513.979m254.227-513.979v513.979m254.265-513.979v513.979m254.227-513.979v513.979m254.265-513.979v513.979" id="Shape"/></g><g id="curves"><path d="M60.429 483.415h9.508l1.326.038h14.926l1.364.038h13.562l1.364.038h14.888l1.364.038h13.562l1.364.038h17.615l1.364.038h13.562l1.364.038h10.834l1.364.038h5.417l1.364.038h6.781l1.364.038h5.417l1.364.038h4.053l1.364.038h2.69l1.364.038h1.364l1.364.038 1.364.038 1.326.076 1.364.038 1.364.076 1.364.038 1.364.076 1.326.038 1.364.038 1.364.038 1.364.038 1.364.038 1.326.038 1.364.038 1.364.038h1.364l1.364.038h2.69l1.364-.038h1.364l1.364-.038h1.326l1.364-.038h1.364l1.364-.038 1.364-.038 1.326-.038 1.364-.038 1.364-.076 1.364-.038 1.326-.076 1.364-.038 1.364-.076 1.364-.114 1.364-.076 1.326-.114 1.364-.076 1.364-.114 1.364-.152 1.364-.114 1.326-.152 1.364-.152 1.364-.19 1.364-.152 1.364-.19 1.326-.227 1.364-.227 1.364-.227 1.364-.227 1.364-.227 1.326-.265 1.364-.227 1.364-.265 1.364-.265 1.364-.265 1.326-.303 1.364-.265 1.364-.303 1.364-.303 1.364-.341 1.326-.303 1.364-.341 1.364-.341 1.364-.341 1.364-.341 1.326-.341 1.364-.341 1.364-.341 1.364-.379 1.326-.379 1.364-.379 1.364-.379 1.364-.379 1.364-.417 1.326-.417 1.364-.417 1.364-.455 1.364-.455 1.364-.455 1.326-.455 1.364-.493 1.364-.493 1.364-.531 1.364-.531 1.326-.531 1.364-.569 1.364-.569 1.364-.607 1.364-.569 1.326-.607 1.364-.644 1.364-.607 1.364-.644 1.364-.569 1.326-.607 1.364-.569 1.364-.569 1.364-.607 1.364-.644 1.326-.607 1.364-.644 1.364-.682 1.364-.644 1.326-.72 1.364-.72 1.364-.72 1.364-.758 1.364-.758 1.326-.796 1.364-.834 1.364-.834 1.364-.872 1.364-.948 1.326-.948 1.364-.986 1.364-.986 1.364-1.024 1.364-1.024 1.326-1.024 1.364-1.061 1.364-1.061 1.364-1.099 1.364-1.137 1.326-1.137 1.364-1.137 1.364-1.175 1.364-1.213 1.364-1.213 1.326-1.251 1.364-1.289 1.364-1.289 1.364-1.289 1.364-1.365 1.326-1.365 1.364-1.403 1.364-1.441 1.364-1.441 1.364-1.478 1.326-1.516 1.364-1.554 1.364-1.668 1.364-1.706 1.326-1.744 1.364-1.744 1.364-1.782 1.364-1.782 1.364-1.82 1.326-1.82 1.364-1.858 1.364-1.895 1.364-1.895 1.364-1.895 1.326-1.933 1.364-1.933 1.364-1.971 1.364-2.009 1.364-1.971 1.326-2.047 1.364-2.047 1.364-2.199 1.364-2.199 1.364-2.275 1.326-2.275 1.364-2.275 1.364-2.312 1.364-2.35 1.364-2.35 1.326-2.388 1.364-2.388 1.364-2.388 1.364-2.426 1.364-2.464 1.326-2.426 1.364-2.464 1.364-2.502 1.364-2.464 1.326-2.502 1.364-2.502 1.364-2.616 1.364-2.616 1.364-2.654 1.326-2.654 1.364-2.692 1.364-2.729 1.364-2.729 1.364-2.729 1.326-2.767 1.364-2.729 1.364-2.767 1.364-2.729 1.364-2.805 1.326-2.767 1.364-2.805 1.364-2.805 1.364-2.843 1.364-2.843 1.326-2.805 1.364-2.843 1.364-2.843 1.364-2.881 1.364-2.843 1.326-2.843 1.364-2.843 1.364-2.843 1.364-2.805 1.364-2.881 1.326-3.033 1.364-3.033 1.364-3.033 1.364-3.071 1.364-3.033 1.326-3.071 1.364-3.071 1.364-3.071 1.364-3.071 1.326-3.071 1.364-3.033 1.364-3.033 1.364-3.033 1.364-2.995 1.326-2.995 1.364-2.957 1.364-2.957 1.364-2.919 1.364-2.881 1.326-2.843 1.364-2.805 1.364-2.767 1.364-2.767 1.364-2.654 1.326-2.654 1.364-2.616 1.364-2.54 1.364-2.502 1.364-2.578 1.326-2.616 1.364-2.578 1.364-2.616 1.364-2.578 1.364-2.54 1.326-2.54 1.364-2.54 1.364-2.502 1.364-2.312 1.364-2.237 1.326-2.237 1.364-2.161 1.364-2.199 1.364-2.123 1.326-2.123 1.364-2.085 1.364-2.009 1.364-2.009 1.364-1.971 1.326-1.895 1.364-1.858 1.364-1.82 1.364-1.744 1.364-1.706 1.326-1.668 1.364-1.592 1.364-1.516 1.364-1.441 1.364-1.403 1.326-1.289 1.364-1.251 1.364-1.175 1.364-1.099 1.364-.986 1.326-.948 1.364-.834 1.364-.796 1.364-.796 1.364-.758 1.326-.72 1.364-.682 1.364-.607 1.364-.569 1.364-.531 1.326-.455 1.364-.265 1.364.265 1.364.341 1.364.417 1.326.455 1.364.531 1.364.607 1.364.644 1.326.72 1.364.758 1.364.796 1.364.872 1.364.91 1.326.986 1.364 1.024 1.364 1.061 1.364 1.099 1.364 1.137 1.326 1.213 1.364 1.403 1.364 1.592 1.364 1.706 1.364 1.744 1.326 1.858 1.364 1.895 1.364 1.971 1.364 2.009 1.364 2.085 1.326 2.123 1.364 2.161 1.364 2.237 1.364 2.275 1.364 2.312 1.326 2.312 1.364 2.388 1.364 2.388 1.364 2.426 1.364 2.464 1.326 2.464 1.364 2.502 1.364 2.502 1.364 2.502 1.364 2.502 1.326 2.502 1.364 2.54 1.364 2.502 1.364 2.502 1.326 2.54 1.364 2.578 1.364 2.654 1.364 2.692 1.364 2.729 1.326 2.767 1.364 2.805 1.364 2.805 1.364 2.881 1.364 2.843 1.326 2.919 1.364 2.919 1.364 2.919 1.364 2.957 1.364 2.957 1.326 2.957 1.364 2.957 1.364 2.995 1.364 2.957 1.364 2.919 1.326 2.843 1.364 2.881 1.364 2.919 1.364 2.919 1.364 2.919 1.326 2.957 1.364 2.957 1.364 2.957 1.364 2.957 1.364 2.957 1.326 2.995 1.364 2.957 1.364 2.957 1.364 2.957 1.326 2.957 1.364 2.957 1.364 2.957 1.364 2.919 1.364 2.805 1.326 2.843 1.364 2.805 1.364 2.843 1.364 2.805 1.364 2.843 1.326 2.843 1.364 2.805 1.364 2.843 1.364 2.843 1.364 2.881 1.326 2.881 1.364 2.843 1.364 2.881 1.364 2.843 1.364 2.881 1.326 2.805 1.364 2.843 1.364 2.805 1.364 2.805 1.364 2.767 1.326 2.729 1.364 2.729 1.364 2.729 1.364 2.654 1.364 2.654 1.326 2.578 1.364 2.578 1.364 2.388 1.364 2.275 1.364 2.312 1.326 2.237 1.364 2.275 1.364 2.199 1.364 2.237 1.326 2.161 1.364 2.199 1.364 2.123 1.364 2.123 1.364 2.123 1.326 2.085 1.364 2.047 1.364 2.047 1.364 2.009 1.364 1.971 1.326 1.971 1.364 1.933 1.364 1.895 1.364 1.858 1.364 1.858 1.326 1.82 1.364 1.782 1.364 1.744 1.364 1.744 1.364 1.668 1.326 1.668 1.364 1.63 1.364 1.63 1.364 1.592 1.364 1.592 1.326 1.516 1.364 1.554 1.364 1.478 1.364 1.478 1.364 1.478 1.326 1.365 1.364 1.175 1.364 1.099 1.364 1.099 1.326 1.099 1.364 1.024 1.364.986 1.364.986 1.364.948 1.326.91 1.364.91 1.364.872 1.364.834 1.364.834 1.326.834 1.364.758 1.364.796 1.364.72 1.364.758 1.326.72 1.364.72 1.364.682 1.364.682 1.364.682 1.326.644 1.364.682 1.364.644 1.364.644 1.364.607 1.326.455 1.364.379 1.364.379 1.364.379 1.364.303 1.326.303 1.364.265 1.364.227 1.364.227 1.364.379 1.326.379 1.364.379 1.364.341 1.364.379 1.326.303 1.364.341 1.364.303 1.364.265 1.364.303 1.326.265 1.364.265 1.364.227 1.364.265 1.364.227 1.326.227 1.364.227 1.364.227 1.364.19 1.364.341 1.326.341 1.364.341 1.364.303 1.364.341 1.364.303 1.326.303 1.364.303 1.364.303 1.364.303 1.364.303 1.326.265 1.364.303 1.364.265 1.364.303 1.364.265 1.326.265 1.364.265 1.364.265 1.364.227 1.326.265 1.364.265 1.364.227 1.364.265 1.364.227 1.326.265 1.364.227 1.364.227 1.364.227 1.364.19 1.326.19 1.364.19 1.364.19 1.364.19 1.364.19 1.326.152 1.364.152 1.364.152 1.364.152 1.364.114 1.326.152 1.364.114 1.364.152 1.364.114 1.364.114 1.326.114 1.364.114 1.364.114 1.364.114 1.364.114 1.326.114 1.364.114 1.364.114 1.364.076 1.364.114 1.326.114 1.364.114 1.364.076 1.364.114 1.326.114 1.364.076 1.364.114 1.364.076 1.364.114 1.326.076 1.364.076 1.364.114 1.364.076 1.364.076 1.326.076 1.364.076 1.364.076 1.364.076 1.364.076 1.326.076 1.364.038 1.364.076 1.364.076 1.364.038 1.326.076 1.364.076 1.364.038 1.364.076 1.364.038 1.326.076 1.364.038 1.364.076 1.364.038 1.364.076 1.326.038 1.364.038 1.364.038 1.364.076 1.364.038 1.326.038 1.364.038 1.364.038 1.364.038 1.326.038 1.364.038 1.364.038 1.364.038 1.364.038 1.326.038 1.364.038h1.364l1.364.038 1.364.038h1.326l1.364.038 1.364.038h1.364l1.364.038h1.326l1.364.038h2.728l1.364.038h4.053l1.364.038h6.781l1.364-.038h5.417l1.326-.038h2.728l1.364-.038h1.364l1.326-.038h1.364l1.364-.038 1.364-.038h1.364l1.326-.038 1.364-.038 1.364-.038 1.364-.038h1.364l1.326-.038 1.364-.038" id="Discharge-Curve" stroke="#F2783C" stroke-width="1.5"/><g id="Precipitation" fill-opacity=".75" fill="#00BFFF"><path d="M47.7 508.397h25.419v.038h-25.419v-.038zm25.419 0h25.419v.038h-25.419v-.038zm25.457 0h25.419v.038h-25.419v-.038zm25.419 0h25.419v.038h-25.419v-.038zm25.419 0h25.419v.038h-25.419v-.038zm25.419-9.97h25.419v9.97h-25.419v-9.97zm25.419-14.974h25.419v24.945h-25.419v-24.945zm25.419-24.945h25.419v49.889h-25.419v-49.889zm25.419-24.945h25.419v74.834h-25.419v-74.834zm25.457-24.907h25.419v99.778h-25.419v-99.778zm25.419-24.945h25.419v124.723h-25.419v-124.723zm25.419-49.889h25.419v174.574h-25.419v-174.574zm25.419-49.889h25.419v224.463h-25.419v-224.463zm25.419 24.945h25.419v199.518h-25.419v-199.518zm25.419 24.945h25.419v174.574h-25.419v-174.574zm25.419 99.74h25.419v74.834h-25.419v-74.834zm25.457 49.889h25.419v24.945h-25.419v-24.945zm25.419 14.974h25.419v9.97h-25.419v-9.97zm25.419 5.004h25.419v5.004h-25.419v-5.004zm25.419 4.966h25.419v.038h-25.419v-.038zm25.419 0h25.419v.038h-25.419v-.038zm25.419 0h25.419v.038h-25.419v-.038zm25.419 0h25.419v.038h-25.419v-.038zm25.457 0h25.419v.038h-25.419v-.038zm25.419 0h25.419v.038h-25.419v-.038zm25.419 0h25.419v.038h-25.419v-.038zm25.419 0h25.419v.038h-25.419v-.038zm25.419 0h25.419v.038h-25.419v-.038zm25.419 0h25.419v.038h-25.419v-.038zm25.457 0h25.419v.038h-25.419v-.038zm25.419 0h25.419v.038h-25.419v-.038zm25.419 0h25.419v.038h-25.419v-.038zm25.419 0h25.419v.038h-25.419v-.038zm25.419 0h25.419v.038h-25.419v-.038zm25.419 0h25.419v.038h-25.419v-.038zm25.419 0h25.419v.038h-25.419v-.038zm25.457 0h25.419v.038h-25.419v-.038zm25.419 0h25.419v.038h-25.419v-.038zm25.419 0h25.419v.038h-25.419v-.038zm25.419 0h25.419v.038h-25.419v-.038zm25.419 0h25.419v.038h-25.419v-.038z" id="Shape"/></g></g></g><g id="legend" sketch:type="MSShapeGroup"><path id="Rectangle-1" fill="#40CFFF" d="M833 28.112h93v23.688h-93z"/><path d="M833.5 69.5h92" id="Line" stroke="#F2783C" stroke-linecap="square"/></g><g id="axis-labels" fill="#6C606B" sketch:type="MSTextLayer"><g id="x-axis"><text id="0" transform="translate(57.132 515.749)"><tspan x="-.491" y="10.813">0</tspan></text><text id="10" transform="translate(57.132 515.749)"><tspan x="253.736" y="10.813">10</tspan></text><text id="20" transform="translate(57.132 515.749)"><tspan x="508.001" y="10.813">20</tspan></text><text id="30" transform="translate(57.132 515.749)"><tspan x="762.228" y="10.813">30</tspan></text><text id="40" transform="translate(57.132 515.749)"><tspan x="1016.493" y="10.813">40</tspan></text></g><g id="right-y-axis"><text id="0" transform="translate(1091.314 9.875)"><tspan x="-.491" y="501.941">0</tspan></text><text id="20" transform="translate(1091.314 9.875)"><tspan x="-.491" y="402.2">20</tspan></text><text id="40" transform="translate(1091.314 9.875)"><tspan x="-.491" y="302.422">40</tspan></text><text id="60" transform="translate(1091.314 9.875)"><tspan x="-.491" y="202.644">60</tspan></text><text id="80" transform="translate(1091.314 9.875)"><tspan x="-.491" y="102.904">80</tspan></text><text id="100" transform="translate(1091.314 9.875)"><tspan x="-.491" y="10.508">100</tspan></text></g><g id="left-y-axis"><text id="0" transform="translate(2 2) translate(28.322 7.875)"><tspan x="7.378" y="501.941">0</tspan></text><text id="20" transform="translate(2 2) translate(28.322 7.875)"><tspan x="7.378" y="402.2">20</tspan></text><text id="40" transform="translate(2 2) translate(28.322 7.875)"><tspan x="7.378" y="302.422">40</tspan></text><text id="60" transform="translate(2 2) translate(28.322 7.875)"><tspan x="7.378" y="202.644">60</tspan></text><text id="80" transform="translate(2 2) translate(28.322 7.875)"><tspan x="7.378" y="102.904">80</tspan></text><text id="100" transform="translate(2 2) translate(28.322 7.875)"><tspan x="0" y="10.508">100</tspan></text></g></g><g id="arrows"><path d="M262.5 180.5l84.813 94.773" id="Line" stroke="#333" stroke-width="3" sketch:type="MSShapeGroup"/><path id="Line-decoration-1" d="M347.191 275.138c-1.738-3.517-3.228-6.532-4.967-10.049l-4.471 4.001c3.303 2.117 6.134 3.931 9.438 6.047z" stroke="#333" stroke-width="3"/><path d="M480.5 195l22 24" id="Line" stroke="#333" stroke-width="3" sketch:type="MSShapeGroup"/><path id="Line-decoration-1" d="M502.123 218.589l-5.086-9.988-4.423 4.054 9.509 5.934z" stroke="#333" stroke-width="3"/><path d="M694.5 195l-12 24" id="Line" stroke="#333" stroke-width="3" sketch:type="MSShapeGroup"/><path id="Line-decoration-1" d="M682.872 218.255c2.63-2.911 4.884-5.407 7.513-8.318l-5.367-2.683c-.751 3.851-1.395 7.151-2.147 11.001z" stroke="#333" stroke-width="3"/><path d="M652.5 41.5l-49 54" id="Line" stroke="#333" stroke-width="3" sketch:type="MSShapeGroup"/><path id="Line-decoration-1" d="M604.117 94.82l9.479-5.982-4.443-4.032-5.036 10.014z" stroke="#333" stroke-width="3"/><path d="M587.5 99.5h-217" id="Line" stroke="#333" stroke-width="3" sketch:type="MSShapeGroup"/><path id="Line-decoration-1" d="M370.5 99.5l10.8 3v-6l-10.8 3z" stroke="#333" stroke-width="3"/><path id="Line-decoration-2" d="M575.9 96.5l10.8 3-10.8 3" stroke="#333" stroke-width="3"/><path d="M364.5 99.758v408.742" id="Line" stroke="#6C606B" stroke-dasharray="5,3" sketch:type="MSShapeGroup"/><path d="M594.5 99.758v408.742" id="Line-2" stroke="#6C606B" stroke-dasharray="5,3" sketch:type="MSShapeGroup"/></g><g id="labels" sketch:type="MSTextLayer"><text id="Elapsed-Time-(hours)" fill="#000" transform="translate(2 2) translate(0 11.332)"><tspan x="475.438" y="548.338">Elapsed Time (hours)</tspan></text><text id="Precipitation" fill="#000" transform="translate(2 2) translate(0 11.332)"><tspan x="940" y="33.468">Precipitation</tspan></text><text id="Discharge" fill="#000" transform="translate(2 2) translate(0 11.332)"><tspan x="940" y="64.668">Discharge</tspan></text><text id="Peak-rainfall" fill="#000" transform="translate(2 2) translate(0 11.332)"><tspan x="142" y="149.668">Peak rainfall</tspan></text><text id="Falling-limb" fill="#000" transform="translate(2 2) translate(0 11.332)"><tspan x="692.443" y="173.668">Falling limb</tspan></text><text id="Rising-limb" fill="#000" transform="translate(2 2) translate(0 11.332)"><tspan x="372" y="173.668">Rising limb</tspan></text><text id="Peak-discharge" fill="#000" transform="translate(2 2) translate(0 11.332)"><tspan x="617" y="23.668">Peak discharge</tspan></text><text id="Lag-time" fill="#000" transform="translate(2 2) translate(0 11.332)"><tspan x="436" y="77.668">Lag time</tspan></text><text id="Precipitation-(mm)" transform="translate(14.500000, 280.167812) rotate(-90.000000) translate(-14.500000, -280.167812)" fill="#000"><tspan x="-79" y="289.668">Precipitation (mm)</tspan></text><text id="Discharge-(Cumecs)" transform="translate(1123.500000, 280.167812) rotate(-270.000000) translate(-1123.500000, -280.167812)" fill="#000"><tspan x="1022" y="289.668">Discharge (Cumecs)</tspan></text></g></g></g></svg>